<?xml version="1.0" encoding="UTF-8" standalone="no"?>
<!-- Created with Inkscape (http://www.inkscape.org/) -->

<svg
   width="192.01378mm"
   height="86.2304mm"
   viewBox="0 0 192.01378 86.2304"
   version="1.1"
   id="svg1"
   inkscape:version="1.4.3 (0d15f75, 2025-12-25)"
   sodipodi:docname="agitated-solid-leaching.svg"
   xmlns:inkscape="http://www.inkscape.org/namespaces/inkscape"
   xmlns:sodipodi="http://sodipodi.sourceforge.net/DTD/sodipodi-0.dtd"
   xmlns:xlink="http://www.w3.org/1999/xlink"
   xmlns="http://www.w3.org/2000/svg"
   xmlns:svg="http://www.w3.org/2000/svg">
  <sodipodi:namedview
     id="namedview1"
     pagecolor="#ffffff"
     bordercolor="#000000"
     borderopacity="0.25"
     inkscape:showpageshadow="2"
     inkscape:pageopacity="0.0"
     inkscape:pagecheckerboard="0"
     inkscape:deskcolor="#d1d1d1"
     inkscape:document-units="mm"
     inkscape:zoom="0.70710678"
     inkscape:cx="402.34376"
     inkscape:cy="382.54477"
     inkscape:window-width="1920"
     inkscape:window-height="1027"
     inkscape:window-x="-8"
     inkscape:window-y="22"
     inkscape:window-maximized="1"
     inkscape:current-layer="layer1" />
  <defs
     id="defs1">
    <inkscape:path-effect
       effect="spiro"
       id="path-effect114"
       is_visible="true"
       lpeversion="1" />
    <marker
       style="overflow:visible"
       id="ArrowTriangleStylized"
       refX="0"
       refY="0"
       orient="auto-start-reverse"
       inkscape:stockid="Stylized triangle arrow"
       markerWidth="1"
       markerHeight="1"
       viewBox="0 0 1 1"
       inkscape:isstock="true"
       inkscape:collect="always"
       preserveAspectRatio="xMidYMid">
      <path
         transform="scale(0.5)"
         style="fill:context-stroke;fill-rule:evenodd;stroke:context-stroke;stroke-width:1pt"
         d="m 6,0 c -3,1 -7,3 -9,5 0,0 0,-4 2,-5 -2,-1 -2,-5 -2,-5 2,2 6,4 9,5 z"
         id="path97" />
    </marker>
    <inkscape:path-effect
       effect="bspline"
       id="path-effect96"
       is_visible="true"
       lpeversion="1.3"
       weight="33.333333"
       steps="2"
       helper_size="0"
       apply_no_weight="true"
       apply_with_weight="true"
       only_selected="false"
       uniform="false" />
    <pattern
       inkscape:collect="always"
       xlink:href="#pattern22"
       preserveAspectRatio="xMidYMid"
       id="pattern73"
       patternTransform="matrix(0.11456794,0.06614583,-0.06614583,0.11456794,1.3000002e-7,3.8571429)" />
    <inkscape:path-effect
       effect="bspline"
       id="path-effect73"
       is_visible="true"
       lpeversion="1.3"
       weight="33.333333"
       steps="2"
       helper_size="0"
       apply_no_weight="true"
       apply_with_weight="true"
       only_selected="false"
       uniform="false" />
    <inkscape:path-effect
       effect="bspline"
       id="path-effect50"
       is_visible="true"
       lpeversion="1.3"
       weight="33.333333"
       steps="2"
       helper_size="0"
       apply_no_weight="true"
       apply_with_weight="true"
       only_selected="false"
       uniform="false" />
    <pattern
       inkscape:collect="always"
       xlink:href="#Strips1_5"
       preserveAspectRatio="xMidYMid"
       id="pattern22"
       patternTransform="matrix(0.4330127,0.25,-0.25,0.4330127,0,0)"
       x="0"
       y="0" />
    <pattern
       inkscape:collect="always"
       patternUnits="userSpaceOnUse"
       width="6"
       height="1"
       patternTransform="translate(0,0) scale(2,2)"
       preserveAspectRatio="xMidYMid"
       id="Strips1_5"
       style="fill:#000000"
       inkscape:stockid="Stripes 06 (1:5)"
       inkscape:isstock="true"
       inkscape:label="Stripes 06 (1:5)">
      <rect
   style="stroke:none"
   x="0"
   y="-0.5"
   width="1"
   height="2"
   id="rect164" />

    </pattern>
    <inkscape:path-effect
       effect="bspline"
       id="path-effect20"
       is_visible="true"
       lpeversion="1.3"
       weight="33.333333"
       steps="2"
       helper_size="0"
       apply_no_weight="true"
       apply_with_weight="true"
       only_selected="false"
       uniform="false" />
  </defs>
  <g
     inkscape:label="Layer 1"
     inkscape:groupmode="layer"
     id="layer1"
     transform="translate(-1.9089831,-57.465136)">
    <path
       id="path22"
       style="fill:#808080;fill-opacity:1;stroke:#000000;stroke-width:0.264999"
       d="m 35.569467,120.3918 a 3.1558442,3.1558442 0 0 0 -3.15588,3.15588 3.1558442,3.1558442 0 0 0 1.174089,2.45618 l -1.306897,1.62005 h 6.576859 l -1.306897,-1.62005 a 3.1558442,3.1558442 0 0 0 1.174605,-2.45618 3.1558442,3.1558442 0 0 0 -3.155879,-3.15588 z" />
    <g
       id="g73"
       transform="translate(36.523798,2.9691603)">
      <path
         id="path27"
         style="fill:#808080;fill-opacity:1;stroke:#000000;stroke-width:0.264999"
         d="m 52.763704,86.435048 v 21.105682 c 5.175408,2.83087 10.349769,5.66315 15.525151,8.49406 5.175383,-2.83091 10.350259,-5.66318 15.525667,-8.49406 V 86.435048 h -1.5875 v 20.162592 l -13.938167,7.62641 -13.938167,-7.62641 V 86.435048 Z" />
      <path
         style="fill:none;fill-opacity:1;stroke:#000000;stroke-width:0.264999"
         d="m 54.350686,87.136363 c 2.629858,-0.876624 5.259716,-1.753247 7.699667,-1.637585 2.43995,0.115662 4.689906,1.223568 6.954539,1.325832 2.264634,0.102264 4.543808,-0.801099 6.749956,-0.902133 2.206149,-0.101035 4.33914,0.60025 6.472174,1.301548"
         id="path28"
         inkscape:path-effect="#path-effect50"
         inkscape:original-d="m 54.350686,87.136363 c 2.629858,-0.876623 5.259716,-1.753248 7.889574,-2.629871 2.250043,1.107948 4.499999,2.215854 6.749999,3.323781 2.279267,-0.903399 4.55844,-1.806763 6.837662,-2.710143 2.133076,0.701312 4.266067,1.402596 6.399101,2.103895"
         transform="translate(1.3000002e-7,3.8571429)" />
      <path
         style="fill:url(#pattern73);stroke:#000000;stroke-width:0.0439002"
         d="m 61.376239,110.26696 -6.868893,-3.75722 -0.0016,-7.701657 -0.0016,-7.701655 0.953329,-0.311505 c 3.792164,-1.239118 5.787911,-1.517621 7.978592,-1.113404 0.330748,0.06103 1.331148,0.295503 2.223111,0.521052 2.166297,0.547793 2.552462,0.611172 3.725651,0.611484 1.102204,2.65e-4 1.423614,-0.04023 3.441091,-0.433837 0.8074,-0.157525 1.694826,-0.31632 1.972059,-0.35288 1.959176,-0.258377 3.595656,-0.0209 6.651379,0.965242 l 0.624594,0.201567 -0.0016,7.657796 -0.0016,7.657797 -6.855093,3.74756 c -3.770301,2.06116 -6.881084,3.75191 -6.91285,3.75722 -0.03177,0.005 -3.148759,-1.68109 -6.926646,-3.74756 z"
         id="path29" />
      <g
         id="g48"
         transform="translate(0.03392026,3.8571429)">
        <path
           id="path30"
           style="fill:#808080;fill-opacity:1;stroke:#000000;stroke-width:0.264999"
           d="m 67.438778,67.688892 v 38.591438 l -8.762773,-4.79815 h -2.2071 l 11.81995,6.47092 11.820467,-6.47092 h -2.204 l -8.76639,4.79867 V 67.688892 Z" />
        <path
           style="fill:#000000;fill-opacity:0;stroke:#000000;stroke-width:0.264999"
           d="m 56.468904,101.48218 v 1.34574"
           id="path31" />
        <path
           style="fill:#000000;fill-opacity:0;stroke:#000000;stroke-width:0.264999"
           d="m 58.289847,102.33537 v 1.34574"
           id="path32" />
        <path
           style="fill:#000000;fill-opacity:0;stroke:#000000;stroke-width:0.264999"
           d="m 60.051479,103.38118 v 1.34574"
           id="path33" />
        <path
           style="fill:#000000;fill-opacity:0;stroke:#000000;stroke-width:0.264999"
           d="m 61.872422,104.23437 v 1.34574"
           id="path34" />
        <path
           style="fill:#000000;fill-opacity:0;stroke:#000000;stroke-width:0.264999"
           d="m 63.545678,105.50011 v 1.34574"
           id="path35" />
        <path
           style="fill:#000000;fill-opacity:0;stroke:#000000;stroke-width:0.264999"
           d="m 65.366621,106.3533 v 1.34574"
           id="path36" />
        <path
           style="fill:#000000;fill-opacity:0;stroke:#000000;stroke-width:0.264999"
           d="m 80.031839,101.56741 v 1.34574"
           id="path37" />
        <path
           style="fill:#000000;fill-opacity:0;stroke:#000000;stroke-width:0.264999"
           d="m 78.210896,102.4206 v 1.34574"
           id="path38" />
        <path
           style="fill:#000000;fill-opacity:0;stroke:#000000;stroke-width:0.264999"
           d="m 76.449264,103.46641 v 1.34574"
           id="path39" />
        <path
           style="fill:#000000;fill-opacity:0;stroke:#000000;stroke-width:0.264999"
           d="m 74.628321,104.3196 v 1.34574"
           id="path40" />
        <path
           style="fill:#000000;fill-opacity:0;stroke:#000000;stroke-width:0.264999"
           d="m 72.955065,105.58534 v 1.34574"
           id="path41" />
        <path
           style="fill:#000000;fill-opacity:0;stroke:#000000;stroke-width:0.264999"
           d="m 71.134122,106.43853 v 1.34574"
           id="path42" />
        <path
           style="fill:#000000;fill-opacity:0;stroke:#000000;stroke-width:0.264999"
           d="m 67.20753,107.40525 v 1.34574"
           id="path43" />
        <path
           style="fill:#000000;fill-opacity:0;stroke:#000000;stroke-width:0.264999"
           d="m 69.271297,107.42473 v 1.34574"
           id="path44" />
        <g
           id="g47">
          <g
             id="g46"
             transform="translate(0,-2.1166667)">
            <rect
               style="fill:#808080;fill-opacity:1;stroke:#000000;stroke-width:0.264999"
               id="rect44"
               width="5.4255347"
               height="4.9362254"
               x="65.576088"
               y="65.220779" />
            <path
               style="fill:#808080;fill-opacity:1;stroke:#000000;stroke-width:0.264999"
               d="m 71.001625,65.220778 -5.425538,4.936228"
               id="path45" />
            <path
               style="fill:#808080;fill-opacity:1;stroke:#000000;stroke-width:0.264999"
               d="m 65.576087,65.220778 5.425538,4.936228"
               id="path46" />
          </g>
        </g>
      </g>
    </g>
    <g
       id="g95"
       transform="translate(87.587225,9.4823519)">
      <path
         id="path73"
         style="fill:#808080;fill-opacity:1;stroke:#000000;stroke-width:0.264999"
         d="m 52.763704,86.435048 v 21.105682 c 5.175408,2.83087 10.349769,5.66315 15.525151,8.49406 5.175383,-2.83091 10.350259,-5.66318 15.525667,-8.49406 V 86.435048 h -1.5875 v 20.162592 l -13.938167,7.62641 -13.938167,-7.62641 V 86.435048 Z" />
      <path
         style="fill:none;fill-opacity:1;stroke:#000000;stroke-width:0.264999"
         d="m 54.350686,87.136363 c 2.629858,-0.876624 5.259716,-1.753247 7.699667,-1.637585 2.43995,0.115662 4.689906,1.223568 6.954539,1.325832 2.264634,0.102264 4.543808,-0.801099 6.749956,-0.902133 2.206149,-0.101035 4.33914,0.60025 6.472174,1.301548"
         id="path74"
         inkscape:path-effect="#path-effect96"
         inkscape:original-d="m 54.350686,87.136363 c 2.629858,-0.876623 5.259716,-1.753248 7.889574,-2.629871 2.250043,1.107948 4.499999,2.215854 6.749999,3.323781 2.279267,-0.903399 4.55844,-1.806763 6.837662,-2.710143 2.133076,0.701312 4.266067,1.402596 6.399101,2.103895"
         transform="translate(1.3000002e-7,3.8571429)" />
      <path
         style="fill:url(#pattern73);stroke:#000000;stroke-width:0.0439002"
         d="m 61.376239,110.26696 -6.868893,-3.75722 -0.0016,-7.701657 -0.0016,-7.701655 0.953329,-0.311505 c 3.792164,-1.239118 5.787911,-1.517621 7.978592,-1.113404 0.330748,0.06103 1.331148,0.295503 2.223111,0.521052 2.166297,0.547793 2.552462,0.611172 3.725651,0.611484 1.102204,2.65e-4 1.423614,-0.04023 3.441091,-0.433837 0.8074,-0.157525 1.694826,-0.31632 1.972059,-0.35288 1.959176,-0.258377 3.595656,-0.0209 6.651379,0.965242 l 0.624594,0.201567 -0.0016,7.657796 -0.0016,7.657797 -6.855093,3.74756 c -3.770301,2.06116 -6.881084,3.75191 -6.91285,3.75722 -0.03177,0.005 -3.148759,-1.68109 -6.926646,-3.74756 z"
         id="path75" />
      <g
         id="g94"
         transform="translate(0.03392026,3.8571429)">
        <path
           id="path76"
           style="fill:#808080;fill-opacity:1;stroke:#000000;stroke-width:0.264999"
           d="m 67.438778,67.688892 v 38.591438 l -8.762773,-4.79815 h -2.2071 l 11.81995,6.47092 11.820467,-6.47092 h -2.204 l -8.76639,4.79867 V 67.688892 Z" />
        <path
           style="fill:#000000;fill-opacity:0;stroke:#000000;stroke-width:0.264999"
           d="m 56.468904,101.48218 v 1.34574"
           id="path77" />
        <path
           style="fill:#000000;fill-opacity:0;stroke:#000000;stroke-width:0.264999"
           d="m 58.289847,102.33537 v 1.34574"
           id="path78" />
        <path
           style="fill:#000000;fill-opacity:0;stroke:#000000;stroke-width:0.264999"
           d="m 60.051479,103.38118 v 1.34574"
           id="path79" />
        <path
           style="fill:#000000;fill-opacity:0;stroke:#000000;stroke-width:0.264999"
           d="m 61.872422,104.23437 v 1.34574"
           id="path80" />
        <path
           style="fill:#000000;fill-opacity:0;stroke:#000000;stroke-width:0.264999"
           d="m 63.545678,105.50011 v 1.34574"
           id="path81" />
        <path
           style="fill:#000000;fill-opacity:0;stroke:#000000;stroke-width:0.264999"
           d="m 65.366621,106.3533 v 1.34574"
           id="path82" />
        <path
           style="fill:#000000;fill-opacity:0;stroke:#000000;stroke-width:0.264999"
           d="m 80.031839,101.56741 v 1.34574"
           id="path83" />
        <path
           style="fill:#000000;fill-opacity:0;stroke:#000000;stroke-width:0.264999"
           d="m 78.210896,102.4206 v 1.34574"
           id="path84" />
        <path
           style="fill:#000000;fill-opacity:0;stroke:#000000;stroke-width:0.264999"
           d="m 76.449264,103.46641 v 1.34574"
           id="path85" />
        <path
           style="fill:#000000;fill-opacity:0;stroke:#000000;stroke-width:0.264999"
           d="m 74.628321,104.3196 v 1.34574"
           id="path86" />
        <path
           style="fill:#000000;fill-opacity:0;stroke:#000000;stroke-width:0.264999"
           d="m 72.955065,105.58534 v 1.34574"
           id="path87" />
        <path
           style="fill:#000000;fill-opacity:0;stroke:#000000;stroke-width:0.264999"
           d="m 71.134122,106.43853 v 1.34574"
           id="path88" />
        <path
           style="fill:#000000;fill-opacity:0;stroke:#000000;stroke-width:0.264999"
           d="m 67.20753,107.40525 v 1.34574"
           id="path89" />
        <path
           style="fill:#000000;fill-opacity:0;stroke:#000000;stroke-width:0.264999"
           d="m 69.271297,107.42473 v 1.34574"
           id="path90" />
        <g
           id="g93">
          <g
             id="g92"
             transform="translate(0,-2.1166667)">
            <rect
               style="fill:#808080;fill-opacity:1;stroke:#000000;stroke-width:0.264999"
               id="rect90"
               width="5.4255347"
               height="4.9362254"
               x="65.576088"
               y="65.220779" />
            <path
               style="fill:#808080;fill-opacity:1;stroke:#000000;stroke-width:0.264999"
               d="m 71.001625,65.220778 -5.425538,4.936228"
               id="path91" />
            <path
               style="fill:#808080;fill-opacity:1;stroke:#000000;stroke-width:0.264999"
               d="m 65.576087,65.220778 5.425538,4.936228"
               id="path92" />
          </g>
        </g>
      </g>
    </g>
    <path
       style="fill:#808080;fill-opacity:1;stroke:#000000;stroke-width:0.264999;marker-end:url(#ArrowTriangleStylized)"
       d="m 54.134752,112.17765 v 9.68549"
       id="path96"
       sodipodi:nodetypes="cc" />
    <path
       style="fill:#808080;fill-opacity:1;stroke:#000000;stroke-width:0.264999;marker-end:url(#ArrowTriangleStylized)"
       d="M 54.134752,122.93747 H 39.846989"
       id="path98"
       sodipodi:nodetypes="cc" />
    <path
       style="fill:none;fill-opacity:1;stroke:#000000;stroke-width:0.264999;marker-end:url(#ArrowTriangleStylized)"
       d="m 35.569466,120.3918 -6.497735,-0.1325 v -11.03885 h -5.268864"
       id="path99" />
    <path
       style="fill:none;fill-opacity:1;stroke:#000000;stroke-width:0.264999"
       d="M 80.45865,75.003826 H 46.489974"
       id="path100" />
    <path
       style="fill:none;fill-opacity:1;stroke:#000000;stroke-width:0.264999;marker-end:url(#ArrowTriangleStylized)"
       d="m 46.489974,75.003826 v 7.438395"
       id="path101" />
    <path
       style="fill:none;fill-opacity:1;stroke:#000000;stroke-width:0.264999;marker-end:url(#ArrowTriangleStylized)"
       d="m 62.110606,75.003826 v 7.438395"
       id="path102" />
    <g
       id="g27"
       transform="translate(-14.154103)">
      <path
         id="rect1"
         style="fill:#808080;fill-opacity:1;stroke:#000000;stroke-width:0.264999"
         d="m 52.763704,82.577905 v 21.105685 c 5.175408,2.83087 10.349769,5.66315 15.525151,8.49406 5.175383,-2.83091 10.350259,-5.66318 15.525667,-8.49406 V 82.577905 h -1.5875 V 102.7405 L 68.288855,110.36691 54.350688,102.7405 V 82.577905 Z" />
      <path
         style="fill:none;fill-opacity:1;stroke:#000000;stroke-width:0.264999"
         d="m 54.350686,87.136363 c 2.629858,-0.876624 5.259716,-1.753247 7.699667,-1.637585 2.43995,0.115662 4.689906,1.223568 6.954539,1.325832 2.264634,0.102264 4.543808,-0.801099 6.749956,-0.902133 2.206149,-0.101035 4.33914,0.60025 6.472174,1.301548"
         id="path20"
         inkscape:path-effect="#path-effect20"
         inkscape:original-d="m 54.350686,87.136363 c 2.629858,-0.876623 5.259716,-1.753248 7.889574,-2.629871 2.250043,1.107948 4.499999,2.215854 6.749999,3.323781 2.279267,-0.903399 4.55844,-1.806763 6.837662,-2.710143 2.133076,0.701312 4.266067,1.402596 6.399101,2.103895" />
      <path
         style="fill:url(#pattern22);stroke:#000000;stroke-width:0.165922"
         d="m 231.97319,402.17884 -25.96117,-14.20052 -0.006,-29.10862 -0.006,-29.10862 3.60313,-1.17734 c 14.33259,-4.68328 21.87557,-5.73589 30.15531,-4.20814 1.25007,0.23065 5.03111,1.11686 8.40231,1.96933 8.18758,2.0704 9.6471,2.30994 14.0812,2.31112 4.16581,0.001 5.38059,-0.15205 13.0057,-1.6397 3.05159,-0.59537 6.40564,-1.19554 7.45345,-1.33372 7.40476,-0.97654 13.58988,-0.079 25.13907,3.64816 l 2.36067,0.76183 -0.006,28.94285 -0.006,28.94285 -25.90901,14.16403 c -14.24996,7.79021 -26.00725,14.18044 -26.12731,14.20051 -0.12006,0.0201 -11.90082,-6.35374 -26.17945,-14.16402 z"
         id="path21"
         transform="scale(0.26458333)" />
      <g
         id="g20"
         transform="translate(0.03392013)">
        <path
           id="path1"
           style="fill:#808080;fill-opacity:1;stroke:#000000;stroke-width:0.264999"
           d="m 67.438778,67.688892 v 38.591438 l -8.762773,-4.79815 h -2.2071 l 11.81995,6.47092 11.820467,-6.47092 h -2.204 l -8.76639,4.79867 V 67.688892 Z" />
        <path
           style="fill:#000000;fill-opacity:0;stroke:#000000;stroke-width:0.264999"
           d="m 56.468904,101.48218 v 1.34574"
           id="path3" />
        <path
           style="fill:#000000;fill-opacity:0;stroke:#000000;stroke-width:0.264999"
           d="m 58.289847,102.33537 v 1.34574"
           id="path4" />
        <path
           style="fill:#000000;fill-opacity:0;stroke:#000000;stroke-width:0.264999"
           d="m 60.051479,103.38118 v 1.34574"
           id="path5" />
        <path
           style="fill:#000000;fill-opacity:0;stroke:#000000;stroke-width:0.264999"
           d="m 61.872422,104.23437 v 1.34574"
           id="path6" />
        <path
           style="fill:#000000;fill-opacity:0;stroke:#000000;stroke-width:0.264999"
           d="m 63.545678,105.50011 v 1.34574"
           id="path7" />
        <path
           style="fill:#000000;fill-opacity:0;stroke:#000000;stroke-width:0.264999"
           d="m 65.366621,106.3533 v 1.34574"
           id="path8" />
        <path
           style="fill:#000000;fill-opacity:0;stroke:#000000;stroke-width:0.264999"
           d="m 80.031839,101.56741 v 1.34574"
           id="path9" />
        <path
           style="fill:#000000;fill-opacity:0;stroke:#000000;stroke-width:0.264999"
           d="m 78.210896,102.4206 v 1.34574"
           id="path10" />
        <path
           style="fill:#000000;fill-opacity:0;stroke:#000000;stroke-width:0.264999"
           d="m 76.449264,103.46641 v 1.34574"
           id="path11" />
        <path
           style="fill:#000000;fill-opacity:0;stroke:#000000;stroke-width:0.264999"
           d="m 74.628321,104.3196 v 1.34574"
           id="path12" />
        <path
           style="fill:#000000;fill-opacity:0;stroke:#000000;stroke-width:0.264999"
           d="m 72.955065,105.58534 v 1.34574"
           id="path13" />
        <path
           style="fill:#000000;fill-opacity:0;stroke:#000000;stroke-width:0.264999"
           d="m 71.134122,106.43853 v 1.34574"
           id="path14" />
        <path
           style="fill:#000000;fill-opacity:0;stroke:#000000;stroke-width:0.264999"
           d="m 67.20753,107.40525 v 1.34574"
           id="path15" />
        <path
           style="fill:#000000;fill-opacity:0;stroke:#000000;stroke-width:0.264999"
           d="m 69.271297,107.42473 v 1.34574"
           id="path16" />
        <g
           id="g18">
          <g
             id="g19"
             transform="translate(0,-2.1166667)">
            <rect
               style="fill:#808080;fill-opacity:1;stroke:#000000;stroke-width:0.264999"
               id="rect17"
               width="5.4255347"
               height="4.9362254"
               x="65.576088"
               y="65.220779" />
            <path
               style="fill:#808080;fill-opacity:1;stroke:#000000;stroke-width:0.264999"
               d="m 71.001625,65.220778 -5.425538,4.936228"
               id="path17" />
            <path
               style="fill:#808080;fill-opacity:1;stroke:#000000;stroke-width:0.264999"
               d="m 65.576087,65.220778 5.425538,4.936228"
               id="path18" />
          </g>
        </g>
      </g>
    </g>
    <path
       style="fill:none;fill-opacity:1;stroke:#000000;stroke-width:0.264999;marker-start:url(#ArrowTriangleStylized)"
       d="M 66.052763,73.865505 V 58.988712 H 43.886535"
       id="path103" />
    <path
       style="fill:none;fill-opacity:1;stroke:#000000;stroke-width:0.264999;marker-start:url(#ArrowTriangleStylized)"
       d="M 80.45865,75.871639 V 101.41013"
       id="path104" />
    <path
       id="path106"
       style="fill:#808080;fill-opacity:1;stroke:#000000;stroke-width:0.264999"
       d="m 35.569467,120.3918 a 3.1558442,3.1558442 0 0 0 -3.15588,3.15588 3.1558442,3.1558442 0 0 0 1.174089,2.45618 l -1.306897,1.62005 h 6.576859 l -1.306897,-1.62005 a 3.1558442,3.1558442 0 0 0 1.174605,-2.45618 3.1558442,3.1558442 0 0 0 -3.155879,-3.15588 z" />
    <path
       id="path107"
       style="fill:#808080;fill-opacity:1;stroke:#000000;stroke-width:0.264999"
       d="m 86.445175,126.33441 a 3.1558442,3.1558442 0 0 0 -3.15588,3.15588 3.1558442,3.1558442 0 0 0 1.174089,2.45618 l -1.306897,1.62005 h 6.576859 l -1.306897,-1.62005 a 3.1558442,3.1558442 0 0 0 1.174605,-2.45618 3.1558442,3.1558442 0 0 0 -3.155879,-3.15588 z" />
    <path
       style="fill:#808080;fill-opacity:1;stroke:#000000;stroke-width:0.264999;marker-end:url(#ArrowTriangleStylized)"
       d="m 105,118.83999 v 9.68549"
       id="path109"
       sodipodi:nodetypes="cc" />
    <path
       style="fill:#808080;fill-opacity:1;stroke:#000000;stroke-width:0.264999;marker-end:url(#ArrowTriangleStylized)"
       d="M 105,129.59981 H 90.712237"
       id="path110"
       sodipodi:nodetypes="cc" />
    <path
       style="fill:none;fill-opacity:1;stroke:#000000;stroke-width:0.264999;marker-start:url(#ArrowTriangleStylized)"
       d="m 80.45865,101.41013 0.02192,24.92428 h 5.964609"
       id="path111"
       sodipodi:nodetypes="ccc" />
    <g
       id="g123">
      <path
         style="fill:none;fill-opacity:1;stroke:#000000;stroke-width:0.264999"
         d="m 69.73539,87.267856 h 8.63474"
         id="path112" />
      <path
         style="fill:none;fill-opacity:1;stroke:#000000;stroke-width:0.264999"
         d="M 82.384933,87.267856 H 93.592142"
         id="path113"
         sodipodi:nodetypes="cc" />
      <path
         style="fill:none;fill-opacity:1;stroke:#000000;stroke-width:0.264999"
         d="m 78.262669,87.325324 c 0,0 2.061476,-2.996647 4.226866,-0.0052"
         id="path114"
         sodipodi:nodetypes="cc" />
      <path
         style="fill:none;fill-opacity:1;stroke:#000000;stroke-width:0.264999;marker-end:url(#ArrowTriangleStylized)"
         d="m 93.545369,87.139233 v 3.797551"
         id="path115" />
    </g>
    <path
       style="fill:none;fill-opacity:1;stroke:#000000;stroke-width:0.264999"
       d="M 131.34677,81.55193 H 97.378091"
       id="path116" />
    <path
       style="fill:none;fill-opacity:1;stroke:#000000;stroke-width:0.264999;marker-end:url(#ArrowTriangleStylized)"
       d="m 97.378091,81.55193 v 7.438395"
       id="path117" />
    <path
       style="fill:none;fill-opacity:1;stroke:#000000;stroke-width:0.264999;marker-end:url(#ArrowTriangleStylized)"
       d="m 112.99872,81.55193 v 7.438395"
       id="path118" />
    <path
       style="fill:none;fill-opacity:1;stroke:#000000;stroke-width:0.264999;marker-start:url(#ArrowTriangleStylized)"
       d="M 131.34677,82.419743 V 107.95823"
       id="path119" />
    <path
       id="path120"
       style="fill:#808080;fill-opacity:1;stroke:#000000;stroke-width:0.264999"
       d="m 137.33329,132.88251 a 3.1558442,3.1558442 0 0 0 -3.15588,3.15588 3.1558442,3.1558442 0 0 0 1.17409,2.45618 l -1.3069,1.62005 h 6.57686 l -1.30689,-1.62005 a 3.1558442,3.1558442 0 0 0 1.1746,-2.45618 3.1558442,3.1558442 0 0 0 -3.15588,-3.15588 z" />
    <path
       style="fill:#808080;fill-opacity:1;stroke:#000000;stroke-width:0.264999;marker-end:url(#ArrowTriangleStylized)"
       d="m 155.88812,125.38809 v 9.68549"
       id="path121"
       sodipodi:nodetypes="cc" />
    <path
       style="fill:#808080;fill-opacity:1;stroke:#000000;stroke-width:0.264999;marker-end:url(#ArrowTriangleStylized)"
       d="M 155.88812,136.14791 H 141.60035"
       id="path122"
       sodipodi:nodetypes="cc" />
    <path
       style="fill:none;fill-opacity:1;stroke:#000000;stroke-width:0.264999;marker-start:url(#ArrowTriangleStylized)"
       d="m 131.34677,107.95823 0.0219,24.92428 h 5.96461"
       id="path123"
       sodipodi:nodetypes="ccc" />
    <g
       id="g127"
       transform="translate(50.932291,6.917914)">
      <path
         style="fill:none;fill-opacity:1;stroke:#000000;stroke-width:0.264999"
         d="M 69.487343,87.267856 H 78.37013"
         id="path124"
         sodipodi:nodetypes="cc" />
      <path
         style="fill:none;fill-opacity:1;stroke:#000000;stroke-width:0.264999"
         d="M 82.384933,87.267856 H 93.592142"
         id="path125"
         sodipodi:nodetypes="cc" />
      <path
         style="fill:none;fill-opacity:1;stroke:#000000;stroke-width:0.264999"
         d="m 78.262669,87.325324 c 0,0 2.061476,-2.996647 4.226866,-0.0052"
         id="path126"
         sodipodi:nodetypes="cc" />
      <path
         style="fill:none;fill-opacity:1;stroke:#000000;stroke-width:0.264999;marker-end:url(#ArrowTriangleStylized)"
         d="m 93.545369,87.139233 v 3.797551"
         id="path127" />
    </g>
    <path
       style="fill:none;fill-opacity:1;stroke:#000000;stroke-width:0.264999;marker-end:url(#ArrowTriangleStylized)"
       d="m 171.46676,100.70047 h 4.25627 v 3.60146"
       id="path128" />
    <path
       style="fill:none;fill-opacity:1;stroke:#000000;stroke-width:0.264999;marker-end:url(#ArrowTriangleStylized)"
       d="m 177.66771,88.503124 h -15.21355 v 8.069791"
       id="path129" />
    <text
       xml:space="preserve"
       style="font-size:3.175px;font-family:'Libertinus Serif';-inkscape-font-specification:'Libertinus Serif, Normal';writing-mode:lr-tb;direction:ltr;fill:#000000;fill-opacity:1;stroke:none;stroke-width:0.264999"
       x="133.47171"
       y="142.95259"
       id="text129"><tspan
         sodipodi:role="line"
         id="tspan129"
         style="fill:#000000;fill-opacity:1;stroke:none;stroke-width:0.265"
         x="133.47171"
         y="142.95259">Pump</tspan></text>
    <text
       xml:space="preserve"
       style="font-size:3.175px;font-family:'Libertinus Serif';-inkscape-font-specification:'Libertinus Serif, Normal';writing-mode:lr-tb;direction:ltr;fill:#000000;fill-opacity:1;stroke:none;stroke-width:0.264999"
       x="25.818239"
       y="59.681286"
       id="text130"><tspan
         sodipodi:role="line"
         style="stroke-width:0.265"
         x="25.818239"
         y="59.681286"
         id="tspan131">Fresh solvent</tspan></text>
    <text
       xml:space="preserve"
       style="font-size:3.175px;font-family:'Libertinus Serif';-inkscape-font-specification:'Libertinus Serif, Normal';writing-mode:lr-tb;direction:ltr;fill:#000000;fill-opacity:1;stroke:none;stroke-width:0.264999"
       x="1.8708858"
       y="109.82105"
       id="text132"><tspan
         sodipodi:role="line"
         id="tspan132"
         style="stroke-width:0.265"
         x="1.8708858"
         y="109.82105">Extracted solids</tspan></text>
    <path
       style="fill:#000000;fill-opacity:1;stroke:#000000;stroke-width:0.264999;stroke-opacity:1;marker-start:url(#ArrowTriangleStylized)"
       d="m 165.10576,121.327 8.51253,13.37683"
       id="path132"
       sodipodi:nodetypes="cc" />
    <text
       xml:space="preserve"
       style="font-size:3.175px;font-family:'Libertinus Serif';-inkscape-font-specification:'Libertinus Serif, Normal';writing-mode:lr-tb;direction:ltr;fill:#000000;fill-opacity:1;stroke:none;stroke-width:0.264999;stroke-opacity:1"
       x="173.99246"
       y="136.76183"
       id="text133"><tspan
         sodipodi:role="line"
         id="tspan133"
         style="fill:#000000;fill-opacity:1;stroke:none;stroke-width:0.265"
         x="173.99246"
         y="136.76183">Rake</tspan></text>
    <text
       xml:space="preserve"
       style="font-size:3.175px;font-family:'Libertinus Serif';-inkscape-font-specification:'Libertinus Serif, Normal';writing-mode:lr-tb;direction:ltr;fill:#000000;fill-opacity:1;stroke:none;stroke-width:0.264999;stroke-opacity:1"
       x="83.067375"
       y="86.622055"
       id="text134"><tspan
         sodipodi:role="line"
         id="tspan134"
         style="stroke-width:0.265"
         x="83.067375"
         y="86.622055">Overflow</tspan></text>
    <text
       xml:space="preserve"
       style="font-size:3.175px;font-family:'Libertinus Serif';-inkscape-font-specification:'Libertinus Serif, Normal';writing-mode:lr-tb;direction:ltr;fill:#000000;fill-opacity:1;stroke:none;stroke-width:0.264999;stroke-opacity:1"
       x="106.07928"
       y="122.73017"
       id="text135"><tspan
         sodipodi:role="line"
         id="tspan135"
         style="stroke-width:0.265"
         x="106.07928"
         y="122.73017">Underflow</tspan></text>
    <text
       xml:space="preserve"
       style="font-size:3.175px;font-family:'Libertinus Serif';-inkscape-font-specification:'Libertinus Serif, Normal';writing-mode:lr-tb;direction:ltr;fill:#000000;fill-opacity:1;stroke:none;stroke-width:0.264999;stroke-opacity:1"
       x="174.625"
       y="108.47916"
       id="text136"><tspan
         sodipodi:role="line"
         id="tspan136"
         style="stroke-width:0.265"
         x="174.625"
         y="108.47916">Leachate</tspan></text>
    <text
       xml:space="preserve"
       style="font-size:3.175px;font-family:'Libertinus Serif';-inkscape-font-specification:'Libertinus Serif, Normal';writing-mode:lr-tb;direction:ltr;fill:#000000;fill-opacity:1;stroke:none;stroke-width:0.264999;stroke-opacity:1"
       x="178.81293"
       y="89.296875"
       id="text137"><tspan
         sodipodi:role="line"
         id="tspan137"
         style="stroke-width:0.265"
         x="178.81293"
         y="89.296875">Fresh solids</tspan></text>
  </g>
</svg>
