<?xml version="1.0" encoding="UTF-8" standalone="no"?>
<!-- Created with Inkscape (http://www.inkscape.org/) -->

<svg
   width="126.89548mm"
   height="67.40416mm"
   viewBox="0 0 126.89548 67.40416"
   version="1.1"
   id="svg1"
   inkscape:version="1.4.3 (0d15f75, 2025-12-25)"
   sodipodi:docname="hildebrandt-extractor.svg"
   xmlns:inkscape="http://www.inkscape.org/namespaces/inkscape"
   xmlns:sodipodi="http://sodipodi.sourceforge.net/DTD/sodipodi-0.dtd"
   xmlns="http://www.w3.org/2000/svg"
   xmlns:svg="http://www.w3.org/2000/svg">
  <sodipodi:namedview
     id="namedview1"
     pagecolor="#ffffff"
     bordercolor="#000000"
     borderopacity="0.25"
     inkscape:showpageshadow="2"
     inkscape:pageopacity="0.0"
     inkscape:pagecheckerboard="0"
     inkscape:deskcolor="#d1d1d1"
     inkscape:document-units="mm"
     inkscape:zoom="3.0182098"
     inkscape:cx="257.27171"
     inkscape:cy="187.36272"
     inkscape:window-width="1920"
     inkscape:window-height="1027"
     inkscape:window-x="-8"
     inkscape:window-y="22"
     inkscape:window-maximized="1"
     inkscape:current-layer="layer1" />
  <defs
     id="defs1">
    <marker
       style="overflow:visible"
       id="ArrowTriangleStylized"
       refX="0"
       refY="0"
       orient="auto-start-reverse"
       inkscape:stockid="Stylized triangle arrow"
       markerWidth="1"
       markerHeight="1"
       viewBox="0 0 1 1"
       inkscape:isstock="true"
       inkscape:collect="always"
       preserveAspectRatio="xMidYMid">
      <path
         transform="scale(0.5)"
         style="fill:context-stroke;fill-rule:evenodd;stroke:context-stroke;stroke-width:1pt"
         d="m 6,0 c -3,1 -7,3 -9,5 0,0 0,-4 2,-5 -2,-1 -2,-5 -2,-5 2,2 6,4 9,5 z"
         id="path4" />
    </marker>
    <inkscape:path-effect
       effect="bspline"
       id="path-effect40"
       is_visible="true"
       lpeversion="1.3"
       weight="33.333333"
       steps="2"
       helper_size="0"
       apply_no_weight="true"
       apply_with_weight="true"
       only_selected="false"
       uniform="false" />
    <inkscape:path-effect
       effect="bspline"
       id="path-effect38"
       is_visible="true"
       lpeversion="1.3"
       weight="33.333333"
       steps="2"
       helper_size="0"
       apply_no_weight="true"
       apply_with_weight="true"
       only_selected="false"
       uniform="false" />
    <inkscape:path-effect
       effect="bspline"
       id="path-effect36"
       is_visible="true"
       lpeversion="1.3"
       weight="33.333333"
       steps="2"
       helper_size="0"
       apply_no_weight="true"
       apply_with_weight="true"
       only_selected="false"
       uniform="false" />
  </defs>
  <g
     inkscape:label="Layer 1"
     inkscape:groupmode="layer"
     id="layer1"
     transform="translate(-6.7358323,-91.416937)">
    <path
       id="rect1"
       style="fill:#8e8e8e;fill-opacity:1;stroke:#000000;stroke-width:0.264999"
       d="m 74.632137,101.03001 5.330424,11.16573 v 27.39832 H 55.044185 v -11.4055 -7.81038 -19.21588 h -26.77821 v 1.05833 h 1.058333 24.662061 v 38.43177 h 27.035042 v -22.95674 c -0.02095,-0.66822 -0.01353,-1.33967 -0.0031,-2.01177 0.0205,-1.32136 0.05267,-2.64436 -0.09819,-3.94549 -1.278274,-2.67739 -3.528367,-7.35892 -5.132503,-10.70839 z m 23.019784,0 c -1.554918,3.24759 -3.715055,7.74369 -5.015198,10.46603 -0.0441,0.0923 -0.08713,0.18264 -0.129191,0.27078 -0.199803,2.37617 -0.03523,4.79703 -0.09147,7.19026 h 14.695228 1.05937 v -1.05833 H 93.475948 v -5.70301 l 5.330424,-11.16573 z M 28.265975,113.4923 v 1.05885 h 13.264823 v 5.82703 H 28.133683 v 1.05937 H 29.1915 42.589648 v -7.94525 h -13.26534 z m 64.152157,8.55451 V 152.0486 H 42.589648 V 127.13074 H 29.1915 28.133683 v 1.05782 h 13.397115 v 11.4055 13.51287 h 13.513387 38.431763 v -13.51287 -16.4884 h 14.694712 v -1.05885 h -1.05937 c -4.66305,0 -10.350356,0 -14.693158,0 z" />
    <path
       style="fill:none;stroke:#000000;stroke-width:0.264999;stroke-dasharray:0.264999, 0.529998;stroke-dashoffset:0"
       d="m 92.416063,118.95708 0.0021,3.08973"
       id="path10" />
    <path
       style="fill:none;stroke:#000000;stroke-width:0.264999;stroke-dasharray:0.264999, 0.529998;stroke-dashoffset:0"
       d="m 93.599816,118.95699 v 3.08982"
       id="path11" />
    <path
       style="fill:#8e8e8e;fill-opacity:1;stroke:#000000;stroke-width:0.264999;stroke-dasharray:none;stroke-dashoffset:0"
       d="m 50.341675,108.47661 c 1.214896,0.88847 2.429797,1.77695 2.407701,2.59311 -0.0221,0.81616 -1.281137,1.55999 -2.551243,1.93191 -1.270106,0.37192 -2.551202,0.37192 -3.821136,0.80067 -1.269933,0.42875 -2.52863,1.28622 -2.528618,2.10238 1.2e-5,0.81616 1.25871,1.59098 2.528644,1.97839 1.269934,0.38742 2.551031,0.38742 3.821135,0.80067 1.270104,0.41326 2.529146,1.23973 2.529132,2.0559 -1.3e-5,0.81616 -1.259053,1.62197 -2.529158,2.02488 -1.270105,0.40291 -2.551201,0.40291 -3.759975,0.80067 -1.208773,0.39775 -2.345156,1.19323 -2.345143,2.0094 1.2e-5,0.81617 1.136389,1.65296 2.345166,2.07137 1.208777,0.41841 2.489874,0.41841 3.75998,0.82133 1.270106,0.40293 2.529144,1.20874 2.529131,2.02491 -1.4e-5,0.81616 -1.259054,1.64263 -2.529159,2.05587 -1.270105,0.41324 -2.551201,0.41324 -3.821136,0.84716 -1.269935,0.43392 -2.52863,1.30172 -2.528615,2.11788 1.6e-5,0.81616 1.258707,1.58064 2.528641,1.96289 1.269935,0.38225 2.551032,0.38225 3.821138,0.73868 1.270106,0.35644 2.529145,1.06928 2.529131,1.88544 -1.4e-5,0.81617 -1.259052,1.73561 -2.518117,2.65507"
       id="path36"
       inkscape:path-effect="#path-effect36"
       inkscape:original-d="m 50.341675,108.47661 c 1.214898,0.88847 2.429796,1.77695 3.644693,2.66542 -1.259091,0.74385 -2.518129,1.48768 -3.777194,2.23152 -1.281147,0 -2.562243,0 -3.843364,0 -1.258747,0.8575 -2.517441,1.71497 -3.776162,2.57245 1.258745,0.77484 2.517441,1.54966 3.776162,2.32449 1.281147,0 2.562244,0 3.843364,0 1.259091,0.8265 2.51813,1.65298 3.777194,2.47947 -1.259091,0.80584 -2.518129,1.61165 -3.777194,2.41747 -1.281147,0 -2.562243,0 -3.843364,0 -1.136427,0.79551 -2.27281,1.59099 -3.409217,2.38649 1.136431,0.83684 2.272811,1.67363 3.409217,2.51045 1.281147,0 2.562244,0 3.843364,0 1.259091,0.80585 2.51813,1.61166 3.777194,2.41749 -1.259091,0.8265 -2.518129,1.65297 -3.777194,2.47945 -1.281147,0 -2.562243,0 -3.843364,0 -1.258747,0.86784 -2.517441,1.73564 -3.776162,2.60345 1.258745,0.76452 2.517441,1.52899 3.776162,2.29349 1.281147,0 2.562244,0 3.843364,0 1.259091,0.71287 2.51813,1.42571 3.777194,2.13856 -1.259091,0.91948 -2.518129,1.83892 -3.777194,2.75838" />
    <rect
       style="fill:#8e8e8e;fill-opacity:1;stroke:#000000;stroke-width:0.264999"
       id="rect8"
       width="3.8433647"
       height="63.232117"
       x="46.36581"
       y="95.456482" />
    <path
       style="fill:#8e8e8e;fill-opacity:1;stroke:#000000;stroke-width:0.264999;stroke-dasharray:none;stroke-dashoffset:0"
       d="m 50.341675,108.47661 c 1.214896,0.88847 2.429797,1.77695 2.407701,2.59311 -0.0221,0.81616 -1.281137,1.55999 -2.551243,1.93191 -1.270106,0.37192 -2.551202,0.37192 -3.821136,0.80067 -1.269933,0.42875 -2.52863,1.28622 -2.528618,2.10238 1.2e-5,0.81616 1.25871,1.59098 2.528644,1.97839 1.269934,0.38742 2.551031,0.38742 3.821135,0.80067 1.270104,0.41326 2.529146,1.23973 2.529132,2.0559 -1.3e-5,0.81616 -1.259053,1.62197 -2.529158,2.02488 -1.270105,0.40291 -2.551201,0.40291 -3.759975,0.80067 -1.208773,0.39775 -2.345156,1.19323 -2.345143,2.0094 1.2e-5,0.81617 1.136389,1.65296 2.345166,2.07137 1.208777,0.41841 2.489874,0.41841 3.75998,0.82133 1.270106,0.40293 2.529144,1.20874 2.529131,2.02491 -1.4e-5,0.81616 -1.259054,1.64263 -2.529159,2.05587 -1.270105,0.41324 -2.551201,0.41324 -3.821136,0.84716 -1.269935,0.43392 -2.52863,1.30172 -2.528615,2.11788 1.6e-5,0.81616 1.258707,1.58064 2.528641,1.96289 1.269935,0.38225 2.551032,0.38225 3.821138,0.73868 1.270106,0.35644 2.529145,1.06928 2.529131,1.88544 -1.4e-5,0.81617 -1.259052,1.73561 -2.518117,2.65507"
       id="path37"
       inkscape:path-effect="#path-effect38"
       inkscape:original-d="m 50.341675,108.47661 c 1.214898,0.88847 2.429796,1.77695 3.644693,2.66542 -1.259091,0.74385 -2.518129,1.48768 -3.777194,2.23152 -1.281147,0 -2.562243,0 -3.843364,0 -1.258747,0.8575 -2.517441,1.71497 -3.776162,2.57245 1.258745,0.77484 2.517441,1.54966 3.776162,2.32449 1.281147,0 2.562244,0 3.843364,0 1.259091,0.8265 2.51813,1.65298 3.777194,2.47947 -1.259091,0.80584 -2.518129,1.61165 -3.777194,2.41747 -1.281147,0 -2.562243,0 -3.843364,0 -1.136427,0.79551 -2.27281,1.59099 -3.409217,2.38649 1.136431,0.83684 2.272811,1.67363 3.409217,2.51045 1.281147,0 2.562244,0 3.843364,0 1.259091,0.80585 2.51813,1.61166 3.777194,2.41749 -1.259091,0.8265 -2.518129,1.65297 -3.777194,2.47945 -1.281147,0 -2.562243,0 -3.843364,0 -1.258747,0.86784 -2.517441,1.73564 -3.776162,2.60345 1.258745,0.76452 2.517441,1.52899 3.776162,2.29349 1.281147,0 2.562244,0 3.843364,0 1.259091,0.71287 2.51813,1.42571 3.777194,2.13856 -1.259091,0.91948 -2.518129,1.83892 -3.777194,2.75838"
       transform="rotate(90,50.830335,148.91632)"
       inkscape:transform-center-x="0.053384152"
       inkscape:transform-center-y="0.010472486" />
    <rect
       style="fill:#8e8e8e;fill-opacity:1;stroke:#000000;stroke-width:0.264999"
       id="rect9"
       width="3.8433685"
       height="46.371777"
       x="144.52414"
       y="-99.367355"
       transform="rotate(90)" />
    <path
       style="fill:#8e8e8e;fill-opacity:1;stroke:#000000;stroke-width:0.264999;stroke-dasharray:none;stroke-dashoffset:0"
       d="m 50.341675,108.47661 c 1.214896,0.88847 2.429797,1.77695 2.407701,2.59311 -0.0221,0.81616 -1.281137,1.55999 -2.551243,1.93191 -1.270106,0.37192 -2.551202,0.37192 -3.821136,0.80067 -1.269933,0.42875 -2.52863,1.28622 -2.528618,2.10238 1.2e-5,0.81616 1.25871,1.59098 2.528644,1.97839 1.269934,0.38742 2.551031,0.38742 3.821135,0.80067 1.270104,0.41326 2.529146,1.23973 2.529132,2.0559 -1.3e-5,0.81616 -1.259053,1.62197 -2.529158,2.02488 -1.270105,0.40291 -2.551201,0.40291 -3.759975,0.80067 -1.208773,0.39775 -2.345156,1.19323 -2.345143,2.0094 1.2e-5,0.81617 1.136389,1.65296 2.345166,2.07137 1.208777,0.41841 2.489874,0.41841 3.75998,0.82133 1.270106,0.40293 2.529144,1.20874 2.529131,2.02491 -1.4e-5,0.81616 -1.259054,1.64263 -2.529159,2.05587 -1.270105,0.41324 -2.551201,0.41324 -3.821136,0.84716 -1.269935,0.43392 -2.52863,1.30172 -2.528615,2.11788 1.6e-5,0.81616 1.258707,1.58064 2.528641,1.96289 1.269935,0.38225 2.551032,0.38225 3.821138,0.73868 1.270106,0.35644 2.529145,1.06928 2.529131,1.88544 -1.4e-5,0.81617 -1.259052,1.73561 -2.518117,2.65507"
       id="path38"
       inkscape:path-effect="#path-effect40"
       inkscape:original-d="m 50.341675,108.47661 c 1.214898,0.88847 2.429796,1.77695 3.644693,2.66542 -1.259091,0.74385 -2.518129,1.48768 -3.777194,2.23152 -1.281147,0 -2.562243,0 -3.843364,0 -1.258747,0.8575 -2.517441,1.71497 -3.776162,2.57245 1.258745,0.77484 2.517441,1.54966 3.776162,2.32449 1.281147,0 2.562244,0 3.843364,0 1.259091,0.8265 2.51813,1.65298 3.777194,2.47947 -1.259091,0.80584 -2.518129,1.61165 -3.777194,2.41747 -1.281147,0 -2.562243,0 -3.843364,0 -1.136427,0.79551 -2.27281,1.59099 -3.409217,2.38649 1.136431,0.83684 2.272811,1.67363 3.409217,2.51045 1.281147,0 2.562244,0 3.843364,0 1.259091,0.80585 2.51813,1.61166 3.777194,2.41749 -1.259091,0.8265 -2.518129,1.65297 -3.777194,2.47945 -1.281147,0 -2.562243,0 -3.843364,0 -1.258747,0.86784 -2.517441,1.73564 -3.776162,2.60345 1.258745,0.76452 2.517441,1.52899 3.776162,2.29349 1.281147,0 2.562244,0 3.843364,0 1.259091,0.71287 2.51813,1.42571 3.777194,2.13856 -1.259091,0.91948 -2.518129,1.83892 -3.777194,2.75838"
       transform="translate(38.686688,-3.7041668)" />
    <rect
       style="fill:#8e8e8e;fill-opacity:1;stroke:#000000;stroke-width:0.264999"
       id="rect10"
       width="3.8433685"
       height="39.814968"
       x="85.045471"
       y="100.89751" />
    <path
       style="fill:#8e8e8e;fill-opacity:1;stroke:#000000;stroke-width:0.264999;stroke-dasharray:none;stroke-dashoffset:0;marker-start:url(#ArrowTriangleStylized)"
       d="M 26.23342,108.36966 H 43.5029"
       id="path40" />
    <path
       style="fill:#8e8e8e;fill-opacity:1;stroke:#000000;stroke-width:0.264999;stroke-dasharray:none;stroke-dashoffset:0;marker-start:url(#ArrowTriangleStylized)"
       d="M 42.42857,124.58719 H 25.15909"
       id="path41" />
    <path
       style="fill:#8e8e8e;fill-opacity:1;stroke:#000000;stroke-width:0.264999;stroke-dasharray:none;stroke-dashoffset:0;marker-start:url(#ArrowTriangleStylized)"
       d="M 111.97757,120.6344 H 94.708093"
       id="path42" />
    <path
       style="fill:#8e8e8e;fill-opacity:1;stroke:#000000;stroke-width:0.264999;stroke-dasharray:none;stroke-dashoffset:0;marker-end:url(#ArrowTriangleStylized)"
       d="m 91.701377,93.82207 v 9.76909"
       id="path43"
       sodipodi:nodetypes="cc" />
    <text
       xml:space="preserve"
       style="font-size:3.175px;font-family:'Libertinus Serif';-inkscape-font-specification:'Libertinus Serif, Normal';writing-mode:lr-tb;direction:ltr;fill:#000000;fill-opacity:1;stroke:none;stroke-width:0.264999;stroke-dasharray:none;stroke-dashoffset:0"
       x="86.139511"
       y="93.633087"
       id="text43"><tspan
         sodipodi:role="line"
         id="tspan43"
         style="fill:#000000;fill-opacity:1;stroke:none;stroke-width:0.265"
         x="86.139511"
         y="93.633087">Dry feed</tspan></text>
    <text
       xml:space="preserve"
       style="font-size:3.175px;font-family:'Libertinus Serif';-inkscape-font-specification:'Libertinus Serif, Normal';writing-mode:lr-tb;direction:ltr;fill:#000000;fill-opacity:1;stroke:none;stroke-width:0.264999;stroke-dasharray:none;stroke-dashoffset:0"
       x="6.6945558"
       y="109.4571"
       id="text44"><tspan
         sodipodi:role="line"
         id="tspan44"
         style="stroke-width:0.265"
         x="6.6945558"
         y="109.4571">Leached solid</tspan></text>
    <text
       xml:space="preserve"
       style="font-size:3.175px;font-family:'Libertinus Serif';-inkscape-font-specification:'Libertinus Serif, Normal';writing-mode:lr-tb;direction:ltr;fill:#000000;fill-opacity:1;stroke:none;stroke-width:0.264999;stroke-dasharray:none;stroke-dashoffset:0"
       x="14.474153"
       y="125.32963"
       id="text45"><tspan
         sodipodi:role="line"
         id="tspan45"
         style="stroke-width:0.265"
         x="14.474153"
         y="125.32963">Solvent</tspan></text>
    <text
       xml:space="preserve"
       style="font-size:3.175px;font-family:'Libertinus Serif';-inkscape-font-specification:'Libertinus Serif, Normal';writing-mode:lr-tb;direction:ltr;fill:#000000;fill-opacity:1;stroke:none;stroke-width:0.264999;stroke-dasharray:none;stroke-dashoffset:0"
       x="114.01299"
       y="121.51015"
       id="text46"><tspan
         sodipodi:role="line"
         id="tspan46"
         style="stroke-width:0.265"
         x="114.01299"
         y="121.51015">Oil and solvent</tspan></text>
    <path
       style="fill:none;stroke:#000000;stroke-width:0.264999;stroke-opacity:1;marker-start:url(#ArrowTriangleStylized)"
       id="path1"
       sodipodi:type="arc"
       sodipodi:cx="48.299034"
       sodipodi:cy="93.822067"
       sodipodi:rx="3.7535563"
       sodipodi:ry="0.92875719"
       sodipodi:start="5.0386268"
       sodipodi:end="4.5824217"
       sodipodi:open="true"
       sodipodi:arc-type="arc"
       d="m 49.50198,92.942298 a 3.7535563,0.92875719 0 0 1 2.466429,1.075364 3.7535563,0.92875719 0 0 1 -4.03714,0.728694 3.7535563,0.92875719 0 0 1 -3.385316,-0.909507 3.7535563,0.92875719 0 0 1 3.266614,-0.935706" />
    <path
       style="fill:none;stroke:#000000;stroke-width:0.264999;stroke-opacity:1;marker-start:url(#ArrowTriangleStylized)"
       id="path2"
       sodipodi:type="arc"
       sodipodi:cx="146.44562"
       sodipodi:cy="-101.79861"
       sodipodi:rx="3.7535563"
       sodipodi:ry="0.92875719"
       sodipodi:start="5.0386268"
       sodipodi:end="4.5824217"
       sodipodi:open="true"
       sodipodi:arc-type="arc"
       d="m 147.64856,-102.67838 a 3.7535563,0.92875719 0 0 1 2.46643,1.07537 3.7535563,0.92875719 0 0 1 -4.03714,0.72869 3.7535563,0.92875719 0 0 1 -3.38531,-0.90951 3.7535563,0.92875719 0 0 1 3.26661,-0.9357"
       transform="rotate(90)" />
    <path
       style="fill:none;stroke:#000000;stroke-width:0.264999;stroke-opacity:1;marker-start:url(#ArrowTriangleStylized)"
       id="path3"
       sodipodi:type="arc"
       sodipodi:cx="86.939133"
       sodipodi:cy="98.510757"
       sodipodi:rx="3.7535563"
       sodipodi:ry="0.92875719"
       sodipodi:start="5.0386268"
       sodipodi:end="4.5824217"
       sodipodi:open="true"
       sodipodi:arc-type="arc"
       d="m 88.142078,97.630988 a 3.7535563,0.92875719 0 0 1 2.466429,1.075364 3.7535563,0.92875719 0 0 1 -4.03714,0.728694 3.7535563,0.92875719 0 0 1 -3.385315,-0.909507 3.7535563,0.92875719 0 0 1 3.266613,-0.935706" />
  </g>
</svg>
