<?xml version="1.0" encoding="UTF-8" standalone="no"?>
<!-- Created with Inkscape (http://www.inkscape.org/) -->

<svg
   width="134.23866mm"
   height="35.982922mm"
   viewBox="0 0 134.23866 35.982921"
   version="1.1"
   id="svg1"
   inkscape:version="1.4.3 (0d15f75, 2025-12-25)"
   sodipodi:docname="multistage-leaching-copra-prob.svg"
   xmlns:inkscape="http://www.inkscape.org/namespaces/inkscape"
   xmlns:sodipodi="http://sodipodi.sourceforge.net/DTD/sodipodi-0.dtd"
   xmlns="http://www.w3.org/2000/svg"
   xmlns:svg="http://www.w3.org/2000/svg">
  <sodipodi:namedview
     id="namedview1"
     pagecolor="#ffffff"
     bordercolor="#000000"
     borderopacity="0.25"
     inkscape:showpageshadow="2"
     inkscape:pageopacity="0.0"
     inkscape:pagecheckerboard="0"
     inkscape:deskcolor="#d1d1d1"
     inkscape:document-units="mm"
     inkscape:zoom="1.5091049"
     inkscape:cx="164.0045"
     inkscape:cy="79.848657"
     inkscape:window-width="1920"
     inkscape:window-height="1027"
     inkscape:window-x="-8"
     inkscape:window-y="22"
     inkscape:window-maximized="1"
     inkscape:current-layer="layer1" />
  <defs
     id="defs1">
    <marker
       style="overflow:visible"
       id="ArrowTriangleStylized"
       refX="0"
       refY="0"
       orient="auto-start-reverse"
       inkscape:stockid="Stylized triangle arrow"
       markerWidth="1"
       markerHeight="1"
       viewBox="0 0 1 1"
       inkscape:isstock="true"
       inkscape:collect="always"
       preserveAspectRatio="xMidYMid">
      <path
         transform="scale(0.5)"
         style="fill:context-stroke;fill-rule:evenodd;stroke:context-stroke;stroke-width:1pt"
         d="m 6,0 c -3,1 -7,3 -9,5 0,0 0,-4 2,-5 -2,-1 -2,-5 -2,-5 2,2 6,4 9,5 z"
         id="path4" />
    </marker>
  </defs>
  <g
     inkscape:label="Layer 1"
     inkscape:groupmode="layer"
     id="layer1"
     transform="translate(-37.207045,-85.517078)">
    <rect
       style="fill:none;stroke:#000000;stroke-width:0.154485;stroke-opacity:1"
       id="rect1"
       width="14.959131"
       height="17.792301"
       x="58.41486"
       y="98.139557" />
    <rect
       style="fill:none;stroke:#000000;stroke-width:0.154485;stroke-opacity:1"
       id="rect2"
       width="14.959137"
       height="17.792307"
       x="93.505821"
       y="98.139557" />
    <rect
       style="fill:none;stroke:#000000;stroke-width:0.154485;stroke-opacity:1"
       id="rect3"
       width="14.959131"
       height="17.792301"
       x="136.14542"
       y="98.139557" />
    <path
       style="fill:none;stroke:#000000;stroke-width:0.239;stroke-opacity:1;marker-end:url(#ArrowTriangleStylized)"
       d="M 93.428575,98.852147 H 74.42016"
       id="path5"
       sodipodi:nodetypes="cc" />
    <path
       style="fill:none;stroke:#000000;stroke-width:0.239;stroke-opacity:1;marker-end:url(#ArrowTriangleStylized)"
       d="M 136.06818,98.852147 H 109.51113"
       id="path6"
       sodipodi:nodetypes="cc" />
    <path
       style="fill:none;stroke:#000000;stroke-width:0.239;stroke-opacity:1;marker-end:url(#ArrowTriangleStylized)"
       d="M 58.337617,98.852147 H 39.329202"
       id="path7"
       sodipodi:nodetypes="cc" />
    <path
       style="fill:none;stroke:#000000;stroke-width:0.239;stroke-opacity:1;marker-end:url(#ArrowTriangleStylized)"
       d="M 171.44571,98.852147 H 152.43729"
       id="path8"
       sodipodi:nodetypes="cc" />
    <path
       style="fill:none;stroke:#000000;stroke-width:0.239;stroke-opacity:1;marker-end:url(#ArrowTriangleStylized)"
       d="m 73.451234,115.22207 h 19.00841"
       id="path9"
       sodipodi:nodetypes="cc" />
    <path
       style="fill:none;stroke:#000000;stroke-width:0.239;stroke-opacity:1;marker-end:url(#ArrowTriangleStylized)"
       d="m 108.5422,115.21927 h 26.55705"
       id="path10"
       sodipodi:nodetypes="cc" />
    <path
       style="fill:none;stroke:#000000;stroke-width:0.239;stroke-opacity:1;marker-end:url(#ArrowTriangleStylized)"
       d="m 38.360279,115.21927 h 19.00841"
       id="path11"
       sodipodi:nodetypes="cc" />
    <path
       style="fill:none;stroke:#000000;stroke-width:0.239;stroke-opacity:1;marker-end:url(#ArrowTriangleStylized)"
       d="M 151.07388,115.21927 H 170.0823"
       id="path12"
       sodipodi:nodetypes="cc" />
    <text
       xml:space="preserve"
       style="font-size:3.52777px;font-family:'Libertinus Serif';-inkscape-font-specification:'Libertinus Serif, Normal';writing-mode:lr-tb;direction:ltr;fill:#000000;fill-opacity:1;stroke:none;stroke-width:0.239;stroke-opacity:1"
       x="65.065399"
       y="108.10462"
       id="text12"><tspan
         sodipodi:role="line"
         id="tspan12"
         style="fill:#000000;fill-opacity:1;stroke:none;stroke-width:0.239"
         x="65.065399"
         y="108.10462">1</tspan></text>
    <text
       xml:space="preserve"
       style="font-size:3.52777px;font-family:'Libertinus Serif';-inkscape-font-specification:'Libertinus Serif, Normal';writing-mode:lr-tb;direction:ltr;fill:#000000;fill-opacity:1;stroke:none;stroke-width:0.239;stroke-opacity:1"
       x="100.16695"
       y="108.10815"
       id="text13"><tspan
         sodipodi:role="line"
         id="tspan13"
         style="fill:#000000;fill-opacity:1;stroke:none;stroke-width:0.239"
         x="100.16695"
         y="108.10815">2</tspan></text>
    <g
       inkscape:label=""
       transform="translate(143.62499,107.03571)"
       id="g17">
      <g
         transform="matrix(0.352778,0,0,0.352778,-1.00718,-1.64924)"
         id="g16">
        <g
           class="typst-text"
           transform="matrix(1,0,0,-1,0,6.83)"
           id="g15">
          <g
             id="g14">
            <path
               d="M 0,0 M 5.37,1.37 C 5.14,0.58 4.8100001,0.18 4.4000002,0.18 c -0.1300001,0 -0.2000003,0.10000001 -0.2000003,0.29000002 0,0.14000002 0.06,0.36999997 0.1800003,0.67999998 C 4.7799998,2.24 4.9800001,2.9600001 4.9800001,3.3299998 4.9800001,4.0299996 4.5099998,4.42 3.81,4.42 3.2200001,4.42 2.7100001,4.1599997 2.3,3.6299998 2.2200001,4.0699996 1.8700001,4.42 1.3600001,4.42 0.80000001,4.42 0.58000004,3.8999998 0.44000007,3.4499997 c -0.1,-0.3199999 -0.15,-0.51 -0.15,-0.5799999 0,-0.09 0.05,-0.1399999 0.16,-0.1399999 0.05,0 0.08,0.01 0.11000001,0.03 0.05,0.09 0.08,0.1599999 0.09,0.23 C 0.83000006,3.7499999 1.06,4.13 1.33,4.13 1.5100001,4.13 1.6,3.9899999 1.6,3.7099997 1.6,3.5799998 1.55,3.3099999 1.44,2.8999998 L 0.87000009,0.62999978 c -0.03,-0.13 -0.09,-0.39 -0.09,-0.44 0,-0.2 0.11000001,-0.3 0.33000001,-0.3 0.1899999,0 0.3299999,0.1 0.4,0.3 0.02,0.05 0.08,0.29999998 0.1899999,0.72999996 l 0.2100001,0.88999996 0.3,1.1400001 c 0.1099999,0.2299998 0.28,0.4599998 0.49,0.6999998 C 2.9900001,3.9699998 3.35,4.1299999 3.78,4.1299999 c 0.3300002,0 0.49,-0.2200003 0.49,-0.6500001 C 4.27,3.0999997 4.06,2.3399997 3.6299999,1.1999996 3.56,1.0199997 3.53,0.86999968 3.53,0.73999968 c 0,-0.49 0.3699999,-0.85 0.8500002,-0.85 0.4399995,0 0.7899999,0.25 1.04,0.75 0.1899995,0.40000002 0.2899999,0.66999992 0.2899999,0.79999992 0,0.09 -0.05,0.14 -0.1600003,0.14 -0.03,0 -0.1799998,-0.09 -0.1799998,-0.2099996 z"
               id="path14" />
          </g>
        </g>
      </g>
    </g>
    <g
       inkscape:label=""
       transform="translate(47.97536,112.77652)"
       id="g23">
      <g
         transform="matrix(0.352778,0,0,0.352778,-1.83833,-1.66496)"
         id="g22">
        <g
           class="typst-text"
           transform="matrix(1,0,0,-1,0,6.83)"
           id="g19">
          <g
             id="g18">
            <path
               d="m 0,0 m 5.2,6.67 c 0,0.1099997 -0.07,0.1599998 -0.1999998,0.1599998 l -1.46,-0.03 -1.31,0.03 c -0.1500001,0.01 -0.23,-0.07 -0.23,-0.2400002 0,-0.07 0.03,-0.1199999 0.09,-0.1299996 0.09,-0.01 0.1700001,-0.02 0.22,-0.02 0.31,-0.01 0.48,-0.03 0.53,-0.040001 0.05,-0.01 0.08,-0.04 0.08,-0.09 0,-0.02 -0.01,-0.08 -0.04,-0.1800003 l -1.32,-5.30999864 c -0.06,-0.22000003 -0.16,-0.35 -0.31,-0.4 -0.06,-0.02 -0.24,-0.03 -0.54999997,-0.03 -0.21000001,0 -0.31,-0.08 -0.31,-0.24 0,-0.09999999 0.1,-0.14999998699999 0.31,-0.14999998699999 H 5.2700002 c 0.25,0 0.27,0 0.3399997,0.18999999699999 L 6.3900001,2.33 c 0.03,0.07 0.04,0.1200001 0.04,0.1500001 0,0.1 -0.05,0.1499998 -0.1599999,0.1499998 -0.1,0 -0.1500001,-0.09 -0.2000003,-0.23 C 5.8799999,1.91 5.7,1.54 5.5499999,1.31 5.18,0.75000007 4.5499999,0.39000005 3.6300001,0.39000005 H 2.7000003 c -0.1100001,0 -0.18,0 -0.21,0.01 -0.07,0 -0.1000001,0.02 -0.1000001,0.05 0,0.02 0.02,0.09 0.05,0.21999997 l 1.33,5.33999968 c 0.06,0.23 0.1899999,0.3600002 0.3800001,0.4100003 0.06,0.01 0.27,0.02 0.6299997,0.02 0.2800002,0 0.4200001,0 0.42,0.23 z"
               id="path17" />
          </g>
        </g>
        <g
           class="typst-text"
           transform="matrix(1,0,0,-1,6.81,9.3)"
           id="g21">
          <g
             id="g20">
            <path
               d="m 0,0 m 3.6120002,2.233 c 0,0.7910001 -0.1400001,1.3930001 -0.4130001,1.806 -0.224,0.3499999 -0.6719999,0.6090002 -1.2110001,0.6090002 -0.224,0 -0.427,-0.035 -0.602,-0.112 C 0.61599996,4.2140002 0.3639999,3.318 0.3639999,2.233 c 0,-0.238 0.014,-0.462 0.035,-0.679 0.11899999,-0.91699999 0.546,-1.69399999 1.589,-1.69399999 0.2240001,0 0.4269999,0.035 0.6020001,0.112 C 3.36,0.28700001 3.6120001,1.162 3.6120002,2.233 Z M 2.8140001,3.7870001 c 0.077,-0.2590001 0.119,-0.7420001 0.119,-1.463 0,-0.6860001 -0.028,-1.169 -0.091,-1.4560001 -0.084,-0.41300002 -0.378,-0.75600004 -0.854,-0.75600004 -0.175,0 -0.35,0.056 -0.5110001,0.175 C 1.26,0.44799997 1.1270001,0.76299996 1.071,1.246 1.05,1.407 1.043,1.764 1.043,2.3240001 c 0,0.6789999 0.035,1.148 0.105,1.4000001 0.119,0.4479997 0.399,0.6719997 0.84,0.6719997 0.4199999,0 0.728,-0.2729998 0.8260001,-0.6089998 z"
               id="path19" />
          </g>
        </g>
      </g>
    </g>
    <g
       inkscape:label=""
       transform="translate(84.674796,112.77653)"
       id="g29">
      <g
         transform="matrix(0.352778,0,0,0.352778,-1.78523,-1.64027)"
         id="g28">
        <g
           class="typst-text"
           transform="matrix(1,0,0,-1,0,6.83)"
           id="g25">
          <g
             id="g24">
            <path
               d="m 0,0 m 5.2,6.67 c 0,0.1099997 -0.07,0.1599998 -0.1999998,0.1599998 l -1.46,-0.03 -1.31,0.03 c -0.1500001,0.01 -0.23,-0.07 -0.23,-0.2400002 0,-0.07 0.03,-0.1199999 0.09,-0.1299996 0.09,-0.01 0.1700001,-0.02 0.22,-0.02 0.31,-0.01 0.48,-0.03 0.53,-0.040001 0.05,-0.01 0.08,-0.04 0.08,-0.09 0,-0.02 -0.01,-0.08 -0.04,-0.1800003 l -1.32,-5.30999864 c -0.06,-0.22000003 -0.16,-0.35 -0.31,-0.4 -0.06,-0.02 -0.24,-0.03 -0.54999997,-0.03 -0.21000001,0 -0.31,-0.08 -0.31,-0.24 0,-0.09999999 0.1,-0.149999986999991 0.31,-0.149999986999991 H 5.2700002 c 0.25,0 0.27,0 0.3399997,0.189999996999991 L 6.3900001,2.33 c 0.03,0.07 0.04,0.1200001 0.04,0.1500001 0,0.1 -0.05,0.1499998 -0.1599999,0.1499998 -0.1,0 -0.1500001,-0.09 -0.2000003,-0.23 C 5.8799999,1.91 5.7,1.54 5.5499999,1.31 5.18,0.75000007 4.5499999,0.39000005 3.6300001,0.39000005 H 2.7000003 c -0.1100001,0 -0.18,0 -0.21,0.01 -0.07,0 -0.1000001,0.02 -0.1000001,0.05 0,0.02 0.02,0.09 0.05,0.21999997 l 1.33,5.33999968 c 0.06,0.23 0.1899999,0.3600002 0.3800001,0.4100003 0.06,0.01 0.27,0.02 0.6299997,0.02 0.2800002,0 0.4200001,0 0.42,0.23 z"
               id="path23" />
          </g>
        </g>
        <g
           class="typst-text"
           transform="matrix(1,0,0,-1,6.81,9.3)"
           id="g27">
          <g
             id="g26">
            <path
               d="M 0,0 M 2.121,4.6480002 C 1.82,4.354 1.372,4.2070002 0.763,4.2070002 V 3.8990001 c 0.413,0 0.742,0.063 0.9940001,0.1820002 V 0.59499998 c 0,-0.091 -0.007,-0.14700001 -0.028,-0.17500001 -0.035,-0.077 -0.245,-0.11900002 -0.6300001,-0.11900002 H 0.81200006 V -5e-8 l 1.24600004,0.028 1.253,-0.028 v 0.301 h -0.287 c -0.385,0 -0.595,0.042 -0.6370001,0.11900002 -0.014,0.028 -0.021,0.084 -0.021,0.17500001 V 4.4240002 c 0,0.1889996 -0.028,0.224 -0.245,0.224 z"
               id="path25" />
          </g>
        </g>
      </g>
    </g>
    <g
       inkscape:label=""
       transform="translate(161.06256,112.77653)"
       id="g40">
      <g
         transform="matrix(0.352778,0,0,0.352778,-2.01366,-1.65262)"
         id="g39">
        <g
           class="typst-text"
           transform="matrix(1,0,0,-1,0,6.83)"
           id="g36">
          <g
             id="g35">
            <path
               d="m 0,0 m 5.2,6.67 c 0,0.1099997 -0.07,0.1599998 -0.1999998,0.1599998 l -1.46,-0.03 -1.31,0.03 c -0.1500001,0.01 -0.23,-0.07 -0.23,-0.2400002 0,-0.07 0.03,-0.1199999 0.09,-0.1299996 0.09,-0.01 0.1700001,-0.02 0.22,-0.02 0.31,-0.01 0.48,-0.03 0.53,-0.040001 0.05,-0.01 0.08,-0.04 0.08,-0.09 0,-0.02 -0.01,-0.08 -0.04,-0.1800003 l -1.32,-5.30999864 c -0.06,-0.22000003 -0.16,-0.35 -0.31,-0.4 -0.06,-0.02 -0.24,-0.03 -0.54999997,-0.03 -0.21000001,0 -0.31,-0.08 -0.31,-0.24 0,-0.09999999 0.1,-0.149999986999995 0.31,-0.149999986999995 H 5.2700002 c 0.25,0 0.27,0 0.3399997,0.189999996999995 L 6.3900001,2.33 c 0.03,0.07 0.04,0.1200001 0.04,0.1500001 0,0.1 -0.05,0.1499998 -0.1599999,0.1499998 -0.1,0 -0.1500001,-0.09 -0.2000003,-0.23 C 5.8799999,1.91 5.7,1.54 5.5499999,1.31 5.18,0.75000007 4.5499999,0.39000005 3.6300001,0.39000005 H 2.7000003 c -0.1100001,0 -0.18,0 -0.21,0.01 -0.07,0 -0.1000001,0.02 -0.1000001,0.05 0,0.02 0.02,0.09 0.05,0.21999997 l 1.33,5.33999968 c 0.06,0.23 0.1899999,0.3600002 0.3800001,0.4100003 0.06,0.01 0.27,0.02 0.6299997,0.02 0.2800002,0 0.4200001,0 0.42,0.23 z"
               id="path35" />
          </g>
        </g>
        <g
           class="typst-text"
           transform="matrix(1,0,0,-1,6.81,9.3)"
           id="g38">
          <g
             id="g37">
            <path
               d="m 0,0 m 1.148,3.0870001 c -0.23099995,0 -0.41999996,-0.1259999 -0.567,-0.385 C 0.48299998,2.5270002 0.40599999,2.345 0.357,2.1419999 0.336,2.0649999 0.329,2.0229999 0.329,2.009 0.329,1.932 0.378,1.89 0.47600001,1.89 0.60900003,1.89 0.616,1.967 0.65100002,2.114 c 0.11899999,0.4830001 0.28,0.7279999 0.48299998,0.7279999 0.1330001,0 0.196,-0.105 0.196,-0.3149998 C 1.33,2.45 1.295,2.268 1.218,1.9669999 l -0.37100003,-1.498 c -0.049,-0.18900001 -0.07,-0.287 -0.07,-0.294 0,-0.16100001 0.091,-0.245 0.26600003,-0.245 0.133,0 0.231,0.056 0.294,0.16800001 0.021,0.042 0.063,0.189 0.126,0.43400002 L 1.61,1.1479999 C 1.694,1.4769999 1.743,1.659 1.7570001,1.701 c 0.056,0.1819999 0.14,0.357 0.2589999,0.518 0.2940002,0.4129999 0.6300001,0.6229999 1.0150001,0.6229999 0.2519999,0 0.378,-0.1539998 0.378,-0.4549999 C 3.4090001,2.114 3.276,1.631 3.003,0.93099991 2.9330001,0.74899987 2.898,0.62299988 2.898,0.54599986 c 0,-0.378 0.3080001,-0.616 0.6860001,-0.616 0.329,0 0.5949998,0.16800001 0.7839999,0.504 0.1610002,0.287 0.2379999,0.476 0.2379999,0.57400004 0,0.077 -0.049,0.119 -0.1399999,0.119 -0.049,-0.007 -0.098,-0.042 -0.1469998,-0.1120001 -0.007,-0.007 -0.007,-0.0209999 -0.007,-0.0279999 C 4.151,0.44799986 3.913,0.17499985 3.6049999,0.17499985 c -0.098,0 -0.1469998,0.07 -0.1469998,0.21700001 0,0.098 0.056,0.28000003 0.161,0.546 C 3.864,1.5609998 3.983,2.009 3.983,2.275 3.983,2.597 3.871,2.821 3.654,2.9399999 3.479,3.038 3.2759999,3.087 3.059,3.087 2.604,3.087 2.2190001,2.8909999 1.911,2.4989999 1.848,2.8419999 1.547,3.087 1.148,3.0870001 Z"
               id="path36" />
          </g>
        </g>
      </g>
    </g>
    <g
       inkscape:label=""
       transform="translate(47.975353,96.319417)"
       id="g46">
      <g
         transform="matrix(0.352778,0,0,0.352778,-1.43598,-1.64042)"
         id="g45">
        <g
           class="typst-text"
           transform="matrix(1,0,0,-1,0,6.83)"
           id="g42">
          <g
             id="g41">
            <path
               d="m 0,0 m 6.71,6.7999997 c -0.1900001,0 -0.79,0.03 -0.98,0.03 -0.1500001,0 -0.23,-0.08 -0.23,-0.23 0,-0.1 0.07,-0.1500001 0.1999998,-0.1599999 0.2800002,-0.01 0.4200001,-0.1100001 0.4200001,-0.2800002 0,-0.09 -0.05,-0.21 -0.1399999,-0.3600001 L 3,1.0700002 l -0.6600001,5.12 c 0,0.1699996 0.21,0.25 0.6400001,0.25 0.1999998,0 0.29,0.07 0.29,0.2399998 0,0.1 -0.06,0.1500001 -0.1800001,0.1500001 -0.22,0 -1,-0.03 -1.2199999,-0.03 -0.2000001,0 -0.88000006,0.03 -1.08000001,0.03 -0.14999998,0 -0.22999996,-0.08 -0.22999996,-0.23 0,-0.1100002 0.1,-0.1599999 0.28999996,-0.1599999 0.17000001,0 0.29000001,-0.02 0.37000011,-0.04 C 1.38,6.3500001 1.37,6.3300001 1.4,6.14 L 2.1800001,0.04000002 c 0.03,-0.16999999 0.1099999,-0.26 0.2399998,-0.26 0.1300001,0 0.23,0.07 0.3100001,0.2 L 6.29,5.64 c 0.2300001,0.3600001 0.4499998,0.5900002 0.6700001,0.6799998 0.1499997,0.07 0.3399997,0.1100001 0.56,0.1200004 0.1099996,0.01 0.1599998,0.08 0.1700001,0.23 C 7.6999999,6.7799999 7.64,6.83 7.5200001,6.83 7.37,6.83 6.8599998,6.7999998 6.71,6.7999997 Z"
               id="path40" />
          </g>
        </g>
        <g
           class="typst-text"
           transform="matrix(1,0,0,-1,4.83,9.3)"
           id="g44">
          <g
             id="g43">
            <path
               d="M 0,0 M 2.121,4.6480002 C 1.82,4.354 1.372,4.2070002 0.763,4.2070002 V 3.8990001 c 0.413,0 0.742,0.063 0.9940001,0.1820002 V 0.59499998 c 0,-0.091 -0.007,-0.14700001 -0.028,-0.17500001 -0.035,-0.077 -0.245,-0.11900002 -0.6300001,-0.11900002 H 0.81200006 V -5e-8 l 1.24600004,0.028 1.253,-0.028 v 0.301 h -0.287 c -0.385,0 -0.595,0.042 -0.6370001,0.11900002 -0.014,0.028 -0.021,0.084 -0.021,0.17500001 V 4.4240002 c 0,0.1889996 -0.028,0.224 -0.245,0.224 z"
               id="path42" />
          </g>
        </g>
      </g>
    </g>
    <g
       inkscape:label=""
       transform="translate(84.6748,96.319417)"
       id="g52">
      <g
         transform="matrix(0.352778,0,0,0.352778,-1.47673,-1.64042)"
         id="g51">
        <g
           class="typst-text"
           transform="matrix(1,0,0,-1,0,6.83)"
           id="g48">
          <g
             id="g47">
            <path
               d="m 0,0 m 6.71,6.7999997 c -0.1900001,0 -0.79,0.03 -0.98,0.03 -0.1500001,0 -0.23,-0.08 -0.23,-0.23 0,-0.1 0.07,-0.1500001 0.1999998,-0.1599999 0.2800002,-0.01 0.4200001,-0.1100001 0.4200001,-0.2800002 0,-0.09 -0.05,-0.21 -0.1399999,-0.3600001 L 3,1.0700002 l -0.6600001,5.12 c 0,0.1699996 0.21,0.25 0.6400001,0.25 0.1999998,0 0.29,0.07 0.29,0.2399998 0,0.1 -0.06,0.1500001 -0.1800001,0.1500001 -0.22,0 -1,-0.03 -1.2199999,-0.03 -0.2000001,0 -0.88000006,0.03 -1.08000001,0.03 -0.14999998,0 -0.22999996,-0.08 -0.22999996,-0.23 0,-0.1100002 0.1,-0.1599999 0.28999996,-0.1599999 0.17000001,0 0.29000001,-0.02 0.37000011,-0.04 C 1.38,6.3500001 1.37,6.3300001 1.4,6.14 L 2.1800001,0.04000002 c 0.03,-0.16999999 0.1099999,-0.26 0.2399998,-0.26 0.1300001,0 0.23,0.07 0.3100001,0.2 L 6.29,5.64 c 0.2300001,0.3600001 0.4499998,0.5900002 0.6700001,0.6799998 0.1499997,0.07 0.3399997,0.1100001 0.56,0.1200004 0.1099996,0.01 0.1599998,0.08 0.1700001,0.23 C 7.6999999,6.7799999 7.64,6.83 7.5200001,6.83 7.37,6.83 6.8599998,6.7999998 6.71,6.7999997 Z"
               id="path46" />
          </g>
        </g>
        <g
           class="typst-text"
           transform="matrix(1,0,0,-1,4.83,9.3)"
           id="g50">
          <g
             id="g49">
            <path
               d="m 0,0 m 0.833,2.9680002 c 0.224,0 0.392,0.168 0.392,0.392 0,0.2520001 -0.133,0.385 -0.392,0.3919999 0.15400004,0.3290002 0.504,0.595 0.959,0.595 0.616,0 1.0220002,-0.4619999 1.0220002,-1.0780001 0,-0.3359999 -0.119,-0.658 -0.3640001,-0.973 C 2.3310001,2.135 2.24,2.023 2.1770001,1.96 L 0.51800007,0.315 c -0.091,-0.084 -0.077,-0.10499999 -0.077,-0.315 H 3.3250001 l 0.217,1.316 H 3.2480002 c -0.049,-0.37099993 -0.105,-0.58799994 -0.168,-0.63699996 -0.035,-0.021 -0.2520001,-0.035 -0.6650002,-0.035 H 1.2250001 c 0.469,0.41300006 0.903,0.78400006 1.3160001,1.11300016 0.3150001,0.245 0.539,0.462 0.6789999,0.6509999 0.2100001,0.273 0.3150001,0.5600002 0.3150001,0.8610001 0,0.434 -0.168,0.7769999 -0.5109999,1.0290003 -0.3010001,0.2309999 -0.6790002,0.3499999 -1.1270001,0.3499999 -0.385,0 -0.714,-0.112 -1.00100003,-0.336 -0.301,-0.2450004 -0.455,-0.5530002 -0.455,-0.9310002 0,-0.2379999 0.17499998,-0.4129999 0.39199983,-0.413 z"
               id="path48" />
          </g>
        </g>
      </g>
    </g>
    <g
       inkscape:label=""
       transform="translate(160.18308,96.319415)"
       id="g64">
      <g
         transform="matrix(0.352778,0,0,0.352778,-3.26831,-1.7429)"
         id="g63">
        <g
           class="typst-group"
           id="g62">
          <g
             id="g61">
            <g
               class="typst-text"
               transform="matrix(1,0,0,-1,0,6.83)"
               id="g54">
              <g
                 id="g53">
                <path
                   d="m 0,0 m 6.71,6.7999997 c -0.1900001,0 -0.79,0.03 -0.98,0.03 -0.1500001,0 -0.23,-0.08 -0.23,-0.23 0,-0.1 0.07,-0.1500001 0.1999998,-0.1599999 0.2800002,-0.01 0.4200001,-0.1100001 0.4200001,-0.2800002 0,-0.09 -0.05,-0.21 -0.1399999,-0.3600001 L 3,1.0700002 l -0.6600001,5.12 c 0,0.1699996 0.21,0.25 0.6400001,0.25 0.1999998,0 0.29,0.07 0.29,0.2399998 0,0.1 -0.06,0.1500001 -0.1800001,0.1500001 -0.22,0 -1,-0.03 -1.2199999,-0.03 -0.2000001,0 -0.88000006,0.03 -1.08000001,0.03 -0.14999998,0 -0.22999996,-0.08 -0.22999996,-0.23 0,-0.1100002 0.1,-0.1599999 0.28999996,-0.1599999 0.17000001,0 0.29000001,-0.02 0.37000011,-0.04 C 1.38,6.3500001 1.37,6.3300001 1.4,6.14 L 2.1800001,0.04000002 c 0.03,-0.16999999 0.1099999,-0.26 0.2399998,-0.26 0.1300001,0 0.23,0.07 0.3100001,0.2 L 6.29,5.64 c 0.2300001,0.3600001 0.4499998,0.5900002 0.6700001,0.6799998 0.1499997,0.07 0.3399997,0.1100001 0.56,0.1200004 0.1099996,0.01 0.1599998,0.08 0.1700001,0.23 C 7.6999999,6.7799999 7.64,6.83 7.5200001,6.83 7.37,6.83 6.8599998,6.7999998 6.71,6.7999997 Z"
                   id="path52" />
              </g>
            </g>
            <g
               class="typst-text"
               transform="matrix(1,0,0,-1,4.83,9.3)"
               id="g56">
              <g
                 id="g55">
                <path
                   d="m 0,0 m 1.148,3.0870001 c -0.23099995,0 -0.41999996,-0.1259999 -0.567,-0.385 C 0.48299998,2.5270002 0.40599999,2.345 0.357,2.1419999 0.336,2.0649999 0.329,2.0229999 0.329,2.009 0.329,1.932 0.378,1.89 0.47600001,1.89 0.60900003,1.89 0.616,1.967 0.65100002,2.114 c 0.11899999,0.4830001 0.28,0.7279999 0.48299998,0.7279999 0.1330001,0 0.196,-0.105 0.196,-0.3149998 C 1.33,2.45 1.295,2.268 1.218,1.9669999 l -0.37100003,-1.498 c -0.049,-0.18900001 -0.07,-0.287 -0.07,-0.294 0,-0.16100001 0.091,-0.245 0.26600003,-0.245 0.133,0 0.231,0.056 0.294,0.16800001 0.021,0.042 0.063,0.189 0.126,0.43400002 L 1.61,1.1479999 C 1.694,1.4769999 1.743,1.659 1.7570001,1.701 c 0.056,0.1819999 0.14,0.357 0.2589999,0.518 0.2940002,0.4129999 0.6300001,0.6229999 1.0150001,0.6229999 0.2519999,0 0.378,-0.1539998 0.378,-0.4549999 C 3.4090001,2.114 3.276,1.631 3.003,0.93099991 2.9330001,0.74899987 2.898,0.62299988 2.898,0.54599986 c 0,-0.378 0.3080001,-0.616 0.6860001,-0.616 0.329,0 0.5949998,0.16800001 0.7839999,0.504 0.1610002,0.287 0.2379999,0.476 0.2379999,0.57400004 0,0.077 -0.049,0.119 -0.1399999,0.119 -0.049,-0.007 -0.098,-0.042 -0.1469998,-0.1120001 -0.007,-0.007 -0.007,-0.0209999 -0.007,-0.0279999 C 4.151,0.44799986 3.913,0.17499985 3.6049999,0.17499985 c -0.098,0 -0.1469998,0.07 -0.1469998,0.21700001 0,0.098 0.056,0.28000003 0.161,0.546 C 3.864,1.5609998 3.983,2.009 3.983,2.275 3.983,2.597 3.871,2.821 3.654,2.9399999 3.479,3.038 3.2759999,3.087 3.059,3.087 2.604,3.087 2.2190001,2.8909999 1.911,2.4989999 1.848,2.8419999 1.547,3.087 1.148,3.0870001 Z"
                   id="path54" />
              </g>
            </g>
            <g
               class="typst-text"
               transform="matrix(1,0,0,-1,9.772,9.3)"
               id="g58">
              <g
                 id="g57">
                <path
                   d="M 0,0 M 4.8650002,1.939 H 2.9120001 v 1.9530002 c 0,0.112 -0.077,0.1890001 -0.1890001,0.1890001 -0.112,0 -0.1889999,-0.077 -0.1889999,-0.1890001 V 1.939 H 0.58099998 c -0.11200002,0 -0.18900001,-0.077 -0.18900001,-0.189 0,-0.112 0.077,-0.189 0.18900001,-0.189 H 2.5340001 v -1.95300012 c 0,-0.11199999 0.077,-0.18900001 0.1889999,-0.18900001 0.112,0 0.1890001,0.077 0.1890001,0.18900001 V 1.561 h 1.9530001 c 0.112,0 0.1890001,0.077 0.1890001,0.189 0,0.091 -0.098,0.189 -0.1890001,0.189 z"
                   id="path56" />
              </g>
            </g>
            <g
               class="typst-text"
               transform="matrix(1,0,0,-1,15.218,9.3)"
               id="g60">
              <g
                 id="g59">
                <path
                   d="M 0,0 M 2.121,4.6480002 C 1.82,4.354 1.372,4.2070002 0.763,4.2070002 V 3.8990001 c 0.413,0 0.742,0.063 0.9940001,0.1820002 V 0.59499998 c 0,-0.091 -0.007,-0.14700001 -0.028,-0.17500001 -0.035,-0.077 -0.245,-0.11900002 -0.6300001,-0.11900002 H 0.81200006 V -5e-8 l 1.24600004,0.028 1.253,-0.028 v 0.301 h -0.287 c -0.385,0 -0.595,0.042 -0.6370001,0.11900002 -0.014,0.028 -0.021,0.084 -0.021,0.17500001 V 4.4240002 c 0,0.1889996 -0.028,0.224 -0.245,0.224 z"
                   id="path58" />
              </g>
            </g>
          </g>
        </g>
      </g>
    </g>
    <path
       style="fill:#000000;fill-opacity:1;stroke:#000000;stroke-width:0.239;stroke-dasharray:0.239, 0.717;stroke-dashoffset:0;stroke-opacity:1"
       d="M 120.7987,93.623375 V 121.5"
       id="path64" />
    <path
       style="fill:#000000;fill-opacity:1;stroke:#000000;stroke-width:0.239;stroke-dasharray:0.239, 0.717;stroke-dashoffset:0;stroke-opacity:1"
       d="M 123.46612,93.623375 V 121.5"
       id="path65" />
    <text
       xml:space="preserve"
       style="font-size:3.52777px;font-family:'Libertinus Serif';-inkscape-font-specification:'Libertinus Serif, Normal';writing-mode:lr-tb;direction:ltr;fill:#000000;fill-opacity:1;stroke:none;stroke-width:0.239;stroke-dasharray:none;stroke-dashoffset:0;stroke-opacity:1"
       x="37.030659"
       y="87.979462"
       id="text65"><tspan
         sodipodi:role="line"
         id="tspan65"
         style="fill:#000000;fill-opacity:1;stroke:none;stroke-width:0.239;stroke-dasharray:none"
         x="37.030659"
         y="87.979462">90% Oil recovery</tspan><tspan
         sodipodi:role="line"
         style="fill:#000000;fill-opacity:1;stroke:none;stroke-width:0.239;stroke-dasharray:none"
         x="37.030659"
         y="92.389175"
         id="tspan68">50% Oil</tspan></text>
    <text
       xml:space="preserve"
       style="font-size:3.52777px;font-family:'Libertinus Serif';-inkscape-font-specification:'Libertinus Serif, Normal';writing-mode:lr-tb;direction:ltr;fill:#000000;fill-opacity:1;stroke:none;stroke-width:0.239;stroke-dasharray:none;stroke-dashoffset:0;stroke-opacity:1"
       x="150.77684"
       y="91.786263"
       id="text66"><tspan
         sodipodi:role="line"
         id="tspan66"
         style="fill:#000000;fill-opacity:1;stroke:none;stroke-width:0.239;stroke-dasharray:none"
         x="150.77684"
         y="91.786263">Pure hexane</tspan></text>
    <text
       xml:space="preserve"
       style="font-size:3.52777px;font-family:'Libertinus Serif';-inkscape-font-specification:'Libertinus Serif, Normal';writing-mode:lr-tb;direction:ltr;fill:#000000;fill-opacity:1;stroke:none;stroke-width:0.239;stroke-dasharray:none;stroke-dashoffset:0;stroke-opacity:1"
       x="42.891487"
       y="120.44805"
       id="text67"><tspan
         sodipodi:role="line"
         id="tspan67"
         style="stroke-width:0.239"
         x="42.891487"
         y="120.44805">20% Oil</tspan></text>
    <text
       xml:space="preserve"
       style="font-size:3.52777px;font-family:'Libertinus Serif';-inkscape-font-specification:'Libertinus Serif, Normal';writing-mode:lr-tb;direction:ltr;fill:#000000;fill-opacity:1;stroke:none;stroke-width:0.239;stroke-dasharray:none;stroke-dashoffset:0;stroke-opacity:1"
       x="93.245125"
       y="125.70779"
       id="text69"><tspan
         sodipodi:role="line"
         id="tspan69"
         style="stroke-width:0.239"
         x="93.245125"
         y="125.70779" /></text>
    <g
       inkscape:label=""
       transform="translate(100.35064,89.791078)"
       id="g160">
      <g
         transform="matrix(0.352778,0,0,0.352778,-104.824,-3.99168)"
         id="g159">
        <g
           class="typst-group"
           id="g158">
          <g
             id="g157">
            <g
               class="typst-text"
               transform="matrix(1,0,0,-1,242.64,13.71)"
               id="g116">
              <g
                 id="g115">
                <path
                   d="M 0,0 M 8.639999,6.83 C 8.4499994,6.83 7.8299995,6.8 7.6399995,6.8 7.4499994,6.8 6.8199993,6.83 6.6299993,6.83 6.4799997,6.83 6.4099995,6.75 6.4099995,6.5899998 c 0,-0.09 0.07,-0.1399999 0.2199998,-0.1499997 0.4200001,0 0.6300001,-0.1300001 0.6300001,-0.3900003 0,-0.06 -0.01,-0.1299997 -0.02,-0.1999998 l -1.0799999,-4.2799997 -2.15,5.05 c -0.08,0.19 -0.1,0.21 -0.3499999,0.21 H 2.3299997 c -0.24,0 -0.3299999,-0.02 -0.3299999,-0.2400002 0,-0.1 0.1099999,-0.1499997 0.3199999,-0.1499997 0.4200001,0 0.6300001,-0.01 0.6400001,-0.04 l -1.33,-5.2999997 c -0.09,-0.39000004 -0.32,-0.60999999 -0.67999997,-0.68000006 -0.26,-0.03 -0.56,0.01 -0.56,-0.26999998 0,-0.09999999 0.06,-0.14999999 0.17000002,-0.14999999 0.18,0 0.80000005,0.03 0.98999995,0.03 0.1900001,0 0.8299999,-0.03 1.02,-0.03 0.1500001,0 0.22,0.08 0.22,0.24 0,0.09 -0.08,0.14 -0.24,0.14999999 -0.4100001,0.01 -0.61,0.13999999 -0.61,0.39 0,0.05 0.01,0.12 0.03,0.22000004 L 3.2599999,6.11 5.7599997,0.21000039 c 0.06,-0.13999999 0.1400003,-0.21 0.23,-0.21 0.09,0 0.1500001,0.08 0.1900001,0.24 L 7.5699997,5.7400004 C 7.6999998,6.2500006 7.98,6.4300005 8.5999994,6.4400007 c 0.1400003,0.01 0.21,0.09 0.21,0.25 -0.03,0.09 -0.04,0.1399999 -0.1700004,0.1399993 z"
                   id="path114" />
              </g>
            </g>
            <g
               class="typst-text"
               transform="matrix(1,0,0,-1,254.508,13.71)"
               id="g118">
              <g
                 id="g117">
                <path
                   d="M 0,0 M 6.98,3.6699998 H 0.7999997 c -0.15999997,0 -0.23999995,-0.08 -0.23999995,-0.23 0,-0.1499999 0.08,-0.2299998 0.23999995,-0.2299998 H 6.98 c 0.1599999,0 0.2399998,0.08 0.2399998,0.2299998 0,0.1200001 -0.1100002,0.23 -0.2399998,0.23 z m 0,-1.8799999 H 0.7999997 c -0.15999997,0 -0.23999995,-0.08 -0.23999995,-0.23 0,-0.15 0.08,-0.23 0.23999995,-0.23 H 6.98 c 0.1599999,0 0.2399998,0.08 0.2399998,0.23 0,0.13 -0.1100002,0.23 -0.2399998,0.23 z"
                   id="path116" />
              </g>
            </g>
            <g
               class="typst-text"
               transform="matrix(1,0,0,-1,266.066,6.94)"
               id="g120">
              <g
                 id="g119">
                <path
                   d="M 0,0 M 2.69,6.66 C 2.2799999,6.2399999 1.6799999,6.0299999 0.8899999,6.0299999 V 5.64 c 0.52,0 0.9499999,0.08 1.2799999,0.2399998 V 0.8200003 c 0,-0.18 -0.04,-0.3 -0.1299999,-0.35 -0.09,-0.05 -0.34,-0.08 -0.74,-0.08 H 0.94999996 V 3e-7 c 0.24999994,0.02 0.79000004,0.03 1.61999994,0.03 0.8299999,0 1.3699999,-0.01 1.6200001,-0.03 v 0.39 H 3.8399998 c -0.4100001,0 -0.6600001,0.03 -0.74,0.08 -0.08,0.05 -0.1299999,0.16999999 -0.1299999,0.35 V 6.3599998 C 2.9699999,6.6 2.95,6.66 2.69,6.66 Z"
                   id="path118" />
              </g>
            </g>
            <g
               class="typst-text"
               transform="matrix(1,0,0,-1,274.386,6.94)"
               id="g137">
              <g
                 id="g121">
                <path
                   d="m 0,0 m 4.22,0.03 c 0.2000003,0.01 0.5,0 0.8899999,-0.03 v 0.39 c -0.2399998,0 -0.4199996,0.03 -0.54,0.08 C 4.45,0.52 4.3100002,0.65999997 4.1500003,0.89 L 2.9000001,2.6599999 c -0.03,0.09 -0.05,0.1200001 -0.05,0.09 0,0.01 0.1000001,0.1 0.3099999,0.2799999 0.3500001,0.31 0.6100001,0.51 0.78,0.6199999 0.3100002,0.1900001 0.6200001,0.29 0.9400003,0.31 v 0.3799998 c -0.21,-0.02 -0.4500003,-0.03 -0.7200003,-0.03 -0.46,0 -0.8399999,0.01 -1.1499999,0.03 V 3.9599999 c 0.1899998,-0.01 0.29,-0.08 0.29,-0.2099998 0,-0.1200002 -0.07,-0.24 -0.2000001,-0.3600002 L 1.7800002,2.24 v 4.7 L 0.28000024,6.8299999 V 6.4499998 c 0.35999998,0 0.5799999,-0.03 0.65999997,-0.09 0.08,-0.06 0.10999999,-0.1999999 0.10999999,-0.4299999 V 0.78999983 c 0,-0.19 -0.04,-0.30999997 -0.10999999,-0.34999996 -0.07,-0.04 -0.29000002,-0.05 -0.65999997,-0.05 V -1.42e-7 L 1.3900002,0.02999986 2.5100002,-1.42e-7 V 0.38999986 c -0.3700001,0 -0.58,0.01 -0.65,0.05 -0.07,0.04 -0.11,0.15999997 -0.11,0.34999996 V 1.7899998 l 0.5799999,0.51 0.1600001,-0.24 c 0.6499999,-0.9 0.98,-1.39999998 0.98,-1.48999998 0,-0.12000001 -0.1200001,-0.18 -0.3600001,-0.18 v -0.39 z"
                   id="path120" />
              </g>
              <g
                 transform="translate(5.28)"
                 id="g122">
                <path
                   d="m 0,0 m 4.31,4.5299997 c -0.3800001,0 -0.73,-0.1499996 -1.05,-0.4499998 -0.3,0.23 -0.6400001,0.3400002 -1.03,0.3400002 -0.86,0 -1.6400001,-0.6400001 -1.6400001,-1.4800003 0,-0.4199999 0.15000004,-0.7599998 0.45,-1.0199999 -0.19,-0.2400001 -0.28999996,-0.51 -0.28999996,-0.82 0,-0.38000003 0.13,-0.67000008 0.37999996,-0.85999998 -0.41999998,-0.14 -0.84999996,-0.5 -0.84999996,-1.01 C 0.27999994,-1.2 0.55999994,-1.5400001 1.11,-1.7800001 1.5299999,-1.97 1.99,-2.06 2.49,-2.06 c 0.51,0 0.98,0.09 1.3999999,0.2799999 0.5500002,0.24 0.8200002,0.5800001 0.8200002,1.03000002 0,0.53 -0.2200003,0.92 -0.6600003,1.17 C 3.59,0.66999989 3.08,0.69999992 2.34,0.69999992 c -0.44,0 -0.68,0 -0.7299999,0.01 -0.2800001,0.04 -0.48,0.30999998 -0.48,0.61999998 0,0.1500001 0.04,0.29 0.13,0.4100001 0.2799999,-0.1900001 0.6,-0.2900001 0.97,-0.2900001 0.8599999,0 1.6299999,0.64 1.6299999,1.4799999 0,0.3900001 -0.1299999,0.71 -0.3899999,0.96 0.25,0.23 0.52,0.3400002 0.8099997,0.3400002 -0.05,-0.05 -0.08,-0.1300001 -0.08,-0.23 0,-0.2200001 0.1100001,-0.3300002 0.3299999,-0.3300002 0.21,0 0.3200002,0.1100001 0.3200002,0.3399999 0,0.3099999 -0.2399998,0.52 -0.5399999,0.52 z M 2.23,4.1100001 C 2.77,4.1100001 3.0399999,3.72 3.0399999,2.9399998 3.0399999,2.1499998 2.77,1.75 2.23,1.75 c -0.5500001,0 -0.8200001,0.3899999 -0.8200001,1.1799998 0,0.7900002 0.27,1.1800003 0.8200001,1.1800003 z m -0.59,-4.07 h 0.58 c 0.52,0 0.9399998,-0.03 1.26,-0.09999999 0.4299998,-0.08999999 0.6399999,-0.32999998 0.6399999,-0.71 0,-0.32000001 -0.2000001,-0.56999991 -0.5999999,-0.76000001 -0.31,-0.15 -0.6500001,-0.22 -1.02,-0.22 -0.3600002,0 -0.7000001,0.07 -1.02,0.22 C 1.0699999,-1.3399998 0.86999998,-1.09 0.86999998,-0.76999989 c 0,0.42 0.36000002,0.81 0.77000002,0.80999999 z"
                   id="path121" />
              </g>
              <g
                 transform="translate(13.6)"
                 id="g123">
                <path
                   d="m 0,0 m 1.4399999,0.03 1.11,-0.03 v 0.39 c -0.3599999,0 -0.58,0.01 -0.65,0.05 -0.07,0.04 -0.1,0.15999997 -0.1,0.34999996 V 6.94 L 0.32999988,6.8299998 V 6.4499997 c 0.35000002,0 0.57,-0.03 0.64,-0.09 0.07,-0.06 0.10999992,-0.1999998 0.10999992,-0.4299998 V 0.78999976 c 0,-0.19 -0.03,-0.30999997 -0.0999999,-0.34999996 -0.07,-0.04 -0.28999996,-0.05 -0.65,-0.05 v -0.39 z"
                   id="path122" />
              </g>
              <g
                 transform="translate(16.38)"
                 id="g124">
                <path
                   d="m 0,0 m 1.9399999,6.0099998 c 0,0.3000002 -0.25,0.5599999 -0.55,0.5599999 C 1.09,6.5699997 0.82999995,6.31 0.82999995,6.0099998 c 0,-0.2999997 0.24999995,-0.5699997 0.54999995,-0.5699997 0.31,0 0.56,0.2599997 0.56,0.5699997 z m -0.51,-5.9799995 L 2.47,3e-7 v 0.39 c -0.3300002,0 -0.5300001,0.02 -0.59,0.06 -0.06,0.04 -0.08,0.14999998 -0.08,0.32999998 V 4.4500001 L 0.36999993,4.3300002 V 3.9500001 c 0.32999998,0 0.53999996,-0.03 0.60999995,-0.08 C 1.0499999,3.8200001 1.0799998,3.68 1.0799998,3.45 V 0.7900003 c 0,-0.19 -0.03,-0.30999997 -0.0999999,-0.34999996 -0.07,-0.04 -0.28999996,-0.05 -0.65,-0.05 V 3.24e-7 Z"
                   id="path123" />
              </g>
              <g
                 transform="translate(19.16)"
                 id="g125">
                <path
                   d="m 0,0 m 2.55,4.42 c -0.62,0 -1.14,-0.23 -1.5699999,-0.6800001 -0.42999995,-0.45 -0.64,-0.98 -0.64,-1.6000001 0,-0.6099999 0.21000001,-1.13999987 0.62,-1.58999987 0.41,-0.45000002 0.91,-0.68 1.52,-0.68 0.49,0 0.9099999,0.21 1.26,0.64 V -1.1500001 c 0,-0.1899999 -0.03,-0.3099999 -0.1000001,-0.35 -0.07,-0.04 -0.29,-0.05 -0.6599999,-0.05 v -0.39 l 1.1399999,0.03 1.1500001,-0.03 v 0.39 c -0.3699999,0 -0.5900001,0.01 -0.6599998,0.05 -0.07,0.04 -0.1100002,0.1600001 -0.1100002,0.35 v 5.57 H 4.2199999 L 3.87,3.5799998 C 3.64,4.0099996 3.1999999,4.4199999 2.55,4.42 Z M 2.51,0.16 C 2.0999999,0.16 1.77,0.39999998 1.53,0.88 1.34,1.26 1.2400001,1.6799999 1.2400001,2.1399999 c 0,0.47 0.11,0.8900001 0.3299999,1.27 C 1.83,3.86 2.1800001,4.0899997 2.61,4.0899997 3.2600001,4.0899997 3.7700001,3.4199999 3.7700001,2.75 V 1.36 C 3.7700001,0.75 3.11,0.16 2.51,0.16 Z"
                   id="path124" />
              </g>
              <g
                 transform="translate(24.44)"
                 id="g126">
                <path
                   d="M 0,0 M 2.6699998,0.17999999 C 1.9799999,0.17999999 1.8499999,0.47000001 1.8499999,1.12 V 4.4200002 L 0.31999987,4.3100001 V 3.93 c 0.39,0 0.62,-0.04 0.68,-0.1099999 0.0599999,-0.07 0.09,-0.32 0.09,-0.76 v -1.47 c 0,-0.39 0.03,-0.68999998 0.1,-0.92 0.15,-0.52 0.7000001,-0.78 1.43,-0.78 0.54,0 0.9500001,0.25 1.23,0.76 v -0.76 l 1.5,0.110000005 V 0.3800001 c -0.3600001,0 -0.5700002,0.02 -0.6500001,0.08 -0.08,0.06 -0.1199999,0.19999999 -0.1199999,0.43 v 3.5300002 l -1.52,-0.1100001 V 3.9300001 c 0.3499999,0 0.56,-0.03 0.6399999,-0.09 0.08,-0.06 0.1200001,-0.19 0.1200001,-0.42 V 1.6700002 c 0,-0.79 -0.4200001,-1.49000004 -1.1500001,-1.49000021 z"
                   id="path125" />
              </g>
              <g
                 transform="translate(30)"
                 id="g127">
                <path
                   d="m 0,0 m 1.9399999,6.0099998 c 0,0.3000002 -0.25,0.5599999 -0.55,0.5599999 C 1.09,6.5699997 0.82999995,6.31 0.82999995,6.0099998 c 0,-0.2999997 0.24999995,-0.5699997 0.54999995,-0.5699997 0.31,0 0.56,0.2599997 0.56,0.5699997 z m -0.51,-5.9799995 L 2.47,3e-7 v 0.39 c -0.3300002,0 -0.5300001,0.02 -0.59,0.06 -0.06,0.04 -0.08,0.14999998 -0.08,0.32999998 V 4.4500001 L 0.36999993,4.3300002 V 3.9500001 c 0.32999998,0 0.53999996,-0.03 0.60999995,-0.08 C 1.0499999,3.8200001 1.0799998,3.68 1.0799998,3.45 V 0.7900003 c 0,-0.19 -0.03,-0.30999997 -0.0999999,-0.34999996 -0.07,-0.04 -0.28999996,-0.05 -0.65,-0.05 V 3.24e-7 Z"
                   id="path126" />
              </g>
              <g
                 transform="translate(32.78)"
                 id="g128">
                <path
                   d="M 0,0 M 3.74,-0.11 5.27,0 V 0.38 C 4.9099999,0.38 4.6999998,0.4 4.6199999,0.46 4.54,0.51999998 4.5,0.66999996 4.5,0.89999998 V 6.94 L 3.01,6.8299998 V 6.4499997 c 0.3499999,0 0.5699999,-0.03 0.6499999,-0.09 C 3.74,6.2999997 3.77,6.1599998 3.77,5.9299998 v -2.03 c -0.3200002,0.3700001 -0.72,0.5499999 -1.2,0.5499999 -0.62,0 -1.15,-0.2199998 -1.5799999,-0.6699998 -0.42999995,-0.4500001 -0.65,-0.99 -0.65,-1.6200001 0,-0.6099999 0.19999996,-1.1399999 0.61,-1.58999992 0.41,-0.45 0.91,-0.68 1.52,-0.68 0.51,0 0.9399998,0.19 1.27,0.58 z M 2.6099999,4.15 c 0.4300001,0 0.78,-0.1900003 1.03,-0.5700002 C 3.7099998,3.4699999 3.74,3.3599998 3.74,3.2299999 v -2.02 c 0,-0.13 -0.03,-0.23999995 -0.1000001,-0.34999996 C 3.3599999,0.40999998 2.9800001,0.18999998 2.51,0.18999998 c -0.4100001,0 -0.74,0.19999999 -1,0.60999995 C 1.3299999,1.1 1.24,1.5499999 1.24,2.1499998 1.24,3.24 1.61,4.15 2.6099999,4.15 Z"
                   id="path127" />
              </g>
              <g
                 transform="translate(41.66)"
                 id="g129">
                <path
                   d="m 0,0 m 3.6399999,3.78 c 0,0.3900001 -0.3699999,0.6400001 -0.76,0.6400001 -0.51,0 -0.9,-0.3000002 -1.16,-0.9100001 V 4.4200001 L 0.28,4.31 V 3.9299999 c 0.35,0 0.55999994,-0.03 0.64,-0.09 0.08,-0.06 0.12,-0.19 0.12,-0.42 V 0.78999998 c 0,-0.19 -0.03,-0.30999997 -0.1,-0.34999996 -0.07,-0.04 -0.29000002,-0.06 -0.65999997,-0.06 V 1.3999999e-8 L 1.4300001,0.03000001 c 0.4199999,0.01 0.85,0 1.2800001,-0.029999996 V 0.38000001 h -0.24 c -0.3300002,0 -0.5400001,0.03 -0.61,0.08 -0.07,0.05 -0.1000001,0.17000002 -0.1000001,0.35000002 V 2.32 c 0,0.4300001 0.08,0.8199999 0.2300001,1.1500001 0.2,0.4299998 0.49,0.6499999 0.8799999,0.6600001 C 2.7700002,4.0299998 2.7200002,3.9099999 2.7200002,3.7700001 2.7200002,3.4600001 2.8700001,3.31 3.18,3.31 c 0.27,0 0.46,0.2100001 0.4599999,0.47 z"
                   id="path128" />
              </g>
              <g
                 transform="translate(45.58)"
                 id="g130">
                <path
                   d="m 0,0 m 4.15,2.51 c 0,1.1499999 -0.6700001,1.97 -1.7900002,1.97 -0.5999999,0 -1.0999999,-0.23 -1.51,-0.7000001 C 0.46999983,3.3399999 0.27999987,2.81 0.27999987,2.2000001 c 0,-0.6300002 0.20999998,-1.1600002 0.63,-1.62000015 0.41999993,-0.45999998 0.93999993,-0.69 1.56000013,-0.69 0.5699999,0 1.01,0.19999999 1.31,0.59 0.2499997,0.33 0.3700001,0.56999995 0.3700001,0.72999985 0,0.1000001 -0.06,0.1500001 -0.1700001,0.1500001 -0.08,0 -0.1300001,-0.05 -0.1600001,-0.16 -0.22,-0.66000001 -0.6500001,-0.98999999 -1.29,-0.98999999 -0.45,0 -0.7999999,0.21 -1.07,0.64 C 1.27,1.1599999 1.18,1.6299999 1.17,2.27 H 3.8699998 C 4.0899996,2.27 4.15,2.29 4.15,2.51 Z M 3.2599999,3.49 C 3.3699998,3.1599998 3.4199998,2.8399999 3.4199998,2.5499999 H 1.18 C 1.2099999,3.21 1.38,3.6599998 1.68,3.8899998 1.93,4.0899996 2.1499999,4.19 2.3599999,4.19 c 0.4500001,0 0.75,-0.2300002 0.9,-0.7 z"
                   id="path129" />
              </g>
              <g
                 transform="translate(50.02)"
                 id="g131">
                <path
                   d="m 0,0 m 3.32,1.26 v 0.6 H 3.0000001 V 1.28 C 3.0000001,0.77999996 2.82,0.21999996 2.38,0.21999996 c -0.41,0 -0.6099999,0.34 -0.6099999,1.02000004 V 3.9499998 H 3.16 V 4.3299999 H 1.7700001 V 6.1500001 H 1.45 C 1.44,5.8199997 1.4100001,5.5299997 1.34,5.27 1.17,4.6100001 0.78000007,4.27 0.19000011,4.2399998 v -0.29 H 1.0200001 V 1.26 c 0,-0.59000003 0.18,-0.97 0.53,-1.16 0.27,-0.13999999 0.52,-0.21 0.77,-0.21 0.6600001,0 1,0.66 0.9999999,1.37 z"
                   id="path130" />
              </g>
              <g
                 transform="translate(53.91)"
                 id="g132">
                <path
                   d="M 0,0 M 4.83,0.90999997 V 1.5 H 4.5099998 V 0.90999997 c 0,-0.39 -0.1099996,-0.59 -0.3199997,-0.59 -0.2,0 -0.3200001,0.25 -0.3200001,0.45 V 2.74 C 3.87,3.0899999 3.83,3.3499999 3.7600001,3.5299999 3.5200001,4.1199998 2.83,4.48 2.13,4.48 1.3600001,4.48 0.59999996,4.0499997 0.59999996,3.3299999 c 0,-0.3299999 0.17000002,-0.5 0.50000004,-0.5 0.3299999,0 0.4899999,0.1600001 0.4899999,0.49 0,0.2899999 -0.15,0.46 -0.4599999,0.49 C 1.35,4.0599999 1.68,4.19 2.1099999,4.19 c 0.6200001,0 1,-0.5700002 1,-1.22 V 2.6399998 c -0.78,-0.05 -1.3699999,-0.1699998 -1.78,-0.3599999 -0.66999996,-0.31 -1.01,-0.74 -1.01,-1.30999998 0,-0.26 0.1,-0.48 0.29000002,-0.65 0.32,-0.29 0.75999998,-0.43 1.31999988,-0.43 0.5900001,0 1.0099999,0.25 1.2699999,0.76 0.07,-0.38 0.3500002,-0.71 0.7800002,-0.71 0.5299998,0 0.8499999,0.42 0.8500001,0.97000005 z M 2,0.18000001 c -0.46,0 -0.84,0.33999997 -0.84,0.79999995 C 1.16,1.91 2.1299999,2.3099999 3.1099999,2.3599999 V 1.41 C 3.1099999,0.74 2.6699998,0.17999996 2,0.18000001 Z"
                   id="path131" />
              </g>
              <g
                 transform="translate(58.91)"
                 id="g133">
                <path
                   d="m 0,0 m 1.9399999,6.0099998 c 0,0.3000002 -0.25,0.5599999 -0.55,0.5599999 C 1.09,6.5699997 0.82999995,6.31 0.82999995,6.0099998 c 0,-0.2999997 0.24999995,-0.5699997 0.54999995,-0.5699997 0.31,0 0.56,0.2599997 0.56,0.5699997 z m -0.51,-5.9799995 L 2.47,3e-7 v 0.39 c -0.3300002,0 -0.5300001,0.02 -0.59,0.06 -0.06,0.04 -0.08,0.14999998 -0.08,0.32999998 V 4.4500001 L 0.36999993,4.3300002 V 3.9500001 c 0.32999998,0 0.53999996,-0.03 0.60999995,-0.08 C 1.0499999,3.8200001 1.0799998,3.68 1.0799998,3.45 V 0.7900003 c 0,-0.19 -0.03,-0.30999997 -0.0999999,-0.34999996 -0.07,-0.04 -0.28999996,-0.05 -0.65,-0.05 V 3.24e-7 Z"
                   id="path132" />
              </g>
              <g
                 transform="translate(61.69)"
                 id="g134">
                <path
                   d="M 0,0 M 3.1399999,4.13 C 3.5899999,4.13 3.82,3.7799999 3.82,3.0699998 v -2.28 c 0,-0.19 -0.03,-0.30999997 -0.1,-0.34999996 -0.07,-0.04 -0.2900002,-0.06 -0.6600001,-0.06 V -1.62e-7 L 4.2100001,0.02999984 5.35,-1.62e-7 V 0.37999984 c -0.3200002,0 -0.5300002,0.01 -0.6300001,0.04 -0.1,0.03 -0.1399999,0.1 -0.1399999,0.22 V 2.5099998 c 0,0.4700001 -0.01,0.8 -0.04,0.99 C 4.4400001,4.11 3.9900001,4.4199999 3.1999998,4.4199999 2.5699999,4.4199999 2.0999999,4.1199997 1.79,3.5199998 V 4.4199999 L 0.32000004,4.3099998 V 3.9299997 c 0.36,0 0.58,-0.03 0.65999997,-0.09 0.08,-0.06 0.11000009,-0.1900001 0.11000009,-0.4200001 V 0.7899998 c 0,-0.19 -0.04,-0.30999997 -0.11000009,-0.34999996 -0.07,-0.04 -0.28999996,-0.06 -0.65999997,-0.06 V -1.58e-7 L 1.4699999,0.02999984 2.6099999,-1.58e-7 V 0.37999984 c -0.3699999,0 -0.5799999,0.02 -0.65,0.06 -0.07,0.04 -0.11,0.15999997 -0.11,0.34999996 v 1.8 c 0,0.8099999 0.51,1.5400002 1.29,1.5400002 z"
                   id="path133" />
              </g>
              <g
                 transform="translate(67.25)"
                 id="g135">
                <path
                   d="m 0,0 m 4.15,2.51 c 0,1.1499999 -0.6700001,1.97 -1.7900002,1.97 -0.5999999,0 -1.0999999,-0.23 -1.51,-0.7000001 C 0.46999983,3.3399999 0.27999987,2.81 0.27999987,2.2000001 c 0,-0.6300002 0.20999998,-1.1600002 0.63,-1.62000015 0.41999993,-0.45999998 0.93999993,-0.69 1.56000013,-0.69 0.5699999,0 1.01,0.19999999 1.31,0.59 0.2499997,0.33 0.3700001,0.56999995 0.3700001,0.72999985 0,0.1000001 -0.06,0.1500001 -0.1700001,0.1500001 -0.08,0 -0.1300001,-0.05 -0.1600001,-0.16 -0.22,-0.66000001 -0.6500001,-0.98999999 -1.29,-0.98999999 -0.45,0 -0.7999999,0.21 -1.07,0.64 C 1.27,1.1599999 1.18,1.6299999 1.17,2.27 H 3.8699998 C 4.0899996,2.27 4.15,2.29 4.15,2.51 Z M 3.2599999,3.49 C 3.3699998,3.1599998 3.4199998,2.8399999 3.4199998,2.5499999 H 1.18 C 1.2099999,3.21 1.38,3.6599998 1.68,3.8899998 1.93,4.0899996 2.1499999,4.19 2.3599999,4.19 c 0.4500001,0 0.75,-0.2300002 0.9,-0.7 z"
                   id="path134" />
              </g>
              <g
                 transform="translate(71.69)"
                 id="g136">
                <path
                   d="M 0,0 M 3.74,-0.11 5.27,0 V 0.38 C 4.9099999,0.38 4.6999998,0.4 4.6199999,0.46 4.54,0.51999998 4.5,0.66999996 4.5,0.89999998 V 6.94 L 3.01,6.8299998 V 6.4499997 c 0.3499999,0 0.5699999,-0.03 0.6499999,-0.09 C 3.74,6.2999997 3.77,6.1599998 3.77,5.9299998 v -2.03 c -0.3200002,0.3700001 -0.72,0.5499999 -1.2,0.5499999 -0.62,0 -1.15,-0.2199998 -1.5799999,-0.6699998 -0.42999995,-0.4500001 -0.65,-0.99 -0.65,-1.6200001 0,-0.6099999 0.19999996,-1.1399999 0.61,-1.58999992 0.41,-0.45 0.91,-0.68 1.52,-0.68 0.51,0 0.9399998,0.19 1.27,0.58 z M 2.6099999,4.15 c 0.4300001,0 0.78,-0.1900003 1.03,-0.5700002 C 3.7099998,3.4699999 3.74,3.3599998 3.74,3.2299999 v -2.02 c 0,-0.13 -0.03,-0.23999995 -0.1000001,-0.34999996 C 3.3599999,0.40999998 2.9800001,0.18999998 2.51,0.18999998 c -0.4100001,0 -0.74,0.19999999 -1,0.60999995 C 1.3299999,1.1 1.24,1.5499999 1.24,2.1499998 1.24,3.24 1.61,4.15 2.6099999,4.15 Z"
                   id="path135" />
              </g>
            </g>
            <g
               class="typst-text"
               transform="matrix(1,0,0,-1,267.001,20.57)"
               id="g139">
              <g
                 id="g138">
                <path
                   d="M 0,0 M 2.37,6.66 C 1.8600001,6.66 1.4300001,6.4800002 1.06,6.12 0.69000005,5.7599999 0.50000006,5.3399998 0.50000006,4.83 c 0,-0.3400001 0.25,-0.5900001 0.55999994,-0.5900001 0.3000001,0 0.5500001,0.2600002 0.5500001,0.5599999 0,0.3300004 -0.24,0.56 -0.5600001,0.56 -0.03,0 -0.05,0 -0.07,-0.01 0.19,0.49 0.6300001,0.9200003 1.2600001,0.9200003 0.8199999,0 1.28,-0.71 1.28,-1.5700002 C 3.5200001,4.0299998 3.1799999,3.31 2.5000001,2.55 L 0.62000005,0.43000002 c -0.13000003,-0.14999998 -0.12,-0.13999999 -0.12,-0.429999982 H 4.21 L 4.5,1.8 H 4.1700001 C 4.0899997,1.29 4.02,1.0000001 3.9599998,0.91000004 c -0.05,-0.05 -0.3499999,-0.07 -0.8999999,-0.07 h -1.67 L 2.3599998,1.79 c 0.6800001,0.6399999 1.54,1.3299999 1.8300002,1.8599999 0.1999999,0.3500002 0.2999997,0.7000001 0.2999997,1.05 0,1.1799998 -0.9199998,1.96 -2.1199997,1.9600001 z"
                   id="path137" />
              </g>
            </g>
            <g
               class="typst-text"
               transform="matrix(1,0,0,-1,275.321,20.57)"
               id="g156">
              <g
                 id="g140">
                <path
                   d="m 0,0 m 4.22,0.03 c 0.2000003,0.01 0.5,0 0.8899999,-0.03 v 0.39 c -0.2399998,0 -0.4199996,0.03 -0.54,0.08 C 4.45,0.52 4.3100002,0.65999997 4.1500003,0.89 L 2.9000001,2.6599999 c -0.03,0.09 -0.05,0.1200001 -0.05,0.09 0,0.01 0.1000001,0.1 0.3099999,0.2799999 0.3500001,0.31 0.6100001,0.51 0.78,0.6199999 0.3100002,0.1900001 0.6200001,0.29 0.9400003,0.31 v 0.3799998 c -0.21,-0.02 -0.4500003,-0.03 -0.7200003,-0.03 -0.46,0 -0.8399999,0.01 -1.1499999,0.03 V 3.9599999 c 0.1899998,-0.01 0.29,-0.08 0.29,-0.2099998 0,-0.1200002 -0.07,-0.24 -0.2000001,-0.3600002 L 1.7800002,2.24 v 4.7 L 0.28000024,6.8299999 V 6.4499998 c 0.35999998,0 0.5799999,-0.03 0.65999997,-0.09 0.08,-0.06 0.10999999,-0.1999999 0.10999999,-0.4299999 V 0.78999983 c 0,-0.19 -0.04,-0.30999997 -0.10999999,-0.34999996 -0.07,-0.04 -0.29000002,-0.05 -0.65999997,-0.05 V -1.42e-7 L 1.3900002,0.02999986 2.5100002,-1.42e-7 V 0.38999986 c -0.3700001,0 -0.58,0.01 -0.65,0.05 -0.07,0.04 -0.11,0.15999997 -0.11,0.34999996 V 1.7899998 l 0.5799999,0.51 0.1600001,-0.24 c 0.6499999,-0.9 0.98,-1.39999998 0.98,-1.48999998 0,-0.12000001 -0.1200001,-0.18 -0.3600001,-0.18 v -0.39 z"
                   id="path139" />
              </g>
              <g
                 transform="translate(5.28)"
                 id="g141">
                <path
                   d="m 0,0 m 4.31,4.5299997 c -0.3800001,0 -0.73,-0.1499996 -1.05,-0.4499998 -0.3,0.23 -0.6400001,0.3400002 -1.03,0.3400002 -0.86,0 -1.6400001,-0.6400001 -1.6400001,-1.4800003 0,-0.4199999 0.15000004,-0.7599998 0.45,-1.0199999 -0.19,-0.2400001 -0.28999996,-0.51 -0.28999996,-0.82 0,-0.38000003 0.13,-0.67000008 0.37999996,-0.85999998 -0.41999998,-0.14 -0.84999996,-0.5 -0.84999996,-1.01 C 0.27999994,-1.2 0.55999994,-1.5400001 1.11,-1.7800001 1.5299999,-1.97 1.99,-2.06 2.49,-2.06 c 0.51,0 0.98,0.09 1.3999999,0.2799999 0.5500002,0.24 0.8200002,0.5800001 0.8200002,1.03000002 0,0.53 -0.2200003,0.92 -0.6600003,1.17 C 3.59,0.66999989 3.08,0.69999992 2.34,0.69999992 c -0.44,0 -0.68,0 -0.7299999,0.01 -0.2800001,0.04 -0.48,0.30999998 -0.48,0.61999998 0,0.1500001 0.04,0.29 0.13,0.4100001 0.2799999,-0.1900001 0.6,-0.2900001 0.97,-0.2900001 0.8599999,0 1.6299999,0.64 1.6299999,1.4799999 0,0.3900001 -0.1299999,0.71 -0.3899999,0.96 0.25,0.23 0.52,0.3400002 0.8099997,0.3400002 -0.05,-0.05 -0.08,-0.1300001 -0.08,-0.23 0,-0.2200001 0.1100001,-0.3300002 0.3299999,-0.3300002 0.21,0 0.3200002,0.1100001 0.3200002,0.3399999 0,0.3099999 -0.2399998,0.52 -0.5399999,0.52 z M 2.23,4.1100001 C 2.77,4.1100001 3.0399999,3.72 3.0399999,2.9399998 3.0399999,2.1499998 2.77,1.75 2.23,1.75 c -0.5500001,0 -0.8200001,0.3899999 -0.8200001,1.1799998 0,0.7900002 0.27,1.1800003 0.8200001,1.1800003 z m -0.59,-4.07 h 0.58 c 0.52,0 0.9399998,-0.03 1.26,-0.09999999 0.4299998,-0.08999999 0.6399999,-0.32999998 0.6399999,-0.71 0,-0.32000001 -0.2000001,-0.56999991 -0.5999999,-0.76000001 -0.31,-0.15 -0.6500001,-0.22 -1.02,-0.22 -0.3600002,0 -0.7000001,0.07 -1.02,0.22 C 1.0699999,-1.3399998 0.86999998,-1.09 0.86999998,-0.76999989 c 0,0.42 0.36000002,0.81 0.77000002,0.80999999 z"
                   id="path140" />
              </g>
              <g
                 transform="translate(13.6)"
                 id="g142">
                <path
                   d="m 0,0 m 1.9399999,6.0099998 c 0,0.3000002 -0.25,0.5599999 -0.55,0.5599999 C 1.09,6.5699997 0.82999995,6.31 0.82999995,6.0099998 c 0,-0.2999997 0.24999995,-0.5699997 0.54999995,-0.5699997 0.31,0 0.56,0.2599997 0.56,0.5699997 z m -0.51,-5.9799995 L 2.47,3e-7 v 0.39 c -0.3300002,0 -0.5300001,0.02 -0.59,0.06 -0.06,0.04 -0.08,0.14999998 -0.08,0.32999998 V 4.4500001 L 0.36999993,4.3300002 V 3.9500001 c 0.32999998,0 0.53999996,-0.03 0.60999995,-0.08 C 1.0499999,3.8200001 1.0799998,3.68 1.0799998,3.45 V 0.7900003 c 0,-0.19 -0.03,-0.30999997 -0.0999999,-0.34999996 -0.07,-0.04 -0.28999996,-0.05 -0.65,-0.05 V 3.24e-7 Z"
                   id="path141" />
              </g>
              <g
                 transform="translate(16.38)"
                 id="g143">
                <path
                   d="M 0,0 M 3.1399999,4.13 C 3.5899999,4.13 3.82,3.7799999 3.82,3.0699998 v -2.28 c 0,-0.19 -0.03,-0.30999997 -0.1,-0.34999996 -0.07,-0.04 -0.2900002,-0.06 -0.6600001,-0.06 V -1.62e-7 L 4.2100001,0.02999984 5.35,-1.62e-7 V 0.37999984 c -0.3200002,0 -0.5300002,0.01 -0.6300001,0.04 -0.1,0.03 -0.1399999,0.1 -0.1399999,0.22 V 2.5099998 c 0,0.4700001 -0.01,0.8 -0.04,0.99 C 4.4400001,4.11 3.9900001,4.4199999 3.1999998,4.4199999 2.5699999,4.4199999 2.0999999,4.1199997 1.79,3.5199998 V 4.4199999 L 0.32000004,4.3099998 V 3.9299997 c 0.36,0 0.58,-0.03 0.65999997,-0.09 0.08,-0.06 0.11000009,-0.1900001 0.11000009,-0.4200001 V 0.7899998 c 0,-0.19 -0.04,-0.30999997 -0.11000009,-0.34999996 -0.07,-0.04 -0.28999996,-0.06 -0.65999997,-0.06 V -1.58e-7 L 1.4699999,0.02999984 2.6099999,-1.58e-7 V 0.37999984 c -0.3699999,0 -0.5799999,0.02 -0.65,0.06 -0.07,0.04 -0.11,0.15999997 -0.11,0.34999996 v 1.8 c 0,0.8099999 0.51,1.5400002 1.29,1.5400002 z"
                   id="path142" />
              </g>
              <g
                 transform="translate(21.94)"
                 id="g144">
                <path
                   d="M 0,0 M 3.6,1.3 C 3.6,2.06 3.08,2.54 2.05,2.74 1.58,2.83 1.28,2.9399998 1.12,3.0499999 0.96000002,3.1599998 0.88000004,3.3199999 0.88000004,3.51 c 0,0.47 0.35000006,0.7 1.04999996,0.7 0.68,0 1.0500001,-0.3800001 1.1,-1.1500001 C 3.04,2.98 3.09,2.9399998 3.1899999,2.9399998 3.3,2.9399998 3.36,3.03 3.36,3.21 V 4.1999998 C 3.36,4.3899999 3.31,4.48 3.2100001,4.48 3.1,4.48 2.9500001,4.2999997 2.85,4.2199998 2.6,4.3899999 2.29,4.48 1.93,4.48 1.04,4.48 0.33000012,4.0799999 0.33000012,3.23 c 0,-0.3400001 0.14000002,-0.6300001 0.43,-0.8600001 C 1.1100001,2.0799999 1.4400001,2.02 2.0700001,1.91 c 0.6500001,-0.13 0.98,-0.42 0.98,-0.87 0,-0.56999995 -0.3499999,-0.85999997 -1.06,-0.85999997 -0.69,0 -1.13000008,0.45999998 -1.31999998,1.36999997 -0.03,0.13 -0.08,0.2000001 -0.16999996,0.2000001 -0.11000001,0 -0.17000002,-0.1 -0.17000002,-0.2900001 V 0.17 c 0,-0.19 0.05,-0.28 0.15,-0.28 0.03,0 0.08,0.03 0.16,0.1 0.18,0.16 0.10000002,0.13 0.27999997,0.30999997 C 1.2100001,0.02999999 1.5700001,-0.11 1.9900001,-0.11 2.9399999,-0.11 3.6,0.38 3.6,1.3 Z"
                   id="path143" />
              </g>
              <g
                 transform="translate(25.88)"
                 id="g145">
                <path
                   d="m 0,0 m 2.49,-0.11 c 0.6199999,0 1.1399999,0.22 1.5699999,0.66 C 4.4899997,0.98999994 4.71,1.52 4.71,2.1399999 4.71,2.77 4.5,3.32 4.0799999,3.78 3.6599998,4.2399998 3.1299999,4.48 2.5,4.48 1.87,4.48 1.35,4.2399998 0.92,3.78 0.49000002,3.32 0.28,2.77 0.28,2.1399999 0.28,1.52 0.48999998,0.99 0.92,0.55 1.3500001,0.11 1.88,-0.11 2.49,-0.11 Z M 2.5,0.21 C 2.02,0.21 1.66,0.42 1.41,0.85 1.25,1.13 1.17,1.59 1.17,2.2200001 1.17,2.83 1.25,3.2700001 1.4,3.55 1.64,3.9800001 2,4.1900001 2.49,4.1900001 c 0.47,0 0.8299999,-0.21 1.0799999,-0.6200001 0.1700001,-0.28 0.25,-0.73 0.25,-1.3499999 C 3.8199999,1.06 3.48,0.2100001 2.5,0.21 Z"
                   id="path144" />
              </g>
              <g
                 transform="translate(30.88)"
                 id="g146">
                <path
                   d="m 0,0 m 1.4399999,0.03 1.11,-0.03 v 0.39 c -0.3599999,0 -0.58,0.01 -0.65,0.05 -0.07,0.04 -0.1,0.15999997 -0.1,0.34999996 V 6.94 L 0.32999988,6.8299998 V 6.4499997 c 0.35000002,0 0.57,-0.03 0.64,-0.09 0.07,-0.06 0.10999992,-0.1999998 0.10999992,-0.4299998 V 0.78999976 c 0,-0.19 -0.03,-0.30999997 -0.0999999,-0.34999996 -0.07,-0.04 -0.28999996,-0.05 -0.65,-0.05 v -0.39 z"
                   id="path145" />
              </g>
              <g
                 transform="translate(33.66)"
                 id="g147">
                <path
                   d="M 0,0 M 2.6699998,0.17999999 C 1.9799999,0.17999999 1.8499999,0.47000001 1.8499999,1.12 V 4.4200002 L 0.31999987,4.3100001 V 3.93 c 0.39,0 0.62,-0.04 0.68,-0.1099999 0.0599999,-0.07 0.09,-0.32 0.09,-0.76 v -1.47 c 0,-0.39 0.03,-0.68999998 0.1,-0.92 0.15,-0.52 0.7000001,-0.78 1.43,-0.78 0.54,0 0.9500001,0.25 1.23,0.76 v -0.76 l 1.5,0.110000005 V 0.3800001 c -0.3600001,0 -0.5700002,0.02 -0.6500001,0.08 -0.08,0.06 -0.1199999,0.19999999 -0.1199999,0.43 v 3.5300002 l -1.52,-0.1100001 V 3.9300001 c 0.3499999,0 0.56,-0.03 0.6399999,-0.09 0.08,-0.06 0.1200001,-0.19 0.1200001,-0.42 V 1.6700002 c 0,-0.79 -0.4200001,-1.49000004 -1.1500001,-1.49000021 z"
                   id="path146" />
              </g>
              <g
                 transform="translate(39.22)"
                 id="g148">
                <path
                   d="m 0,0 m 2.98,-0.11 c 0.6199999,0 1.1500001,0.22 1.5799999,0.67 C 4.9899997,1.01 5.21,1.54 5.21,2.1699999 5.21,2.78 5.0099997,3.32 4.5999999,3.77 4.19,4.2199998 3.6899998,4.4499998 3.0799999,4.4499998 c -0.49,0 -0.9300001,-0.1900001 -1.3,-0.5799999 V 6.9400001 L 0.27999987,6.83 V 6.4499999 c 0.35999998,0 0.5799999,-0.03 0.65999997,-0.09 0.08,-0.06 0.10999996,-0.1999998 0.10999996,-0.4299998 V -1.1e-7 h 0.3100001 l 0.3299999,0.58 C 2.0099998,0.11999991 2.4399999,-0.11000011 2.98,-0.11 Z m -0.04,0.3 c -0.4100001,0 -0.75,0.19 -1.0000001,0.58 -0.09,0.13 -0.13,0.27 -0.13,0.4 v 2.0299997 c 0,0.1300001 0.03,0.24 0.1,0.3400001 C 2.2,3.9499997 2.5699999,4.15 3.0399999,4.15 c 0.4099999,0 0.74,-0.2000003 1,-0.6100002 0.1799999,-0.2999999 0.27,-0.75 0.27,-1.3599999 0,-1.08 -0.3800001,-1.98999997 -1.3699999,-1.9899999 z"
                   id="path147" />
              </g>
              <g
                 transform="translate(44.78)"
                 id="g149">
                <path
                   d="m 0,0 m 1.4399999,0.03 1.11,-0.03 v 0.39 c -0.3599999,0 -0.58,0.01 -0.65,0.05 -0.07,0.04 -0.1,0.15999997 -0.1,0.34999996 V 6.94 L 0.32999988,6.8299998 V 6.4499997 c 0.35000002,0 0.57,-0.03 0.64,-0.09 0.07,-0.06 0.10999992,-0.1999998 0.10999992,-0.4299998 V 0.78999976 c 0,-0.19 -0.03,-0.30999997 -0.0999999,-0.34999996 -0.07,-0.04 -0.28999996,-0.05 -0.65,-0.05 v -0.39 z"
                   id="path148" />
              </g>
              <g
                 transform="translate(47.56)"
                 id="g150">
                <path
                   d="m 0,0 m 4.15,2.51 c 0,1.1499999 -0.6700001,1.97 -1.7900002,1.97 -0.5999999,0 -1.0999999,-0.23 -1.51,-0.7000001 C 0.46999983,3.3399999 0.27999987,2.81 0.27999987,2.2000001 c 0,-0.6300002 0.20999998,-1.1600002 0.63,-1.62000015 0.41999993,-0.45999998 0.93999993,-0.69 1.56000013,-0.69 0.5699999,0 1.01,0.19999999 1.31,0.59 0.2499997,0.33 0.3700001,0.56999995 0.3700001,0.72999985 0,0.1000001 -0.06,0.1500001 -0.1700001,0.1500001 -0.08,0 -0.1300001,-0.05 -0.1600001,-0.16 -0.22,-0.66000001 -0.6500001,-0.98999999 -1.29,-0.98999999 -0.45,0 -0.7999999,0.21 -1.07,0.64 C 1.27,1.1599999 1.18,1.6299999 1.17,2.27 H 3.8699998 C 4.0899996,2.27 4.15,2.29 4.15,2.51 Z M 3.2599999,3.49 C 3.3699998,3.1599998 3.4199998,2.8399999 3.4199998,2.5499999 H 1.18 C 1.2099999,3.21 1.38,3.6599998 1.68,3.8899998 1.93,4.0899996 2.1499999,4.19 2.3599999,4.19 c 0.4500001,0 0.75,-0.2300002 0.9,-0.7 z"
                   id="path149" />
              </g>
              <g
                 transform="translate(55.32)"
                 id="g151">
                <path
                   d="M 0,0 M 3.6,1.3 C 3.6,2.06 3.08,2.54 2.05,2.74 1.58,2.83 1.28,2.9399998 1.12,3.0499999 0.96000002,3.1599998 0.88000004,3.3199999 0.88000004,3.51 c 0,0.47 0.35000006,0.7 1.04999996,0.7 0.68,0 1.0500001,-0.3800001 1.1,-1.1500001 C 3.04,2.98 3.09,2.9399998 3.1899999,2.9399998 3.3,2.9399998 3.36,3.03 3.36,3.21 V 4.1999998 C 3.36,4.3899999 3.31,4.48 3.2100001,4.48 3.1,4.48 2.9500001,4.2999997 2.85,4.2199998 2.6,4.3899999 2.29,4.48 1.93,4.48 1.04,4.48 0.33000012,4.0799999 0.33000012,3.23 c 0,-0.3400001 0.14000002,-0.6300001 0.43,-0.8600001 C 1.1100001,2.0799999 1.4400001,2.02 2.0700001,1.91 c 0.6500001,-0.13 0.98,-0.42 0.98,-0.87 0,-0.56999995 -0.3499999,-0.85999997 -1.06,-0.85999997 -0.69,0 -1.13000008,0.45999998 -1.31999998,1.36999997 -0.03,0.13 -0.08,0.2000001 -0.16999996,0.2000001 -0.11000001,0 -0.17000002,-0.1 -0.17000002,-0.2900001 V 0.17 c 0,-0.19 0.05,-0.28 0.15,-0.28 0.03,0 0.08,0.03 0.16,0.1 0.18,0.16 0.10000002,0.13 0.27999997,0.30999997 C 1.2100001,0.02999999 1.5700001,-0.11 1.9900001,-0.11 2.9399999,-0.11 3.6,0.38 3.6,1.3 Z"
                   id="path150" />
              </g>
              <g
                 transform="translate(59.26)"
                 id="g152">
                <path
                   d="m 0,0 m 2.49,-0.11 c 0.6199999,0 1.1399999,0.22 1.5699999,0.66 C 4.4899997,0.98999994 4.71,1.52 4.71,2.1399999 4.71,2.77 4.5,3.32 4.0799999,3.78 3.6599998,4.2399998 3.1299999,4.48 2.5,4.48 1.87,4.48 1.35,4.2399998 0.92,3.78 0.49000002,3.32 0.28,2.77 0.28,2.1399999 0.28,1.52 0.48999998,0.99 0.92,0.55 1.3500001,0.11 1.88,-0.11 2.49,-0.11 Z M 2.5,0.21 C 2.02,0.21 1.66,0.42 1.41,0.85 1.25,1.13 1.17,1.59 1.17,2.2200001 1.17,2.83 1.25,3.2700001 1.4,3.55 1.64,3.9800001 2,4.1900001 2.49,4.1900001 c 0.47,0 0.8299999,-0.21 1.0799999,-0.6200001 0.1700001,-0.28 0.25,-0.73 0.25,-1.3499999 C 3.8199999,1.06 3.48,0.2100001 2.5,0.21 Z"
                   id="path151" />
              </g>
              <g
                 transform="translate(64.26)"
                 id="g153">
                <path
                   d="m 0,0 m 1.4399999,0.03 1.11,-0.03 v 0.39 c -0.3599999,0 -0.58,0.01 -0.65,0.05 -0.07,0.04 -0.1,0.15999997 -0.1,0.34999996 V 6.94 L 0.32999988,6.8299998 V 6.4499997 c 0.35000002,0 0.57,-0.03 0.64,-0.09 0.07,-0.06 0.10999992,-0.1999998 0.10999992,-0.4299998 V 0.78999976 c 0,-0.19 -0.03,-0.30999997 -0.0999999,-0.34999996 -0.07,-0.04 -0.28999996,-0.05 -0.65,-0.05 v -0.39 z"
                   id="path152" />
              </g>
              <g
                 transform="translate(67.04)"
                 id="g154">
                <path
                   d="m 0,0 m 1.9399999,6.0099998 c 0,0.3000002 -0.25,0.5599999 -0.55,0.5599999 C 1.09,6.5699997 0.82999995,6.31 0.82999995,6.0099998 c 0,-0.2999997 0.24999995,-0.5699997 0.54999995,-0.5699997 0.31,0 0.56,0.2599997 0.56,0.5699997 z m -0.51,-5.9799995 L 2.47,3e-7 v 0.39 c -0.3300002,0 -0.5300001,0.02 -0.59,0.06 -0.06,0.04 -0.08,0.14999998 -0.08,0.32999998 V 4.4500001 L 0.36999993,4.3300002 V 3.9500001 c 0.32999998,0 0.53999996,-0.03 0.60999995,-0.08 C 1.0499999,3.8200001 1.0799998,3.68 1.0799998,3.45 V 0.7900003 c 0,-0.19 -0.03,-0.30999997 -0.0999999,-0.34999996 -0.07,-0.04 -0.28999996,-0.05 -0.65,-0.05 V 3.24e-7 Z"
                   id="path153" />
              </g>
              <g
                 transform="translate(69.82)"
                 id="g155">
                <path
                   d="M 0,0 M 3.74,-0.11 5.27,0 V 0.38 C 4.9099999,0.38 4.6999998,0.4 4.6199999,0.46 4.54,0.51999998 4.5,0.66999996 4.5,0.89999998 V 6.94 L 3.01,6.8299998 V 6.4499997 c 0.3499999,0 0.5699999,-0.03 0.6499999,-0.09 C 3.74,6.2999997 3.77,6.1599998 3.77,5.9299998 v -2.03 c -0.3200002,0.3700001 -0.72,0.5499999 -1.2,0.5499999 -0.62,0 -1.15,-0.2199998 -1.5799999,-0.6699998 -0.42999995,-0.4500001 -0.65,-0.99 -0.65,-1.6200001 0,-0.6099999 0.19999996,-1.1399999 0.61,-1.58999992 0.41,-0.45 0.91,-0.68 1.52,-0.68 0.51,0 0.9399998,0.19 1.27,0.58 z M 2.6099999,4.15 c 0.4300001,0 0.78,-0.1900003 1.03,-0.5700002 C 3.7099998,3.4699999 3.74,3.3599998 3.74,3.2299999 v -2.02 c 0,-0.13 -0.03,-0.23999995 -0.1000001,-0.34999996 C 3.3599999,0.40999998 2.9800001,0.18999998 2.51,0.18999998 c -0.4100001,0 -0.74,0.19999999 -1,0.60999995 C 1.3299999,1.1 1.24,1.5499999 1.24,2.1499998 1.24,3.24 1.61,4.15 2.6099999,4.15 Z"
                   id="path154" />
              </g>
            </g>
            <path
               class="typst-shape"
               fill="none"
               stroke="#000000"
               stroke-width="0.48"
               stroke-linecap="butt"
               stroke-linejoin="miter"
               stroke-miterlimit="4"
               transform="translate(266.066,11.21)"
               d="M 0,0 H 85.57"
               id="path156" />
          </g>
        </g>
      </g>
    </g>
  </g>
</svg>
