<?xml version="1.0" encoding="UTF-8" standalone="no"?>
<!-- Created with Inkscape (http://www.inkscape.org/) -->

<svg
   width="99.438622mm"
   height="34.825951mm"
   viewBox="0 0 99.438622 34.825951"
   version="1.1"
   id="svg1"
   inkscape:version="1.4.3 (0d15f75, 2025-12-25)"
   sodipodi:docname="prob-single-stage.svg"
   xmlns:inkscape="http://www.inkscape.org/namespaces/inkscape"
   xmlns:sodipodi="http://sodipodi.sourceforge.net/DTD/sodipodi-0.dtd"
   xmlns="http://www.w3.org/2000/svg"
   xmlns:svg="http://www.w3.org/2000/svg">
  <sodipodi:namedview
     id="namedview1"
     pagecolor="#ffffff"
     bordercolor="#000000"
     borderopacity="0.25"
     inkscape:showpageshadow="2"
     inkscape:pageopacity="0.0"
     inkscape:pagecheckerboard="0"
     inkscape:deskcolor="#d1d1d1"
     inkscape:document-units="mm"
     inkscape:zoom="1.5091049"
     inkscape:cx="234.57613"
     inkscape:cy="84.487166"
     inkscape:window-width="1920"
     inkscape:window-height="1027"
     inkscape:window-x="-8"
     inkscape:window-y="22"
     inkscape:window-maximized="1"
     inkscape:current-layer="g108" />
  <defs
     id="defs1">
    <marker
       style="overflow:visible"
       id="ArrowTriangleStylized"
       refX="0"
       refY="0"
       orient="auto-start-reverse"
       inkscape:stockid="Stylized triangle arrow"
       markerWidth="1"
       markerHeight="1"
       viewBox="0 0 1 1"
       inkscape:isstock="true"
       inkscape:collect="always"
       preserveAspectRatio="xMidYMid">
      <path
         transform="scale(0.5)"
         style="fill:context-stroke;fill-rule:evenodd;stroke:context-stroke;stroke-width:1pt"
         d="m 6,0 c -3,1 -7,3 -9,5 0,0 0,-4 2,-5 -2,-1 -2,-5 -2,-5 2,2 6,4 9,5 z"
         id="path4" />
    </marker>
  </defs>
  <g
     inkscape:label="Layer 1"
     inkscape:groupmode="layer"
     id="layer1"
     transform="translate(-38.931245,-101.43154)">
    <rect
       style="fill:none;stroke:#000000;stroke-width:0.155823;stroke-opacity:1"
       id="rect1"
       width="33.295925"
       height="23.160902"
       x="72.145462"
       y="105.6946" />
    <g
       inkscape:label=""
       transform="translate(88.793677,117.27505)"
       id="g78">
      <g
         transform="matrix(0.352778,0,0,0.352778,-104.824,-3.99168)"
         id="g77">
        <g
           class="typst-group"
           id="g76">
          <g
             id="g75">
            <g
               class="typst-text"
               transform="matrix(1,0,0,-1,254.98,13.71)"
               id="g47">
              <g
                 id="g46">
                <path
                   d="M 0,0 M 8.639999,6.83 C 8.4499994,6.83 7.8299995,6.8 7.6399995,6.8 7.4499994,6.8 6.8199993,6.83 6.6299993,6.83 6.4799997,6.83 6.4099995,6.75 6.4099995,6.5899998 c 0,-0.09 0.07,-0.1399999 0.2199998,-0.1499997 0.4200001,0 0.6300001,-0.1300001 0.6300001,-0.3900003 0,-0.06 -0.01,-0.1299997 -0.02,-0.1999998 l -1.0799999,-4.2799997 -2.15,5.05 c -0.08,0.19 -0.1,0.21 -0.3499999,0.21 H 2.3299997 c -0.24,0 -0.3299999,-0.02 -0.3299999,-0.2400002 0,-0.1 0.1099999,-0.1499997 0.3199999,-0.1499997 0.4200001,0 0.6300001,-0.01 0.6400001,-0.04 l -1.33,-5.2999997 c -0.09,-0.39000004 -0.32,-0.60999999 -0.67999997,-0.68000006 -0.26,-0.03 -0.56,0.01 -0.56,-0.26999998 0,-0.09999999 0.06,-0.14999999 0.17000002,-0.14999999 0.18,0 0.80000005,0.03 0.98999995,0.03 0.1900001,0 0.8299999,-0.03 1.02,-0.03 0.1500001,0 0.22,0.08 0.22,0.24 0,0.09 -0.08,0.14 -0.24,0.14999999 -0.4100001,0.01 -0.61,0.13999999 -0.61,0.39 0,0.05 0.01,0.12 0.03,0.22000004 L 3.2599999,6.11 5.7599997,0.21000039 c 0.06,-0.13999999 0.1400003,-0.21 0.23,-0.21 0.09,0 0.1500001,0.08 0.1900001,0.24 L 7.5699997,5.7400004 C 7.6999998,6.2500006 7.98,6.4300005 8.5999994,6.4400007 c 0.1400003,0.01 0.21,0.09 0.21,0.25 -0.03,0.09 -0.04,0.1399999 -0.1700004,0.1399993 z"
                   id="path45" />
              </g>
            </g>
            <g
               class="typst-text"
               transform="matrix(1,0,0,-1,266.848,13.71)"
               id="g49">
              <g
                 id="g48">
                <path
                   d="M 0,0 M 6.98,3.6699998 H 0.7999997 c -0.15999997,0 -0.23999995,-0.08 -0.23999995,-0.23 0,-0.1499999 0.08,-0.2299998 0.23999995,-0.2299998 H 6.98 c 0.1599999,0 0.2399998,0.08 0.2399998,0.2299998 0,0.1200001 -0.1100002,0.23 -0.2399998,0.23 z m 0,-1.8799999 H 0.7999997 c -0.15999997,0 -0.23999995,-0.08 -0.23999995,-0.23 0,-0.15 0.08,-0.23 0.23999995,-0.23 H 6.98 c 0.1599999,0 0.2399998,0.08 0.2399998,0.23 0,0.13 -0.1100002,0.23 -0.2399998,0.23 z"
                   id="path47" />
              </g>
            </g>
            <g
               class="typst-text"
               transform="matrix(1,0,0,-1,277.406,13.71)"
               id="g51">
              <g
                 id="g50">
                <path
                   d="M 0,0 M 2.69,6.66 C 2.2799999,6.2399999 1.6799999,6.0299999 0.8899999,6.0299999 V 5.64 c 0.52,0 0.9499999,0.08 1.2799999,0.2399998 V 0.8200003 c 0,-0.18 -0.04,-0.3 -0.1299999,-0.35 -0.09,-0.05 -0.34,-0.08 -0.74,-0.08 H 0.94999996 V 3e-7 c 0.24999994,0.02 0.79000004,0.03 1.61999994,0.03 0.8299999,0 1.3699999,-0.01 1.6200001,-0.03 v 0.39 H 3.8399998 c -0.4100001,0 -0.6600001,0.03 -0.74,0.08 -0.08,0.05 -0.1299999,0.16999999 -0.1299999,0.35 V 6.3599998 C 2.9699999,6.6 2.95,6.66 2.69,6.66 Z"
                   id="path49" />
              </g>
            </g>
            <g
               class="typst-text"
               transform="matrix(1,0,0,-1,282.406,13.71)"
               id="g53">
              <g
                 id="g52">
                <path
                   d="M 0,0 M 1.92,0.53 C 1.92,0.82000002 1.68,1.06 1.39,1.06 1.1,1.06 0.85999997,0.82000005 0.85999997,0.53 0.85999997,0.24000004 1.1,0 1.39,0 1.68,0 1.92,0.24 1.92,0.53 Z"
                   id="path51" />
              </g>
            </g>
            <g
               class="typst-text"
               transform="matrix(1,0,0,-1,285.186,13.71)"
               id="g55">
              <g
                 id="g54">
                <path
                   d="m 0,0 m 1.18,3.1499999 c 0.05,0 0.11,0.04 0.16,0.1100001 0.3,0.4499998 0.71,0.6699999 1.23,0.6699999 0.3499999,0 0.6199999,-0.1999998 0.7999999,-0.6099999 C 3.4800001,3.05 3.54,2.6399999 3.54,2.09 3.54,1.46 3.46,1.0200001 3.31,0.76000007 c -0.25,-0.41 -0.5899999,-0.62 -1.02,-0.62 -0.67,0 -1.1999999,0.48000002 -1.38000002,1.00000003 0.03,-0.01 0.05,0 0.09,0 C 1.3,1.1400001 1.55,1.3700001 1.55,1.6700001 1.55,1.98 1.3,2.1900002 1,2.1900002 c -0.35000001,0 -0.49999999,-0.1900001 -0.49999999,-0.5600001 0,-0.99999999 0.80999989,-1.84999999 1.80999999,-1.84999999 0.6099999,0 1.1299999,0.22 1.55,0.65999997 C 4.2799998,0.88000008 4.4899999,1.41 4.4899999,2.02 c 0,0.5799999 -0.1700001,1.0799999 -0.5099997,1.51 C 3.61,4 3.15,4.23 2.5900001,4.23 2.12,4.23 1.7100001,4.0799999 1.3800002,3.78 v 1.78 c 0.2699999,-0.08 0.53,-0.1199999 0.8000001,-0.1199999 0.4599998,0 0.8599999,0.1099997 1.1999998,0.3399997 0.3099999,0.19 0.52,0.3800001 0.6400001,0.5599999 0.06,0.08 0.09,0.1400004 0.09,0.1700001 0,0.1 -0.05,0.1500001 -0.1500003,0.1500001 -0.55,-0.21 -1.02,-0.3200002 -1.3999999,-0.3200002 -0.4500001,0 -0.88,0.09 -1.29,0.2800002 -0.05,0.02 -0.09,0.03 -0.13,0.03 -0.09,0 -0.14,-0.09 -0.14,-0.2799998 v -2.92 C 1,3.2400003 1,3.1500002 1.18,3.1499999 Z"
                   id="path53" />
              </g>
            </g>
            <g
               class="typst-text"
               transform="matrix(1,0,0,-1,298.146,6.94)"
               id="g63">
              <g
                 id="g56">
                <path
                   d="m 0,0 m 4.22,0.03 c 0.2000003,0.01 0.5,0 0.8899999,-0.03 v 0.39 c -0.2399998,0 -0.4199996,0.03 -0.54,0.08 C 4.45,0.52 4.3100002,0.65999997 4.1500003,0.89 L 2.9000001,2.6599999 c -0.03,0.09 -0.05,0.1200001 -0.05,0.09 0,0.01 0.1000001,0.1 0.3099999,0.2799999 0.3500001,0.31 0.6100001,0.51 0.78,0.6199999 0.3100002,0.1900001 0.6200001,0.29 0.9400003,0.31 v 0.3799998 c -0.21,-0.02 -0.4500003,-0.03 -0.7200003,-0.03 -0.46,0 -0.8399999,0.01 -1.1499999,0.03 V 3.9599999 c 0.1899998,-0.01 0.29,-0.08 0.29,-0.2099998 0,-0.1200002 -0.07,-0.24 -0.2000001,-0.3600002 L 1.7800002,2.24 v 4.7 L 0.28000024,6.8299999 V 6.4499998 c 0.35999998,0 0.5799999,-0.03 0.65999997,-0.09 0.08,-0.06 0.10999999,-0.1999999 0.10999999,-0.4299999 V 0.78999983 c 0,-0.19 -0.04,-0.30999997 -0.10999999,-0.34999996 -0.07,-0.04 -0.29000002,-0.05 -0.65999997,-0.05 V -1.42e-7 L 1.3900002,0.02999986 2.5100002,-1.42e-7 V 0.38999986 c -0.3700001,0 -0.58,0.01 -0.65,0.05 -0.07,0.04 -0.11,0.15999997 -0.11,0.34999996 V 1.7899998 l 0.5799999,0.51 0.1600001,-0.24 c 0.6499999,-0.9 0.98,-1.39999998 0.98,-1.48999998 0,-0.12000001 -0.1200001,-0.18 -0.3600001,-0.18 v -0.39 z"
                   id="path55" />
              </g>
              <g
                 transform="translate(5.28)"
                 id="g57">
                <path
                   d="m 0,0 m 4.31,4.5299997 c -0.3800001,0 -0.73,-0.1499996 -1.05,-0.4499998 -0.3,0.23 -0.6400001,0.3400002 -1.03,0.3400002 -0.86,0 -1.6400001,-0.6400001 -1.6400001,-1.4800003 0,-0.4199999 0.15000004,-0.7599998 0.45,-1.0199999 -0.19,-0.2400001 -0.28999996,-0.51 -0.28999996,-0.82 0,-0.38000003 0.13,-0.67000008 0.37999996,-0.85999998 -0.41999998,-0.14 -0.84999996,-0.5 -0.84999996,-1.01 C 0.27999994,-1.2 0.55999994,-1.5400001 1.11,-1.7800001 1.5299999,-1.97 1.99,-2.06 2.49,-2.06 c 0.51,0 0.98,0.09 1.3999999,0.2799999 0.5500002,0.24 0.8200002,0.5800001 0.8200002,1.03000002 0,0.53 -0.2200003,0.92 -0.6600003,1.17 C 3.59,0.66999989 3.08,0.69999992 2.34,0.69999992 c -0.44,0 -0.68,0 -0.7299999,0.01 -0.2800001,0.04 -0.48,0.30999998 -0.48,0.61999998 0,0.1500001 0.04,0.29 0.13,0.4100001 0.2799999,-0.1900001 0.6,-0.2900001 0.97,-0.2900001 0.8599999,0 1.6299999,0.64 1.6299999,1.4799999 0,0.3900001 -0.1299999,0.71 -0.3899999,0.96 0.25,0.23 0.52,0.3400002 0.8099997,0.3400002 -0.05,-0.05 -0.08,-0.1300001 -0.08,-0.23 0,-0.2200001 0.1100001,-0.3300002 0.3299999,-0.3300002 0.21,0 0.3200002,0.1100001 0.3200002,0.3399999 0,0.3099999 -0.2399998,0.52 -0.5399999,0.52 z M 2.23,4.1100001 C 2.77,4.1100001 3.0399999,3.72 3.0399999,2.9399998 3.0399999,2.1499998 2.77,1.75 2.23,1.75 c -0.5500001,0 -0.8200001,0.3899999 -0.8200001,1.1799998 0,0.7900002 0.27,1.1800003 0.8200001,1.1800003 z m -0.59,-4.07 h 0.58 c 0.52,0 0.9399998,-0.03 1.26,-0.09999999 0.4299998,-0.08999999 0.6399999,-0.32999998 0.6399999,-0.71 0,-0.32000001 -0.2000001,-0.56999991 -0.5999999,-0.76000001 -0.31,-0.15 -0.6500001,-0.22 -1.02,-0.22 -0.3600002,0 -0.7000001,0.07 -1.02,0.22 C 1.0699999,-1.3399998 0.86999998,-1.09 0.86999998,-0.76999989 c 0,0.42 0.36000002,0.81 0.77000002,0.80999999 z"
                   id="path56" />
              </g>
              <g
                 transform="translate(13.6)"
                 id="g58">
                <path
                   d="m 0,0 m 1.9399999,6.0099998 c 0,0.3000002 -0.25,0.5599999 -0.55,0.5599999 C 1.09,6.5699997 0.82999995,6.31 0.82999995,6.0099998 c 0,-0.2999997 0.24999995,-0.5699997 0.54999995,-0.5699997 0.31,0 0.56,0.2599997 0.56,0.5699997 z m -0.51,-5.9799995 L 2.47,3e-7 v 0.39 c -0.3300002,0 -0.5300001,0.02 -0.59,0.06 -0.06,0.04 -0.08,0.14999998 -0.08,0.32999998 V 4.4500001 L 0.36999993,4.3300002 V 3.9500001 c 0.32999998,0 0.53999996,-0.03 0.60999995,-0.08 C 1.0499999,3.8200001 1.0799998,3.68 1.0799998,3.45 V 0.7900003 c 0,-0.19 -0.03,-0.30999997 -0.0999999,-0.34999996 -0.07,-0.04 -0.28999996,-0.05 -0.65,-0.05 V 3.24e-7 Z"
                   id="path57" />
              </g>
              <g
                 transform="translate(16.38)"
                 id="g59">
                <path
                   d="M 0,0 M 3.1399999,4.13 C 3.5899999,4.13 3.82,3.7799999 3.82,3.0699998 v -2.28 c 0,-0.19 -0.03,-0.30999997 -0.1,-0.34999996 -0.07,-0.04 -0.2900002,-0.06 -0.6600001,-0.06 V -1.62e-7 L 4.2100001,0.02999984 5.35,-1.62e-7 V 0.37999984 c -0.3200002,0 -0.5300002,0.01 -0.6300001,0.04 -0.1,0.03 -0.1399999,0.1 -0.1399999,0.22 V 2.5099998 c 0,0.4700001 -0.01,0.8 -0.04,0.99 C 4.4400001,4.11 3.9900001,4.4199999 3.1999998,4.4199999 2.5699999,4.4199999 2.0999999,4.1199997 1.79,3.5199998 V 4.4199999 L 0.32000004,4.3099998 V 3.9299997 c 0.36,0 0.58,-0.03 0.65999997,-0.09 0.08,-0.06 0.11000009,-0.1900001 0.11000009,-0.4200001 V 0.7899998 c 0,-0.19 -0.04,-0.30999997 -0.11000009,-0.34999996 -0.07,-0.04 -0.28999996,-0.06 -0.65999997,-0.06 V -1.58e-7 L 1.4699999,0.02999984 2.6099999,-1.58e-7 V 0.37999984 c -0.3699999,0 -0.5799999,0.02 -0.65,0.06 -0.07,0.04 -0.11,0.15999997 -0.11,0.34999996 v 1.8 c 0,0.8099999 0.51,1.5400002 1.29,1.5400002 z"
                   id="path58" />
              </g>
              <g
                 transform="translate(21.94)"
                 id="g60">
                <path
                   d="m 0,0 m 4.15,2.51 c 0,1.1499999 -0.6700001,1.97 -1.7900002,1.97 -0.5999999,0 -1.0999999,-0.23 -1.51,-0.7000001 C 0.46999983,3.3399999 0.27999987,2.81 0.27999987,2.2000001 c 0,-0.6300002 0.20999998,-1.1600002 0.63,-1.62000015 0.41999993,-0.45999998 0.93999993,-0.69 1.56000013,-0.69 0.5699999,0 1.01,0.19999999 1.31,0.59 0.2499997,0.33 0.3700001,0.56999995 0.3700001,0.72999985 0,0.1000001 -0.06,0.1500001 -0.1700001,0.1500001 -0.08,0 -0.1300001,-0.05 -0.1600001,-0.16 -0.22,-0.66000001 -0.6500001,-0.98999999 -1.29,-0.98999999 -0.45,0 -0.7999999,0.21 -1.07,0.64 C 1.27,1.1599999 1.18,1.6299999 1.17,2.27 H 3.8699998 C 4.0899996,2.27 4.15,2.29 4.15,2.51 Z M 3.2599999,3.49 C 3.3699998,3.1599998 3.4199998,2.8399999 3.4199998,2.5499999 H 1.18 C 1.2099999,3.21 1.38,3.6599998 1.68,3.8899998 1.93,4.0899996 2.1499999,4.19 2.3599999,4.19 c 0.4500001,0 0.75,-0.2300002 0.9,-0.7 z"
                   id="path59" />
              </g>
              <g
                 transform="translate(26.38)"
                 id="g61">
                <path
                   d="m 0,0 m 3.6399999,3.78 c 0,0.3900001 -0.3699999,0.6400001 -0.76,0.6400001 -0.51,0 -0.9,-0.3000002 -1.16,-0.9100001 V 4.4200001 L 0.28,4.31 V 3.9299999 c 0.35,0 0.55999994,-0.03 0.64,-0.09 0.08,-0.06 0.12,-0.19 0.12,-0.42 V 0.78999998 c 0,-0.19 -0.03,-0.30999997 -0.1,-0.34999996 -0.07,-0.04 -0.29000002,-0.06 -0.65999997,-0.06 V 1.3999999e-8 L 1.4300001,0.03000001 c 0.4199999,0.01 0.85,0 1.2800001,-0.029999996 V 0.38000001 h -0.24 c -0.3300002,0 -0.5400001,0.03 -0.61,0.08 -0.07,0.05 -0.1000001,0.17000002 -0.1000001,0.35000002 V 2.32 c 0,0.4300001 0.08,0.8199999 0.2300001,1.1500001 0.2,0.4299998 0.49,0.6499999 0.8799999,0.6600001 C 2.7700002,4.0299998 2.7200002,3.9099999 2.7200002,3.7700001 2.7200002,3.4600001 2.8700001,3.31 3.18,3.31 c 0.27,0 0.46,0.2100001 0.4599999,0.47 z"
                   id="path60" />
              </g>
              <g
                 transform="translate(30.3)"
                 id="g62">
                <path
                   d="m 0,0 m 3.32,1.26 v 0.6 H 3.0000001 V 1.28 C 3.0000001,0.77999996 2.82,0.21999996 2.38,0.21999996 c -0.41,0 -0.6099999,0.34 -0.6099999,1.02000004 V 3.9499998 H 3.16 V 4.3299999 H 1.7700001 V 6.1500001 H 1.45 C 1.44,5.8199997 1.4100001,5.5299997 1.34,5.27 1.17,4.6100001 0.78000007,4.27 0.19000011,4.2399998 v -0.29 H 1.0200001 V 1.26 c 0,-0.59000003 0.18,-0.97 0.53,-1.16 0.27,-0.13999999 0.52,-0.21 0.77,-0.21 0.6600001,0 1,0.66 0.9999999,1.37 z"
                   id="path61" />
              </g>
            </g>
            <g
               class="typst-text"
               transform="matrix(1,0,0,-1,291.186,20.57)"
               id="g74">
              <g
                 id="g64">
                <path
                   d="m 0,0 m 4.22,0.03 c 0.2000003,0.01 0.5,0 0.8899999,-0.03 v 0.39 c -0.2399998,0 -0.4199996,0.03 -0.54,0.08 C 4.45,0.52 4.3100002,0.65999997 4.1500003,0.89 L 2.9000001,2.6599999 c -0.03,0.09 -0.05,0.1200001 -0.05,0.09 0,0.01 0.1000001,0.1 0.3099999,0.2799999 0.3500001,0.31 0.6100001,0.51 0.78,0.6199999 0.3100002,0.1900001 0.6200001,0.29 0.9400003,0.31 v 0.3799998 c -0.21,-0.02 -0.4500003,-0.03 -0.7200003,-0.03 -0.46,0 -0.8399999,0.01 -1.1499999,0.03 V 3.9599999 c 0.1899998,-0.01 0.29,-0.08 0.29,-0.2099998 0,-0.1200002 -0.07,-0.24 -0.2000001,-0.3600002 L 1.7800002,2.24 v 4.7 L 0.28000024,6.8299999 V 6.4499998 c 0.35999998,0 0.5799999,-0.03 0.65999997,-0.09 0.08,-0.06 0.10999999,-0.1999999 0.10999999,-0.4299999 V 0.78999983 c 0,-0.19 -0.04,-0.30999997 -0.10999999,-0.34999996 -0.07,-0.04 -0.29000002,-0.05 -0.65999997,-0.05 V -1.42e-7 L 1.3900002,0.02999986 2.5100002,-1.42e-7 V 0.38999986 c -0.3700001,0 -0.58,0.01 -0.65,0.05 -0.07,0.04 -0.11,0.15999997 -0.11,0.34999996 V 1.7899998 l 0.5799999,0.51 0.1600001,-0.24 c 0.6499999,-0.9 0.98,-1.39999998 0.98,-1.48999998 0,-0.12000001 -0.1200001,-0.18 -0.3600001,-0.18 v -0.39 z"
                   id="path63" />
              </g>
              <g
                 transform="translate(5.28)"
                 id="g65">
                <path
                   d="m 0,0 m 4.31,4.5299997 c -0.3800001,0 -0.73,-0.1499996 -1.05,-0.4499998 -0.3,0.23 -0.6400001,0.3400002 -1.03,0.3400002 -0.86,0 -1.6400001,-0.6400001 -1.6400001,-1.4800003 0,-0.4199999 0.15000004,-0.7599998 0.45,-1.0199999 -0.19,-0.2400001 -0.28999996,-0.51 -0.28999996,-0.82 0,-0.38000003 0.13,-0.67000008 0.37999996,-0.85999998 -0.41999998,-0.14 -0.84999996,-0.5 -0.84999996,-1.01 C 0.27999994,-1.2 0.55999994,-1.5400001 1.11,-1.7800001 1.5299999,-1.97 1.99,-2.06 2.49,-2.06 c 0.51,0 0.98,0.09 1.3999999,0.2799999 0.5500002,0.24 0.8200002,0.5800001 0.8200002,1.03000002 0,0.53 -0.2200003,0.92 -0.6600003,1.17 C 3.59,0.66999989 3.08,0.69999992 2.34,0.69999992 c -0.44,0 -0.68,0 -0.7299999,0.01 -0.2800001,0.04 -0.48,0.30999998 -0.48,0.61999998 0,0.1500001 0.04,0.29 0.13,0.4100001 0.2799999,-0.1900001 0.6,-0.2900001 0.97,-0.2900001 0.8599999,0 1.6299999,0.64 1.6299999,1.4799999 0,0.3900001 -0.1299999,0.71 -0.3899999,0.96 0.25,0.23 0.52,0.3400002 0.8099997,0.3400002 -0.05,-0.05 -0.08,-0.1300001 -0.08,-0.23 0,-0.2200001 0.1100001,-0.3300002 0.3299999,-0.3300002 0.21,0 0.3200002,0.1100001 0.3200002,0.3399999 0,0.3099999 -0.2399998,0.52 -0.5399999,0.52 z M 2.23,4.1100001 C 2.77,4.1100001 3.0399999,3.72 3.0399999,2.9399998 3.0399999,2.1499998 2.77,1.75 2.23,1.75 c -0.5500001,0 -0.8200001,0.3899999 -0.8200001,1.1799998 0,0.7900002 0.27,1.1800003 0.8200001,1.1800003 z m -0.59,-4.07 h 0.58 c 0.52,0 0.9399998,-0.03 1.26,-0.09999999 0.4299998,-0.08999999 0.6399999,-0.32999998 0.6399999,-0.71 0,-0.32000001 -0.2000001,-0.56999991 -0.5999999,-0.76000001 -0.31,-0.15 -0.6500001,-0.22 -1.02,-0.22 -0.3600002,0 -0.7000001,0.07 -1.02,0.22 C 1.0699999,-1.3399998 0.86999998,-1.09 0.86999998,-0.76999989 c 0,0.42 0.36000002,0.81 0.77000002,0.80999999 z"
                   id="path64" />
              </g>
              <g
                 transform="translate(13.6)"
                 id="g66">
                <path
                   d="M 0,0 M 3.6,1.3 C 3.6,2.06 3.08,2.54 2.05,2.74 1.58,2.83 1.28,2.9399998 1.12,3.0499999 0.96000002,3.1599998 0.88000004,3.3199999 0.88000004,3.51 c 0,0.47 0.35000006,0.7 1.04999996,0.7 0.68,0 1.0500001,-0.3800001 1.1,-1.1500001 C 3.04,2.98 3.09,2.9399998 3.1899999,2.9399998 3.3,2.9399998 3.36,3.03 3.36,3.21 V 4.1999998 C 3.36,4.3899999 3.31,4.48 3.2100001,4.48 3.1,4.48 2.9500001,4.2999997 2.85,4.2199998 2.6,4.3899999 2.29,4.48 1.93,4.48 1.04,4.48 0.33000012,4.0799999 0.33000012,3.23 c 0,-0.3400001 0.14000002,-0.6300001 0.43,-0.8600001 C 1.1100001,2.0799999 1.4400001,2.02 2.0700001,1.91 c 0.6500001,-0.13 0.98,-0.42 0.98,-0.87 0,-0.56999995 -0.3499999,-0.85999997 -1.06,-0.85999997 -0.69,0 -1.13000008,0.45999998 -1.31999998,1.36999997 -0.03,0.13 -0.08,0.2000001 -0.16999996,0.2000001 -0.11000001,0 -0.17000002,-0.1 -0.17000002,-0.2900001 V 0.17 c 0,-0.19 0.05,-0.28 0.15,-0.28 0.03,0 0.08,0.03 0.16,0.1 0.18,0.16 0.10000002,0.13 0.27999997,0.30999997 C 1.2100001,0.02999999 1.5700001,-0.11 1.9900001,-0.11 2.9399999,-0.11 3.6,0.38 3.6,1.3 Z"
                   id="path65" />
              </g>
              <g
                 transform="translate(17.54)"
                 id="g67">
                <path
                   d="m 0,0 m 2.49,-0.11 c 0.6199999,0 1.1399999,0.22 1.5699999,0.66 C 4.4899997,0.98999994 4.71,1.52 4.71,2.1399999 4.71,2.77 4.5,3.32 4.0799999,3.78 3.6599998,4.2399998 3.1299999,4.48 2.5,4.48 1.87,4.48 1.35,4.2399998 0.92,3.78 0.49000002,3.32 0.28,2.77 0.28,2.1399999 0.28,1.52 0.48999998,0.99 0.92,0.55 1.3500001,0.11 1.88,-0.11 2.49,-0.11 Z M 2.5,0.21 C 2.02,0.21 1.66,0.42 1.41,0.85 1.25,1.13 1.17,1.59 1.17,2.2200001 1.17,2.83 1.25,3.2700001 1.4,3.55 1.64,3.9800001 2,4.1900001 2.49,4.1900001 c 0.47,0 0.8299999,-0.21 1.0799999,-0.6200001 0.1700001,-0.28 0.25,-0.73 0.25,-1.3499999 C 3.8199999,1.06 3.48,0.2100001 2.5,0.21 Z"
                   id="path66" />
              </g>
              <g
                 transform="translate(22.54)"
                 id="g68">
                <path
                   d="m 0,0 m 1.4399999,0.03 1.11,-0.03 v 0.39 c -0.3599999,0 -0.58,0.01 -0.65,0.05 -0.07,0.04 -0.1,0.15999997 -0.1,0.34999996 V 6.94 L 0.32999988,6.8299998 V 6.4499997 c 0.35000002,0 0.57,-0.03 0.64,-0.09 0.07,-0.06 0.10999992,-0.1999998 0.10999992,-0.4299998 V 0.78999976 c 0,-0.19 -0.03,-0.30999997 -0.0999999,-0.34999996 -0.07,-0.04 -0.28999996,-0.05 -0.65,-0.05 v -0.39 z"
                   id="path67" />
              </g>
              <g
                 transform="translate(25.32)"
                 id="g69">
                <path
                   d="M 0,0 M 2.6699998,0.17999999 C 1.9799999,0.17999999 1.8499999,0.47000001 1.8499999,1.12 V 4.4200002 L 0.31999987,4.3100001 V 3.93 c 0.39,0 0.62,-0.04 0.68,-0.1099999 0.0599999,-0.07 0.09,-0.32 0.09,-0.76 v -1.47 c 0,-0.39 0.03,-0.68999998 0.1,-0.92 0.15,-0.52 0.7000001,-0.78 1.43,-0.78 0.54,0 0.9500001,0.25 1.23,0.76 v -0.76 l 1.5,0.110000005 V 0.3800001 c -0.3600001,0 -0.5700002,0.02 -0.6500001,0.08 -0.08,0.06 -0.1199999,0.19999999 -0.1199999,0.43 v 3.5300002 l -1.52,-0.1100001 V 3.9300001 c 0.3499999,0 0.56,-0.03 0.6399999,-0.09 0.08,-0.06 0.1200001,-0.19 0.1200001,-0.42 V 1.6700002 c 0,-0.79 -0.4200001,-1.49000004 -1.1500001,-1.49000021 z"
                   id="path68" />
              </g>
              <g
                 transform="translate(30.88)"
                 id="g70">
                <path
                   d="m 0,0 m 3.32,1.26 v 0.6 H 3.0000001 V 1.28 C 3.0000001,0.77999996 2.82,0.21999996 2.38,0.21999996 c -0.41,0 -0.6099999,0.34 -0.6099999,1.02000004 V 3.9499998 H 3.16 V 4.3299999 H 1.7700001 V 6.1500001 H 1.45 C 1.44,5.8199997 1.4100001,5.5299997 1.34,5.27 1.17,4.6100001 0.78000007,4.27 0.19000011,4.2399998 v -0.29 H 1.0200001 V 1.26 c 0,-0.59000003 0.18,-0.97 0.53,-1.16 0.27,-0.13999999 0.52,-0.21 0.77,-0.21 0.6600001,0 1,0.66 0.9999999,1.37 z"
                   id="path69" />
              </g>
              <g
                 transform="translate(34.77)"
                 id="g71">
                <path
                   d="m 0,0 m 1.9399999,6.0099998 c 0,0.3000002 -0.25,0.5599999 -0.55,0.5599999 C 1.09,6.5699997 0.82999995,6.31 0.82999995,6.0099998 c 0,-0.2999997 0.24999995,-0.5699997 0.54999995,-0.5699997 0.31,0 0.56,0.2599997 0.56,0.5699997 z m -0.51,-5.9799995 L 2.47,3e-7 v 0.39 c -0.3300002,0 -0.5300001,0.02 -0.59,0.06 -0.06,0.04 -0.08,0.14999998 -0.08,0.32999998 V 4.4500001 L 0.36999993,4.3300002 V 3.9500001 c 0.32999998,0 0.53999996,-0.03 0.60999995,-0.08 C 1.0499999,3.8200001 1.0799998,3.68 1.0799998,3.45 V 0.7900003 c 0,-0.19 -0.03,-0.30999997 -0.0999999,-0.34999996 -0.07,-0.04 -0.28999996,-0.05 -0.65,-0.05 V 3.24e-7 Z"
                   id="path70" />
              </g>
              <g
                 transform="translate(37.55)"
                 id="g72">
                <path
                   d="m 0,0 m 2.49,-0.11 c 0.6199999,0 1.1399999,0.22 1.5699999,0.66 C 4.4899997,0.98999994 4.71,1.52 4.71,2.1399999 4.71,2.77 4.5,3.32 4.0799999,3.78 3.6599998,4.2399998 3.1299999,4.48 2.5,4.48 1.87,4.48 1.35,4.2399998 0.92,3.78 0.49000002,3.32 0.28,2.77 0.28,2.1399999 0.28,1.52 0.48999998,0.99 0.92,0.55 1.3500001,0.11 1.88,-0.11 2.49,-0.11 Z M 2.5,0.21 C 2.02,0.21 1.66,0.42 1.41,0.85 1.25,1.13 1.17,1.59 1.17,2.2200001 1.17,2.83 1.25,3.2700001 1.4,3.55 1.64,3.9800001 2,4.1900001 2.49,4.1900001 c 0.47,0 0.8299999,-0.21 1.0799999,-0.6200001 0.1700001,-0.28 0.25,-0.73 0.25,-1.3499999 C 3.8199999,1.06 3.48,0.2100001 2.5,0.21 Z"
                   id="path71" />
              </g>
              <g
                 transform="translate(42.55)"
                 id="g73">
                <path
                   d="M 0,0 M 3.1399999,4.13 C 3.5899999,4.13 3.82,3.7799999 3.82,3.0699998 v -2.28 c 0,-0.19 -0.03,-0.30999997 -0.1,-0.34999996 -0.07,-0.04 -0.2900002,-0.06 -0.6600001,-0.06 V -1.62e-7 L 4.2100001,0.02999984 5.35,-1.62e-7 V 0.37999984 c -0.3200002,0 -0.5300002,0.01 -0.6300001,0.04 -0.1,0.03 -0.1399999,0.1 -0.1399999,0.22 V 2.5099998 c 0,0.4700001 -0.01,0.8 -0.04,0.99 C 4.4400001,4.11 3.9900001,4.4199999 3.1999998,4.4199999 2.5699999,4.4199999 2.0999999,4.1199997 1.79,3.5199998 V 4.4199999 L 0.32000004,4.3099998 V 3.9299997 c 0.36,0 0.58,-0.03 0.65999997,-0.09 0.08,-0.06 0.11000009,-0.1900001 0.11000009,-0.4200001 V 0.7899998 c 0,-0.19 -0.04,-0.30999997 -0.11000009,-0.34999996 -0.07,-0.04 -0.28999996,-0.06 -0.65999997,-0.06 V -1.58e-7 L 1.4699999,0.02999984 2.6099999,-1.58e-7 V 0.37999984 c -0.3699999,0 -0.5799999,0.02 -0.65,0.06 -0.07,0.04 -0.11,0.15999997 -0.11,0.34999996 v 1.8 c 0,0.8099999 0.51,1.5400002 1.29,1.5400002 z"
                   id="path72" />
              </g>
            </g>
            <path
               class="typst-shape"
               fill="none"
               stroke="#000000"
               stroke-width="0.48"
               stroke-linecap="butt"
               stroke-linejoin="miter"
               stroke-miterlimit="4"
               transform="translate(291.186,11.21)"
               d="M 0,0 H 48.11"
               id="path74" />
          </g>
        </g>
      </g>
    </g>
    <path
       style="fill:none;stroke:#000000;stroke-width:0.264999;stroke-opacity:1;marker-start:url(#ArrowTriangleStylized)"
       d="M 70.99322,127.6109 H 39.216981"
       id="path78" />
    <path
       style="fill:none;stroke:#000000;stroke-width:0.264999;stroke-opacity:1;marker-start:url(#ArrowTriangleStylized)"
       d="M 137.29554,127.6109 H 105.5193"
       id="path79" />
    <path
       style="fill:none;stroke:#000000;stroke-width:0.264999;stroke-opacity:1;marker-start:url(#ArrowTriangleStylized)"
       d="m 106.59363,106.49244 h 31.77624"
       id="path80" />
    <path
       style="fill:none;stroke:#000000;stroke-width:0.264999;stroke-opacity:1;marker-start:url(#ArrowTriangleStylized)"
       d="m 40.291312,106.49244 h 31.77624"
       id="path81" />
    <g
       inkscape:label=""
       transform="translate(79.4669,122.919)"
       id="g108">
      <g
         transform="matrix(0.352778,0,0,0.352778,-129.46358,-0.21524101)"
         id="g107">
        <g
           class="typst-group"
           id="g106">
          <g
             id="g105">
            <g
               class="typst-text"
               transform="matrix(1,0,0,-1,252.079,6.94)"
               id="g83">
              <g
                 id="g82">
                <path
                   d="m 0,0 m 5.2,6.67 c 0,0.1099997 -0.07,0.1599998 -0.1999998,0.1599998 l -1.46,-0.03 -1.31,0.03 c -0.1500001,0.01 -0.23,-0.07 -0.23,-0.2400002 0,-0.07 0.03,-0.1199999 0.09,-0.1299996 0.09,-0.01 0.1700001,-0.02 0.22,-0.02 0.31,-0.01 0.48,-0.03 0.53,-0.040001 0.05,-0.01 0.08,-0.04 0.08,-0.09 0,-0.02 -0.01,-0.08 -0.04,-0.1800003 l -1.32,-5.30999864 c -0.06,-0.22000003 -0.16,-0.35 -0.31,-0.4 -0.06,-0.02 -0.24,-0.03 -0.54999997,-0.03 -0.21000001,0 -0.31,-0.08 -0.31,-0.24 0,-0.09999999 0.1,-0.149999986999989 0.31,-0.149999986999989 H 5.2700002 c 0.25,0 0.27,0 0.3399997,0.189999996999989 L 6.3900001,2.33 c 0.03,0.07 0.04,0.1200001 0.04,0.1500001 0,0.1 -0.05,0.1499998 -0.1599999,0.1499998 -0.1,0 -0.1500001,-0.09 -0.2000003,-0.23 C 5.8799999,1.91 5.7,1.54 5.5499999,1.31 5.18,0.75000007 4.5499999,0.39000005 3.6300001,0.39000005 H 2.7000003 c -0.1100001,0 -0.18,0 -0.21,0.01 -0.07,0 -0.1000001,0.02 -0.1000001,0.05 0,0.02 0.02,0.09 0.05,0.21999997 l 1.33,5.33999968 c 0.06,0.23 0.1899999,0.3600002 0.3800001,0.4100003 0.06,0.01 0.27,0.02 0.6299997,0.02 0.2800002,0 0.4200001,0 0.42,0.23 z"
                   id="path82" />
              </g>
            </g>
            <g
               class="typst-text"
               transform="matrix(1,0,0,-1,258.889,9.41)"
               id="g85">
              <g
                 id="g84">
                <path
                   d="m 0,0 m 3.6120002,2.233 c 0,0.7910001 -0.1400001,1.3930001 -0.4130001,1.806 -0.224,0.3499999 -0.6719999,0.6090002 -1.2110001,0.6090002 -0.224,0 -0.427,-0.035 -0.602,-0.112 C 0.61599996,4.2140002 0.3639999,3.318 0.3639999,2.233 c 0,-0.238 0.014,-0.462 0.035,-0.679 0.11899999,-0.91699999 0.546,-1.69399999 1.589,-1.69399999 0.2240001,0 0.4269999,0.035 0.6020001,0.112 C 3.36,0.28700001 3.6120001,1.162 3.6120002,2.233 Z M 2.8140001,3.7870001 c 0.077,-0.2590001 0.119,-0.7420001 0.119,-1.463 0,-0.6860001 -0.028,-1.169 -0.091,-1.4560001 -0.084,-0.41300002 -0.378,-0.75600004 -0.854,-0.75600004 -0.175,0 -0.35,0.056 -0.5110001,0.175 C 1.26,0.44799997 1.1270001,0.76299996 1.071,1.246 1.05,1.407 1.043,1.764 1.043,2.3240001 c 0,0.6789999 0.035,1.148 0.105,1.4000001 0.119,0.4479997 0.399,0.6719997 0.84,0.6719997 0.4199999,0 0.728,-0.2729998 0.8260001,-0.6089998 z"
                   id="path83" />
              </g>
            </g>
            <g
               class="typst-text"
               transform="matrix(1,0,0,-1,266.209,6.94)"
               id="g87">
              <g
                 id="g86">
                <path
                   d="M 0,0 M 6.98,3.6699998 H 0.7999997 c -0.15999997,0 -0.23999995,-0.08 -0.23999995,-0.23 0,-0.1499999 0.08,-0.2299998 0.23999995,-0.2299998 H 6.98 c 0.1599999,0 0.2399998,0.08 0.2399998,0.2299998 0,0.1200001 -0.1100002,0.23 -0.2399998,0.23 z m 0,-1.8799999 H 0.7999997 c -0.15999997,0 -0.23999995,-0.08 -0.23999995,-0.23 0,-0.15 0.08,-0.23 0.23999995,-0.23 H 6.98 c 0.1599999,0 0.2399998,0.08 0.2399998,0.23 0,0.13 -0.1100002,0.23 -0.2399998,0.23 z"
                   id="path85" />
              </g>
            </g>
            <g
               class="typst-text"
               transform="matrix(1,0,0,-1,276.767,6.94)"
               id="g89">
              <g
                 id="g88">
                <path
                   d="M 0,0 M 2.69,6.66 C 2.2799999,6.2399999 1.6799999,6.0299999 0.8899999,6.0299999 V 5.64 c 0.52,0 0.9499999,0.08 1.2799999,0.2399998 V 0.8200003 c 0,-0.18 -0.04,-0.3 -0.1299999,-0.35 -0.09,-0.05 -0.34,-0.08 -0.74,-0.08 H 0.94999996 V 3e-7 c 0.24999994,0.02 0.79000004,0.03 1.61999994,0.03 0.8299999,0 1.3699999,-0.01 1.6200001,-0.03 v 0.39 H 3.8399998 c -0.4100001,0 -0.6600001,0.03 -0.74,0.08 -0.08,0.05 -0.1299999,0.16999999 -0.1299999,0.35 V 6.3599998 C 2.9699999,6.6 2.95,6.66 2.69,6.66 Z"
                   id="path87" />
              </g>
            </g>
            <g
               class="typst-text"
               transform="matrix(1,0,0,-1,281.767,6.94)"
               id="g91">
              <g
                 id="g90">
                <path
                   d="M 0,0 M 2.49,-0.22 C 3.8999998,-0.22 4.6,0.92 4.6,3.1999998 4.6,4.73 4.2799998,5.75 3.6499999,6.25 3.3000001,6.52 2.9099999,6.6599998 2.5,6.6599998 c -1.41,0 -2.11000005,-1.15 -2.11000005,-3.4599999 0,-1.8399998 0.49,-3.41999985 2.10000005,-3.4199999 z m 1.1199999,5.4599996 c 0.07,-0.3499999 0.1,-0.9899998 0.1,-1.9199998 0,-0.9200001 -0.04,-1.6 -0.1099999,-2.04 C 3.47,0.47999985 3.0999999,0.0799999 2.49,0.0799999 c -0.23,0 -0.46,0.09 -0.6700001,0.26 -0.27,0.22999999 -0.4299999,0.6999999 -0.5,1.42 -0.03,0.25 -0.04,0.77 -0.04,1.56 0,0.8700001 0.03,1.4799998 0.08,1.8100002 0.09,0.5499997 0.27,0.8999996 0.5499999,1.0499997 0.2199999,0.1199999 0.41,0.1799998 0.5800001,0.1799998 0.6499998,0 1.01,-0.5299997 1.12,-1.12 z"
                   id="path89" />
              </g>
            </g>
            <g
               class="typst-text"
               transform="matrix(1,0,0,-1,286.767,6.94)"
               id="g93">
              <g
                 id="g92">
                <path
                   d="M 0,0 M 2.49,-0.22 C 3.8999998,-0.22 4.6,0.92 4.6,3.1999998 4.6,4.73 4.2799998,5.75 3.6499999,6.25 3.3000001,6.52 2.9099999,6.6599998 2.5,6.6599998 c -1.41,0 -2.11000005,-1.15 -2.11000005,-3.4599999 0,-1.8399998 0.49,-3.41999985 2.10000005,-3.4199999 z m 1.1199999,5.4599996 c 0.07,-0.3499999 0.1,-0.9899998 0.1,-1.9199998 0,-0.9200001 -0.04,-1.6 -0.1099999,-2.04 C 3.47,0.47999985 3.0999999,0.0799999 2.49,0.0799999 c -0.23,0 -0.46,0.09 -0.6700001,0.26 -0.27,0.22999999 -0.4299999,0.6999999 -0.5,1.42 -0.03,0.25 -0.04,0.77 -0.04,1.56 0,0.8700001 0.03,1.4799998 0.08,1.8100002 0.09,0.5499997 0.27,0.8999996 0.5499999,1.0499997 0.2199999,0.1199999 0.41,0.1799998 0.5800001,0.1799998 0.6499998,0 1.01,-0.5299997 1.12,-1.12 z"
                   id="path91" />
              </g>
            </g>
            <g
               class="typst-text"
               transform="matrix(1,0,0,-1,295.087,6.94)"
               id="g104">
              <g
                 id="g94">
                <path
                   d="m 0,0 m 4.22,0.03 c 0.2000003,0.01 0.5,0 0.8899999,-0.03 v 0.39 c -0.2399998,0 -0.4199996,0.03 -0.54,0.08 C 4.45,0.52 4.3100002,0.65999997 4.1500003,0.89 L 2.9000001,2.6599999 c -0.03,0.09 -0.05,0.1200001 -0.05,0.09 0,0.01 0.1000001,0.1 0.3099999,0.2799999 0.3500001,0.31 0.6100001,0.51 0.78,0.6199999 0.3100002,0.1900001 0.6200001,0.29 0.9400003,0.31 v 0.3799998 c -0.21,-0.02 -0.4500003,-0.03 -0.7200003,-0.03 -0.46,0 -0.8399999,0.01 -1.1499999,0.03 V 3.9599999 c 0.1899998,-0.01 0.29,-0.08 0.29,-0.2099998 0,-0.1200002 -0.07,-0.24 -0.2000001,-0.3600002 L 1.7800002,2.24 v 4.7 L 0.28000024,6.8299999 V 6.4499998 c 0.35999998,0 0.5799999,-0.03 0.65999997,-0.09 0.08,-0.06 0.10999999,-0.1999999 0.10999999,-0.4299999 V 0.78999983 c 0,-0.19 -0.04,-0.30999997 -0.10999999,-0.34999996 -0.07,-0.04 -0.29000002,-0.05 -0.65999997,-0.05 V -1.42e-7 L 1.3900002,0.02999986 2.5100002,-1.42e-7 V 0.38999986 c -0.3700001,0 -0.58,0.01 -0.65,0.05 -0.07,0.04 -0.11,0.15999997 -0.11,0.34999996 V 1.7899998 l 0.5799999,0.51 0.1600001,-0.24 c 0.6499999,-0.9 0.98,-1.39999998 0.98,-1.48999998 0,-0.12000001 -0.1200001,-0.18 -0.3600001,-0.18 v -0.39 z"
                   id="path93" />
              </g>
              <g
                 transform="translate(5.28)"
                 id="g95">
                <path
                   d="m 0,0 m 4.31,4.5299997 c -0.3800001,0 -0.73,-0.1499996 -1.05,-0.4499998 -0.3,0.23 -0.6400001,0.3400002 -1.03,0.3400002 -0.86,0 -1.6400001,-0.6400001 -1.6400001,-1.4800003 0,-0.4199999 0.15000004,-0.7599998 0.45,-1.0199999 -0.19,-0.2400001 -0.28999996,-0.51 -0.28999996,-0.82 0,-0.38000003 0.13,-0.67000008 0.37999996,-0.85999998 -0.41999998,-0.14 -0.84999996,-0.5 -0.84999996,-1.01 C 0.27999994,-1.2 0.55999994,-1.5400001 1.11,-1.7800001 1.5299999,-1.97 1.99,-2.06 2.49,-2.06 c 0.51,0 0.98,0.09 1.3999999,0.2799999 0.5500002,0.24 0.8200002,0.5800001 0.8200002,1.03000002 0,0.53 -0.2200003,0.92 -0.6600003,1.17 C 3.59,0.66999989 3.08,0.69999992 2.34,0.69999992 c -0.44,0 -0.68,0 -0.7299999,0.01 -0.2800001,0.04 -0.48,0.30999998 -0.48,0.61999998 0,0.1500001 0.04,0.29 0.13,0.4100001 0.2799999,-0.1900001 0.6,-0.2900001 0.97,-0.2900001 0.8599999,0 1.6299999,0.64 1.6299999,1.4799999 0,0.3900001 -0.1299999,0.71 -0.3899999,0.96 0.25,0.23 0.52,0.3400002 0.8099997,0.3400002 -0.05,-0.05 -0.08,-0.1300001 -0.08,-0.23 0,-0.2200001 0.1100001,-0.3300002 0.3299999,-0.3300002 0.21,0 0.3200002,0.1100001 0.3200002,0.3399999 0,0.3099999 -0.2399998,0.52 -0.5399999,0.52 z M 2.23,4.1100001 C 2.77,4.1100001 3.0399999,3.72 3.0399999,2.9399998 3.0399999,2.1499998 2.77,1.75 2.23,1.75 c -0.5500001,0 -0.8200001,0.3899999 -0.8200001,1.1799998 0,0.7900002 0.27,1.1800003 0.8200001,1.1800003 z m -0.59,-4.07 h 0.58 c 0.52,0 0.9399998,-0.03 1.26,-0.09999999 0.4299998,-0.08999999 0.6399999,-0.32999998 0.6399999,-0.71 0,-0.32000001 -0.2000001,-0.56999991 -0.5999999,-0.76000001 -0.31,-0.15 -0.6500001,-0.22 -1.02,-0.22 -0.3600002,0 -0.7000001,0.07 -1.02,0.22 C 1.0699999,-1.3399998 0.86999998,-1.09 0.86999998,-0.76999989 c 0,0.42 0.36000002,0.81 0.77000002,0.80999999 z"
                   id="path94" />
              </g>
              <g
                 transform="translate(13.6)"
                 id="g96">
                <path
                   d="M 0,0 M 3.6,1.3 C 3.6,2.06 3.08,2.54 2.05,2.74 1.58,2.83 1.28,2.9399998 1.12,3.0499999 0.96000002,3.1599998 0.88000004,3.3199999 0.88000004,3.51 c 0,0.47 0.35000006,0.7 1.04999996,0.7 0.68,0 1.0500001,-0.3800001 1.1,-1.1500001 C 3.04,2.98 3.09,2.9399998 3.1899999,2.9399998 3.3,2.9399998 3.36,3.03 3.36,3.21 V 4.1999998 C 3.36,4.3899999 3.31,4.48 3.2100001,4.48 3.1,4.48 2.9500001,4.2999997 2.85,4.2199998 2.6,4.3899999 2.29,4.48 1.93,4.48 1.04,4.48 0.33000012,4.0799999 0.33000012,3.23 c 0,-0.3400001 0.14000002,-0.6300001 0.43,-0.8600001 C 1.1100001,2.0799999 1.4400001,2.02 2.0700001,1.91 c 0.6500001,-0.13 0.98,-0.42 0.98,-0.87 0,-0.56999995 -0.3499999,-0.85999997 -1.06,-0.85999997 -0.69,0 -1.13000008,0.45999998 -1.31999998,1.36999997 -0.03,0.13 -0.08,0.2000001 -0.16999996,0.2000001 -0.11000001,0 -0.17000002,-0.1 -0.17000002,-0.2900001 V 0.17 c 0,-0.19 0.05,-0.28 0.15,-0.28 0.03,0 0.08,0.03 0.16,0.1 0.18,0.16 0.10000002,0.13 0.27999997,0.30999997 C 1.2100001,0.02999999 1.5700001,-0.11 1.9900001,-0.11 2.9399999,-0.11 3.6,0.38 3.6,1.3 Z"
                   id="path95" />
              </g>
              <g
                 transform="translate(17.54)"
                 id="g97">
                <path
                   d="m 0,0 m 2.49,-0.11 c 0.6199999,0 1.1399999,0.22 1.5699999,0.66 C 4.4899997,0.98999994 4.71,1.52 4.71,2.1399999 4.71,2.77 4.5,3.32 4.0799999,3.78 3.6599998,4.2399998 3.1299999,4.48 2.5,4.48 1.87,4.48 1.35,4.2399998 0.92,3.78 0.49000002,3.32 0.28,2.77 0.28,2.1399999 0.28,1.52 0.48999998,0.99 0.92,0.55 1.3500001,0.11 1.88,-0.11 2.49,-0.11 Z M 2.5,0.21 C 2.02,0.21 1.66,0.42 1.41,0.85 1.25,1.13 1.17,1.59 1.17,2.2200001 1.17,2.83 1.25,3.2700001 1.4,3.55 1.64,3.9800001 2,4.1900001 2.49,4.1900001 c 0.47,0 0.8299999,-0.21 1.0799999,-0.6200001 0.1700001,-0.28 0.25,-0.73 0.25,-1.3499999 C 3.8199999,1.06 3.48,0.2100001 2.5,0.21 Z"
                   id="path96" />
              </g>
              <g
                 transform="translate(22.54)"
                 id="g98">
                <path
                   d="m 0,0 m 1.4399999,0.03 1.11,-0.03 v 0.39 c -0.3599999,0 -0.58,0.01 -0.65,0.05 -0.07,0.04 -0.1,0.15999997 -0.1,0.34999996 V 6.94 L 0.32999988,6.8299998 V 6.4499997 c 0.35000002,0 0.57,-0.03 0.64,-0.09 0.07,-0.06 0.10999992,-0.1999998 0.10999992,-0.4299998 V 0.78999976 c 0,-0.19 -0.03,-0.30999997 -0.0999999,-0.34999996 -0.07,-0.04 -0.28999996,-0.05 -0.65,-0.05 v -0.39 z"
                   id="path97" />
              </g>
              <g
                 transform="translate(25.32)"
                 id="g99">
                <path
                   d="M 0,0 M 2.6699998,0.17999999 C 1.9799999,0.17999999 1.8499999,0.47000001 1.8499999,1.12 V 4.4200002 L 0.31999987,4.3100001 V 3.93 c 0.39,0 0.62,-0.04 0.68,-0.1099999 0.0599999,-0.07 0.09,-0.32 0.09,-0.76 v -1.47 c 0,-0.39 0.03,-0.68999998 0.1,-0.92 0.15,-0.52 0.7000001,-0.78 1.43,-0.78 0.54,0 0.9500001,0.25 1.23,0.76 v -0.76 l 1.5,0.110000005 V 0.3800001 c -0.3600001,0 -0.5700002,0.02 -0.6500001,0.08 -0.08,0.06 -0.1199999,0.19999999 -0.1199999,0.43 v 3.5300002 l -1.52,-0.1100001 V 3.9300001 c 0.3499999,0 0.56,-0.03 0.6399999,-0.09 0.08,-0.06 0.1200001,-0.19 0.1200001,-0.42 V 1.6700002 c 0,-0.79 -0.4200001,-1.49000004 -1.1500001,-1.49000021 z"
                   id="path98" />
              </g>
              <g
                 transform="translate(30.88)"
                 id="g100">
                <path
                   d="m 0,0 m 3.32,1.26 v 0.6 H 3.0000001 V 1.28 C 3.0000001,0.77999996 2.82,0.21999996 2.38,0.21999996 c -0.41,0 -0.6099999,0.34 -0.6099999,1.02000004 V 3.9499998 H 3.16 V 4.3299999 H 1.7700001 V 6.1500001 H 1.45 C 1.44,5.8199997 1.4100001,5.5299997 1.34,5.27 1.17,4.6100001 0.78000007,4.27 0.19000011,4.2399998 v -0.29 H 1.0200001 V 1.26 c 0,-0.59000003 0.18,-0.97 0.53,-1.16 0.27,-0.13999999 0.52,-0.21 0.77,-0.21 0.6600001,0 1,0.66 0.9999999,1.37 z"
                   id="path99" />
              </g>
              <g
                 transform="translate(34.77)"
                 id="g101">
                <path
                   d="m 0,0 m 1.9399999,6.0099998 c 0,0.3000002 -0.25,0.5599999 -0.55,0.5599999 C 1.09,6.5699997 0.82999995,6.31 0.82999995,6.0099998 c 0,-0.2999997 0.24999995,-0.5699997 0.54999995,-0.5699997 0.31,0 0.56,0.2599997 0.56,0.5699997 z m -0.51,-5.9799995 L 2.47,3e-7 v 0.39 c -0.3300002,0 -0.5300001,0.02 -0.59,0.06 -0.06,0.04 -0.08,0.14999998 -0.08,0.32999998 V 4.4500001 L 0.36999993,4.3300002 V 3.9500001 c 0.32999998,0 0.53999996,-0.03 0.60999995,-0.08 C 1.0499999,3.8200001 1.0799998,3.68 1.0799998,3.45 V 0.7900003 c 0,-0.19 -0.03,-0.30999997 -0.0999999,-0.34999996 -0.07,-0.04 -0.28999996,-0.05 -0.65,-0.05 V 3.24e-7 Z"
                   id="path100" />
              </g>
              <g
                 transform="translate(37.55)"
                 id="g102">
                <path
                   d="m 0,0 m 2.49,-0.11 c 0.6199999,0 1.1399999,0.22 1.5699999,0.66 C 4.4899997,0.98999994 4.71,1.52 4.71,2.1399999 4.71,2.77 4.5,3.32 4.0799999,3.78 3.6599998,4.2399998 3.1299999,4.48 2.5,4.48 1.87,4.48 1.35,4.2399998 0.92,3.78 0.49000002,3.32 0.28,2.77 0.28,2.1399999 0.28,1.52 0.48999998,0.99 0.92,0.55 1.3500001,0.11 1.88,-0.11 2.49,-0.11 Z M 2.5,0.21 C 2.02,0.21 1.66,0.42 1.41,0.85 1.25,1.13 1.17,1.59 1.17,2.2200001 1.17,2.83 1.25,3.2700001 1.4,3.55 1.64,3.9800001 2,4.1900001 2.49,4.1900001 c 0.47,0 0.8299999,-0.21 1.0799999,-0.6200001 0.1700001,-0.28 0.25,-0.73 0.25,-1.3499999 C 3.8199999,1.06 3.48,0.2100001 2.5,0.21 Z"
                   id="path101" />
              </g>
              <g
                 transform="translate(42.55)"
                 id="g103">
                <path
                   d="M 0,0 M 3.1399999,4.13 C 3.5899999,4.13 3.82,3.7799999 3.82,3.0699998 v -2.28 c 0,-0.19 -0.03,-0.30999997 -0.1,-0.34999996 -0.07,-0.04 -0.2900002,-0.06 -0.6600001,-0.06 V -1.62e-7 L 4.2100001,0.02999984 5.35,-1.62e-7 V 0.37999984 c -0.3200002,0 -0.5300002,0.01 -0.6300001,0.04 -0.1,0.03 -0.1399999,0.1 -0.1399999,0.22 V 2.5099998 c 0,0.4700001 -0.01,0.8 -0.04,0.99 C 4.4400001,4.11 3.9900001,4.4199999 3.1999998,4.4199999 2.5699999,4.4199999 2.0999999,4.1199997 1.79,3.5199998 V 4.4199999 L 0.32000004,4.3099998 V 3.9299997 c 0.36,0 0.58,-0.03 0.65999997,-0.09 0.08,-0.06 0.11000009,-0.1900001 0.11000009,-0.4200001 V 0.7899998 c 0,-0.19 -0.04,-0.30999997 -0.11000009,-0.34999996 -0.07,-0.04 -0.28999996,-0.06 -0.65999997,-0.06 V -1.58e-7 L 1.4699999,0.02999984 2.6099999,-1.58e-7 V 0.37999984 c -0.3699999,0 -0.5799999,0.02 -0.65,0.06 -0.07,0.04 -0.11,0.15999997 -0.11,0.34999996 v 1.8 c 0,0.8099999 0.51,1.5400002 1.29,1.5400002 z"
                   id="path102" />
              </g>
            </g>
          </g>
        </g>
      </g>
      <text
         xml:space="preserve"
         style="font-style:normal;font-variant:normal;font-weight:normal;font-stretch:normal;font-size:3.52778px;font-family:'Libertinus Serif';-inkscape-font-specification:'Libertinus Serif, Normal';font-variant-ligatures:normal;font-variant-caps:normal;font-variant-numeric:normal;font-variant-east-asian:normal;writing-mode:lr-tb;direction:ltr;fill:none;stroke:#000000;stroke-width:0.265;stroke-dasharray:none;stroke-opacity:1"
         x="-31.656937"
         y="8.8864298"
         id="text108"><tspan
           sodipodi:role="line"
           id="tspan108"
           style="font-style:normal;font-variant:normal;font-weight:normal;font-stretch:normal;font-size:3.52778px;font-family:'Libertinus Serif';-inkscape-font-specification:'Libertinus Serif, Normal';font-variant-ligatures:normal;font-variant-caps:normal;font-variant-numeric:normal;font-variant-east-asian:normal;fill:#000000;fill-opacity:1;stroke:none;stroke-width:0.265;stroke-dasharray:none"
           x="-31.656937"
           y="8.8864298">20 wt% oil</tspan><tspan
           sodipodi:role="line"
           style="font-style:normal;font-variant:normal;font-weight:normal;font-stretch:normal;font-size:3.52778px;font-family:'Libertinus Serif';-inkscape-font-specification:'Libertinus Serif, Normal';font-variant-ligatures:normal;font-variant-caps:normal;font-variant-numeric:normal;font-variant-east-asian:normal;fill:#000000;fill-opacity:1;stroke:none;stroke-width:0.265;stroke-dasharray:none"
           x="-31.656937"
           y="13.296155"
           id="tspan109">80 wt% inert</tspan></text>
      <g
         inkscape:label=""
         transform="translate(-34.102571,-16.36513)"
         id="g118">
        <g
           transform="matrix(0.352778,0,0,0.352778,-1.44833,-3.99168)"
           id="g117">
          <g
             class="typst-text"
             transform="matrix(1,0,0,-1,0,6.83)"
             id="g110">
            <g
               id="g109">
              <path
                 d="m 0,0 m 6.71,6.7999997 c -0.1900001,0 -0.79,0.03 -0.98,0.03 -0.1500001,0 -0.23,-0.08 -0.23,-0.23 0,-0.1 0.07,-0.1500001 0.1999998,-0.1599999 0.2800002,-0.01 0.4200001,-0.1100001 0.4200001,-0.2800002 0,-0.09 -0.05,-0.21 -0.1399999,-0.3600001 L 3,1.0700002 l -0.6600001,5.12 c 0,0.1699996 0.21,0.25 0.6400001,0.25 0.1999998,0 0.29,0.07 0.29,0.2399998 0,0.1 -0.06,0.1500001 -0.1800001,0.1500001 -0.22,0 -1,-0.03 -1.2199999,-0.03 -0.2000001,0 -0.88000006,0.03 -1.08000001,0.03 -0.14999998,0 -0.22999996,-0.08 -0.22999996,-0.23 0,-0.1100002 0.1,-0.1599999 0.28999996,-0.1599999 0.17000001,0 0.29000001,-0.02 0.37000011,-0.04 C 1.38,6.3500001 1.37,6.3300001 1.4,6.14 L 2.1800001,0.04000002 c 0.03,-0.16999999 0.1099999,-0.26 0.2399998,-0.26 0.1300001,0 0.23,0.07 0.3100001,0.2 L 6.29,5.64 c 0.2300001,0.3600001 0.4499998,0.5900002 0.6700001,0.6799998 0.1499997,0.07 0.3399997,0.1100001 0.56,0.1200004 0.1099996,0.01 0.1599998,0.08 0.1700001,0.23 C 7.6999999,6.7799999 7.64,6.83 7.5200001,6.83 7.37,6.83 6.8599998,6.7999998 6.71,6.7999997 Z"
                 id="path109" />
            </g>
          </g>
          <g
             class="typst-text"
             transform="matrix(1,0,0,-1,4.83,9.3)"
             id="g112">
            <g
               id="g111">
              <path
                 d="M 0,0 M 2.121,4.6480002 C 1.82,4.354 1.372,4.2070002 0.763,4.2070002 V 3.8990001 c 0.413,0 0.742,0.063 0.9940001,0.1820002 V 0.59499998 c 0,-0.091 -0.007,-0.14700001 -0.028,-0.17500001 -0.035,-0.077 -0.245,-0.11900002 -0.6300001,-0.11900002 H 0.81200006 V -5e-8 l 1.24600004,0.028 1.253,-0.028 v 0.301 h -0.287 c -0.385,0 -0.595,0.042 -0.6370001,0.11900002 -0.014,0.028 -0.021,0.084 -0.021,0.17500001 V 4.4240002 c 0,0.1889996 -0.028,0.224 -0.245,0.224 z"
                 id="path110" />
            </g>
          </g>
          <g
             class="typst-text"
             transform="matrix(1,0,0,-1,0,20.16)"
             id="g114">
            <g
               id="g113">
              <path
                 d="M 0,0 M 1.63,4.42 C 1.1799999,4.42 0.83,4.17 0.58,3.6699998 0.39,3.2799999 0.29,3.0099999 0.29,2.8599998 0.29,2.7699998 0.34,2.72 0.45,2.72 0.58999999,2.72 0.59999998,2.78 0.64,2.9299998 0.87000002,3.72 1.1899999,4.1199997 1.5999999,4.1199997 c 0.1300001,0 0.2,-0.09 0.2,-0.2699999 0,-0.1600001 -0.05,-0.3899999 -0.1599999,-0.6800001 -0.38,-1.03 -0.5700001,-1.7199999 -0.5700001,-2.09 0,-0.75999993 0.4700001,-1.2099999 1.24,-1.2099999 0.33,0 0.6400001,0.12 0.9200001,0.35999998 C 2.8799999,-1.0900002 2.3299999,-1.7500002 1.5799999,-1.7500002 c -0.3399999,0 -0.5699999,0.11 -0.68999991,0.33 C 1.29,-1.4000002 1.49,-1.2100001 1.49,-0.85000018 c 0,0.25 -0.13,0.37999997 -0.4,0.37999997 -0.37000005,0 -0.59000002,-0.30999997 -0.59000002,-0.67999999 0,-0.5499999 0.5,-0.9 1.07999992,-0.9 1.1500001,0 2.09,1.06000004 2.34,2.04000004 L 4.8599997,3.7699998 c 0.03,0.1099999 0.04,0.1899999 0.04,0.2399998 0,0.2000003 -0.1100001,0.3000002 -0.3200001,0.3000002 -0.1599999,0 -0.29,-0.08 -0.3800002,-0.23 -0.06,-0.21 -0.1100001,-0.3900001 -0.1399998,-0.54 L 3.4199999,0.96999983 C 3.32,0.60999988 2.79,0.15999989 2.34,0.15999989 c -0.38,0 -0.5699999,0.25 -0.5699999,0.76 0,0.42000001 0.1699999,1.06000001 0.5,1.92000001 0.1299998,0.3499999 0.2,0.5899999 0.2,0.73 C 2.4700001,4.0599999 2.12,4.42 1.63,4.42 Z"
                 id="path112" />
            </g>
          </g>
          <g
             class="typst-text"
             transform="matrix(1,0,0,-1,4.9,22.63)"
             id="g116">
            <g
               id="g115">
              <path
                 d="M 0,0 M 2.121,4.6480002 C 1.82,4.354 1.372,4.2070002 0.763,4.2070002 V 3.8990001 c 0.413,0 0.742,0.063 0.9940001,0.1820002 V 0.59499998 c 0,-0.091 -0.007,-0.14700001 -0.028,-0.17500001 -0.035,-0.077 -0.245,-0.11900002 -0.6300001,-0.11900002 H 0.81200006 V -5e-8 l 1.24600004,0.028 1.253,-0.028 v 0.301 h -0.287 c -0.385,0 -0.595,0.042 -0.6370001,0.11900002 -0.014,0.028 -0.021,0.084 -0.021,0.17500001 V 4.4240002 c 0,0.1889996 -0.028,0.224 -0.245,0.224 z"
                 id="path114" />
            </g>
          </g>
        </g>
      </g>
      <g
         inkscape:label=""
         transform="translate(43.006866,-19.827644)"
         id="g143">
        <g
           transform="matrix(0.352778,0,0,0.352778,-104.949,-1.65982)"
           id="g142">
          <g
             class="typst-group"
             id="g141">
            <g
               id="g140">
              <g
                 class="typst-text"
                 transform="matrix(1,0,0,-1,255.184,6.94)"
                 id="g120">
                <g
                   id="g119">
                  <path
                     d="m 0,0 m 6.71,6.7999997 c -0.1900001,0 -0.79,0.03 -0.98,0.03 -0.1500001,0 -0.23,-0.08 -0.23,-0.23 0,-0.1 0.07,-0.1500001 0.1999998,-0.1599999 0.2800002,-0.01 0.4200001,-0.1100001 0.4200001,-0.2800002 0,-0.09 -0.05,-0.21 -0.1399999,-0.3600001 L 3,1.0700002 l -0.6600001,5.12 c 0,0.1699996 0.21,0.25 0.6400001,0.25 0.1999998,0 0.29,0.07 0.29,0.2399998 0,0.1 -0.06,0.1500001 -0.1800001,0.1500001 -0.22,0 -1,-0.03 -1.2199999,-0.03 -0.2000001,0 -0.88000006,0.03 -1.08000001,0.03 -0.14999998,0 -0.22999996,-0.08 -0.22999996,-0.23 0,-0.1100002 0.1,-0.1599999 0.28999996,-0.1599999 0.17000001,0 0.29000001,-0.02 0.37000011,-0.04 C 1.38,6.3500001 1.37,6.3300001 1.4,6.14 L 2.1800001,0.04000002 c 0.03,-0.16999999 0.1099999,-0.26 0.2399998,-0.26 0.1300001,0 0.23,0.07 0.3100001,0.2 L 6.29,5.64 c 0.2300001,0.3600001 0.4499998,0.5900002 0.6700001,0.6799998 0.1499997,0.07 0.3399997,0.1100001 0.56,0.1200004 0.1099996,0.01 0.1599998,0.08 0.1700001,0.23 C 7.6999999,6.7799999 7.64,6.83 7.5200001,6.83 7.37,6.83 6.8599998,6.7999998 6.71,6.7999997 Z"
                     id="path118" />
                </g>
              </g>
              <g
                 class="typst-text"
                 transform="matrix(1,0,0,-1,260.014,9.41)"
                 id="g122">
                <g
                   id="g121">
                  <path
                     d="m 0,0 m 0.833,2.9680002 c 0.224,0 0.392,0.168 0.392,0.392 0,0.2520001 -0.133,0.385 -0.392,0.3919999 0.15400004,0.3290002 0.504,0.595 0.959,0.595 0.616,0 1.0220002,-0.4619999 1.0220002,-1.0780001 0,-0.3359999 -0.119,-0.658 -0.3640001,-0.973 C 2.3310001,2.135 2.24,2.023 2.1770001,1.96 L 0.51800007,0.315 c -0.091,-0.084 -0.077,-0.10499999 -0.077,-0.315 H 3.3250001 l 0.217,1.316 H 3.2480002 c -0.049,-0.37099993 -0.105,-0.58799994 -0.168,-0.63699996 -0.035,-0.021 -0.2520001,-0.035 -0.6650002,-0.035 H 1.2250001 c 0.469,0.41300006 0.903,0.78400006 1.3160001,1.11300016 0.3150001,0.245 0.539,0.462 0.6789999,0.6509999 0.2100001,0.273 0.3150001,0.5600002 0.3150001,0.8610001 0,0.434 -0.168,0.7769999 -0.5109999,1.0290003 -0.3010001,0.2309999 -0.6790002,0.3499999 -1.1270001,0.3499999 -0.385,0 -0.714,-0.112 -1.00100003,-0.336 -0.301,-0.2450004 -0.455,-0.5530002 -0.455,-0.9310002 0,-0.2379999 0.17499998,-0.4129999 0.39199983,-0.413 z"
                     id="path120" />
                </g>
              </g>
              <g
                 class="typst-text"
                 transform="matrix(1,0,0,-1,267.334,6.94)"
                 id="g124">
                <g
                   id="g123">
                  <path
                     d="M 0,0 M 6.98,3.6699998 H 0.7999997 c -0.15999997,0 -0.23999995,-0.08 -0.23999995,-0.23 0,-0.1499999 0.08,-0.2299998 0.23999995,-0.2299998 H 6.98 c 0.1599999,0 0.2399998,0.08 0.2399998,0.2299998 0,0.1200001 -0.1100002,0.23 -0.2399998,0.23 z m 0,-1.8799999 H 0.7999997 c -0.15999997,0 -0.23999995,-0.08 -0.23999995,-0.23 0,-0.15 0.08,-0.23 0.23999995,-0.23 H 6.98 c 0.1599999,0 0.2399998,0.08 0.2399998,0.23 0,0.13 -0.1100002,0.23 -0.2399998,0.23 z"
                     id="path122" />
                </g>
              </g>
              <g
                 class="typst-text"
                 transform="matrix(1,0,0,-1,277.892,6.94)"
                 id="g126">
                <g
                   id="g125">
                  <path
                     d="M 0,0 M 2.69,6.66 C 2.2799999,6.2399999 1.6799999,6.0299999 0.8899999,6.0299999 V 5.64 c 0.52,0 0.9499999,0.08 1.2799999,0.2399998 V 0.8200003 c 0,-0.18 -0.04,-0.3 -0.1299999,-0.35 -0.09,-0.05 -0.34,-0.08 -0.74,-0.08 H 0.94999996 V 3e-7 c 0.24999994,0.02 0.79000004,0.03 1.61999994,0.03 0.8299999,0 1.3699999,-0.01 1.6200001,-0.03 v 0.39 H 3.8399998 c -0.4100001,0 -0.6600001,0.03 -0.74,0.08 -0.08,0.05 -0.1299999,0.16999999 -0.1299999,0.35 V 6.3599998 C 2.9699999,6.6 2.95,6.66 2.69,6.66 Z"
                     id="path124" />
                </g>
              </g>
              <g
                 class="typst-text"
                 transform="matrix(1,0,0,-1,282.892,6.94)"
                 id="g128">
                <g
                   id="g127">
                  <path
                     d="M 0,0 M 2.49,-0.22 C 3.8999998,-0.22 4.6,0.92 4.6,3.1999998 4.6,4.73 4.2799998,5.75 3.6499999,6.25 3.3000001,6.52 2.9099999,6.6599998 2.5,6.6599998 c -1.41,0 -2.11000005,-1.15 -2.11000005,-3.4599999 0,-1.8399998 0.49,-3.41999985 2.10000005,-3.4199999 z m 1.1199999,5.4599996 c 0.07,-0.3499999 0.1,-0.9899998 0.1,-1.9199998 0,-0.9200001 -0.04,-1.6 -0.1099999,-2.04 C 3.47,0.47999985 3.0999999,0.0799999 2.49,0.0799999 c -0.23,0 -0.46,0.09 -0.6700001,0.26 -0.27,0.22999999 -0.4299999,0.6999999 -0.5,1.42 -0.03,0.25 -0.04,0.77 -0.04,1.56 0,0.8700001 0.03,1.4799998 0.08,1.8100002 0.09,0.5499997 0.27,0.8999996 0.5499999,1.0499997 0.2199999,0.1199999 0.41,0.1799998 0.5800001,0.1799998 0.6499998,0 1.01,-0.5299997 1.12,-1.12 z"
                     id="path126" />
                </g>
              </g>
              <g
                 class="typst-text"
                 transform="matrix(1,0,0,-1,287.892,6.94)"
                 id="g130">
                <g
                   id="g129">
                  <path
                     d="M 0,0 M 2.49,-0.22 C 3.8999998,-0.22 4.6,0.92 4.6,3.1999998 4.6,4.73 4.2799998,5.75 3.6499999,6.25 3.3000001,6.52 2.9099999,6.6599998 2.5,6.6599998 c -1.41,0 -2.11000005,-1.15 -2.11000005,-3.4599999 0,-1.8399998 0.49,-3.41999985 2.10000005,-3.4199999 z m 1.1199999,5.4599996 c 0.07,-0.3499999 0.1,-0.9899998 0.1,-1.9199998 0,-0.9200001 -0.04,-1.6 -0.1099999,-2.04 C 3.47,0.47999985 3.0999999,0.0799999 2.49,0.0799999 c -0.23,0 -0.46,0.09 -0.6700001,0.26 -0.27,0.22999999 -0.4299999,0.6999999 -0.5,1.42 -0.03,0.25 -0.04,0.77 -0.04,1.56 0,0.8700001 0.03,1.4799998 0.08,1.8100002 0.09,0.5499997 0.27,0.8999996 0.5499999,1.0499997 0.2199999,0.1199999 0.41,0.1799998 0.5800001,0.1799998 0.6499998,0 1.01,-0.5299997 1.12,-1.12 z"
                     id="path128" />
                </g>
              </g>
              <g
                 class="typst-text"
                 transform="matrix(1,0,0,-1,296.212,6.94)"
                 id="g139">
                <g
                   id="g131">
                  <path
                     d="m 0,0 m 4.22,0.03 c 0.2000003,0.01 0.5,0 0.8899999,-0.03 v 0.39 c -0.2399998,0 -0.4199996,0.03 -0.54,0.08 C 4.45,0.52 4.3100002,0.65999997 4.1500003,0.89 L 2.9000001,2.6599999 c -0.03,0.09 -0.05,0.1200001 -0.05,0.09 0,0.01 0.1000001,0.1 0.3099999,0.2799999 0.3500001,0.31 0.6100001,0.51 0.78,0.6199999 0.3100002,0.1900001 0.6200001,0.29 0.9400003,0.31 v 0.3799998 c -0.21,-0.02 -0.4500003,-0.03 -0.7200003,-0.03 -0.46,0 -0.8399999,0.01 -1.1499999,0.03 V 3.9599999 c 0.1899998,-0.01 0.29,-0.08 0.29,-0.2099998 0,-0.1200002 -0.07,-0.24 -0.2000001,-0.3600002 L 1.7800002,2.24 v 4.7 L 0.28000024,6.8299999 V 6.4499998 c 0.35999998,0 0.5799999,-0.03 0.65999997,-0.09 0.08,-0.06 0.10999999,-0.1999999 0.10999999,-0.4299999 V 0.78999983 c 0,-0.19 -0.04,-0.30999997 -0.10999999,-0.34999996 -0.07,-0.04 -0.29000002,-0.05 -0.65999997,-0.05 V -1.42e-7 L 1.3900002,0.02999986 2.5100002,-1.42e-7 V 0.38999986 c -0.3700001,0 -0.58,0.01 -0.65,0.05 -0.07,0.04 -0.11,0.15999997 -0.11,0.34999996 V 1.7899998 l 0.5799999,0.51 0.1600001,-0.24 c 0.6499999,-0.9 0.98,-1.39999998 0.98,-1.48999998 0,-0.12000001 -0.1200001,-0.18 -0.3600001,-0.18 v -0.39 z"
                     id="path130" />
                </g>
                <g
                   transform="translate(5.28)"
                   id="g132">
                  <path
                     d="m 0,0 m 4.31,4.5299997 c -0.3800001,0 -0.73,-0.1499996 -1.05,-0.4499998 -0.3,0.23 -0.6400001,0.3400002 -1.03,0.3400002 -0.86,0 -1.6400001,-0.6400001 -1.6400001,-1.4800003 0,-0.4199999 0.15000004,-0.7599998 0.45,-1.0199999 -0.19,-0.2400001 -0.28999996,-0.51 -0.28999996,-0.82 0,-0.38000003 0.13,-0.67000008 0.37999996,-0.85999998 -0.41999998,-0.14 -0.84999996,-0.5 -0.84999996,-1.01 C 0.27999994,-1.2 0.55999994,-1.5400001 1.11,-1.7800001 1.5299999,-1.97 1.99,-2.06 2.49,-2.06 c 0.51,0 0.98,0.09 1.3999999,0.2799999 0.5500002,0.24 0.8200002,0.5800001 0.8200002,1.03000002 0,0.53 -0.2200003,0.92 -0.6600003,1.17 C 3.59,0.66999989 3.08,0.69999992 2.34,0.69999992 c -0.44,0 -0.68,0 -0.7299999,0.01 -0.2800001,0.04 -0.48,0.30999998 -0.48,0.61999998 0,0.1500001 0.04,0.29 0.13,0.4100001 0.2799999,-0.1900001 0.6,-0.2900001 0.97,-0.2900001 0.8599999,0 1.6299999,0.64 1.6299999,1.4799999 0,0.3900001 -0.1299999,0.71 -0.3899999,0.96 0.25,0.23 0.52,0.3400002 0.8099997,0.3400002 -0.05,-0.05 -0.08,-0.1300001 -0.08,-0.23 0,-0.2200001 0.1100001,-0.3300002 0.3299999,-0.3300002 0.21,0 0.3200002,0.1100001 0.3200002,0.3399999 0,0.3099999 -0.2399998,0.52 -0.5399999,0.52 z M 2.23,4.1100001 C 2.77,4.1100001 3.0399999,3.72 3.0399999,2.9399998 3.0399999,2.1499998 2.77,1.75 2.23,1.75 c -0.5500001,0 -0.8200001,0.3899999 -0.8200001,1.1799998 0,0.7900002 0.27,1.1800003 0.8200001,1.1800003 z m -0.59,-4.07 h 0.58 c 0.52,0 0.9399998,-0.03 1.26,-0.09999999 0.4299998,-0.08999999 0.6399999,-0.32999998 0.6399999,-0.71 0,-0.32000001 -0.2000001,-0.56999991 -0.5999999,-0.76000001 -0.31,-0.15 -0.6500001,-0.22 -1.02,-0.22 -0.3600002,0 -0.7000001,0.07 -1.02,0.22 C 1.0699999,-1.3399998 0.86999998,-1.09 0.86999998,-0.76999989 c 0,0.42 0.36000002,0.81 0.77000002,0.80999999 z"
                     id="path131" />
                </g>
                <g
                   transform="translate(13.6)"
                   id="g133">
                  <path
                     d="M 0,0 M 3.1399999,4.15 C 3.5899999,4.15 3.82,3.7999999 3.82,3.0899998 v -2.3 c 0,-0.19 -0.03,-0.30999997 -0.1,-0.34999996 -0.07,-0.04 -0.2900002,-0.05 -0.6600001,-0.05 V -1.72e-7 L 4.2100001,0.02999983 5.35,-1.72e-7 V 0.38999983 c -0.3200002,0 -0.5300002,0.01 -0.6300001,0.04 -0.1,0.03 -0.1399999,0.1 -0.1399999,0.21000001 V 2.5299998 c 0,0.48 -0.01,0.81 -0.04,1 -0.1,0.6099999 -0.5499999,0.9199999 -1.3400002,0.9199999 -0.6099999,0 -1.0699999,-0.2799998 -1.3799999,-0.8399999 V 6.94 L 0.31999994,6.8299998 V 6.4499997 c 0.36,0 0.58,-0.03 0.65999997,-0.09 C 1.0599999,6.2999996 1.09,6.1599998 1.09,5.9299998 V 0.78999976 c 0,-0.19 -0.04,-0.30999997 -0.11000009,-0.34999996 -0.07,-0.04 -0.28999996,-0.05 -0.65999997,-0.05 V -2.14e-7 L 1.4699998,0.02999979 2.6099998,-2.14e-7 V 0.38999979 c -0.3699999,0 -0.5799999,0.01 -0.65,0.05 -0.07,0.04 -0.11,0.15999997 -0.11,0.34999996 V 2.6099997 c 0,0.8099999 0.51,1.5400002 1.2900001,1.5400003 z"
                     id="path132" />
                </g>
                <g
                   transform="translate(19.16)"
                   id="g134">
                  <path
                     d="m 0,0 m 4.15,2.51 c 0,1.1499999 -0.6700001,1.97 -1.7900002,1.97 -0.5999999,0 -1.0999999,-0.23 -1.51,-0.7000001 C 0.46999983,3.3399999 0.27999987,2.81 0.27999987,2.2000001 c 0,-0.6300002 0.20999998,-1.1600002 0.63,-1.62000015 0.41999993,-0.45999998 0.93999993,-0.69 1.56000013,-0.69 0.5699999,0 1.01,0.19999999 1.31,0.59 0.2499997,0.33 0.3700001,0.56999995 0.3700001,0.72999985 0,0.1000001 -0.06,0.1500001 -0.1700001,0.1500001 -0.08,0 -0.1300001,-0.05 -0.1600001,-0.16 -0.22,-0.66000001 -0.6500001,-0.98999999 -1.29,-0.98999999 -0.45,0 -0.7999999,0.21 -1.07,0.64 C 1.27,1.1599999 1.18,1.6299999 1.17,2.27 H 3.8699998 C 4.0899996,2.27 4.15,2.29 4.15,2.51 Z M 3.2599999,3.49 C 3.3699998,3.1599998 3.4199998,2.8399999 3.4199998,2.5499999 H 1.18 C 1.2099999,3.21 1.38,3.6599998 1.68,3.8899998 1.93,4.0899996 2.1499999,4.19 2.3599999,4.19 c 0.4500001,0 0.75,-0.2300002 0.9,-0.7 z"
                     id="path133" />
                </g>
                <g
                   transform="translate(23.6)"
                   id="g135">
                  <path
                     d="M 0,0 M 4.18,0.03 C 4.41,0.04 4.7399999,0.03 5.16,0 V 0.38 C 4.6300003,0.38 4.43,0.39 4.2199999,0.66999996 L 2.9199999,2.35 C 3.35,2.88 3.6399999,3.2400001 3.8,3.4299999 c 0.28,0.3200001 0.6699999,0.49 1.1800001,0.5 V 4.31 C 4.6999999,4.29 4.4200002,4.28 4.14,4.28 3.7700001,4.28 3.4399999,4.29 3.15,4.31 V 3.9299999 c 0.1900001,-0.02 0.29,-0.1099999 0.29,-0.27 0,-0.09 -0.05,-0.1999998 -0.1399999,-0.32 l -0.5799999,-0.72 L 1.9800001,3.57 c -0.05,0.07 -0.08,0.1199999 -0.08,0.1500001 0,0.1299999 0.12,0.1999998 0.35,0.2099998 V 4.31 l -1.11,-0.03 C 0.88000008,4.27 0.56000008,4.28 0.17000011,4.31 V 3.9299999 c 0.35999995,0 0.59,-0.03 0.68999994,-0.08 C 0.96000017,3.8 1.1200002,3.6299999 1.3400001,3.34 L 2.2900002,2.1 c -0.49,-0.63 -0.79,-1.0099999 -0.9,-1.13999992 -0.3200001,-0.39 -0.74000004,-0.58 -1.27000004,-0.58 V 7.9999999e-8 c 0.36999997,0.03 0.65,0.04 0.85999995,0.03 l 0.96999999,-0.03 V 0.38000008 c -0.19,0.03 -0.28,0.12 -0.28,0.26999998 0,0.04 0.01,0.09 0.03,0.13999999 0.06,0.13 0.33,0.47000005 0.81,1.03999995 l 0.72,-0.93999989 C 3.34,0.75000012 3.4,0.6500001 3.43,0.59000011 c 0,-0.13 -0.1199999,-0.19999999 -0.3599999,-0.20999998 v -0.38 z"
                     id="path134" />
                </g>
                <g
                   transform="translate(28.88)"
                   id="g136">
                  <path
                     d="M 0,0 M 4.83,0.90999997 V 1.5 H 4.5099998 V 0.90999997 c 0,-0.39 -0.1099996,-0.59 -0.3199997,-0.59 -0.2,0 -0.3200001,0.25 -0.3200001,0.45 V 2.74 C 3.87,3.0899999 3.83,3.3499999 3.7600001,3.5299999 3.5200001,4.1199998 2.83,4.48 2.13,4.48 1.3600001,4.48 0.59999996,4.0499997 0.59999996,3.3299999 c 0,-0.3299999 0.17000002,-0.5 0.50000004,-0.5 0.3299999,0 0.4899999,0.1600001 0.4899999,0.49 0,0.2899999 -0.15,0.46 -0.4599999,0.49 C 1.35,4.0599999 1.68,4.19 2.1099999,4.19 c 0.6200001,0 1,-0.5700002 1,-1.22 V 2.6399998 c -0.78,-0.05 -1.3699999,-0.1699998 -1.78,-0.3599999 -0.66999996,-0.31 -1.01,-0.74 -1.01,-1.30999998 0,-0.26 0.1,-0.48 0.29000002,-0.65 0.32,-0.29 0.75999998,-0.43 1.31999988,-0.43 0.5900001,0 1.0099999,0.25 1.2699999,0.76 0.07,-0.38 0.3500002,-0.71 0.7800002,-0.71 0.5299998,0 0.8499999,0.42 0.8500001,0.97000005 z M 2,0.18000001 c -0.46,0 -0.84,0.33999997 -0.84,0.79999995 C 1.16,1.91 2.1299999,2.3099999 3.1099999,2.3599999 V 1.41 C 3.1099999,0.74 2.6699998,0.17999996 2,0.18000001 Z"
                     id="path135" />
                </g>
                <g
                   transform="translate(33.88)"
                   id="g137">
                  <path
                     d="M 0,0 M 3.1399999,4.13 C 3.5899999,4.13 3.82,3.7799999 3.82,3.0699998 v -2.28 c 0,-0.19 -0.03,-0.30999997 -0.1,-0.34999996 -0.07,-0.04 -0.2900002,-0.06 -0.6600001,-0.06 V -1.62e-7 L 4.2100001,0.02999984 5.35,-1.62e-7 V 0.37999984 c -0.3200002,0 -0.5300002,0.01 -0.6300001,0.04 -0.1,0.03 -0.1399999,0.1 -0.1399999,0.22 V 2.5099998 c 0,0.4700001 -0.01,0.8 -0.04,0.99 C 4.4400001,4.11 3.9900001,4.4199999 3.1999998,4.4199999 2.5699999,4.4199999 2.0999999,4.1199997 1.79,3.5199998 V 4.4199999 L 0.32000004,4.3099998 V 3.9299997 c 0.36,0 0.58,-0.03 0.65999997,-0.09 0.08,-0.06 0.11000009,-0.1900001 0.11000009,-0.4200001 V 0.7899998 c 0,-0.19 -0.04,-0.30999997 -0.11000009,-0.34999996 -0.07,-0.04 -0.28999996,-0.06 -0.65999997,-0.06 V -1.58e-7 L 1.4699999,0.02999984 2.6099999,-1.58e-7 V 0.37999984 c -0.3699999,0 -0.5799999,0.02 -0.65,0.06 -0.07,0.04 -0.11,0.15999997 -0.11,0.34999996 v 1.8 c 0,0.8099999 0.51,1.5400002 1.29,1.5400002 z"
                     id="path136" />
                </g>
                <g
                   transform="translate(39.44)"
                   id="g138">
                  <path
                     d="m 0,0 m 4.15,2.51 c 0,1.1499999 -0.6700001,1.97 -1.7900002,1.97 -0.5999999,0 -1.0999999,-0.23 -1.51,-0.7000001 C 0.46999983,3.3399999 0.27999987,2.81 0.27999987,2.2000001 c 0,-0.6300002 0.20999998,-1.1600002 0.63,-1.62000015 0.41999993,-0.45999998 0.93999993,-0.69 1.56000013,-0.69 0.5699999,0 1.01,0.19999999 1.31,0.59 0.2499997,0.33 0.3700001,0.56999995 0.3700001,0.72999985 0,0.1000001 -0.06,0.1500001 -0.1700001,0.1500001 -0.08,0 -0.1300001,-0.05 -0.1600001,-0.16 -0.22,-0.66000001 -0.6500001,-0.98999999 -1.29,-0.98999999 -0.45,0 -0.7999999,0.21 -1.07,0.64 C 1.27,1.1599999 1.18,1.6299999 1.17,2.27 H 3.8699998 C 4.0899996,2.27 4.15,2.29 4.15,2.51 Z M 3.2599999,3.49 C 3.3699998,3.1599998 3.4199998,2.8399999 3.4199998,2.5499999 H 1.18 C 1.2099999,3.21 1.38,3.6599998 1.68,3.8899998 1.93,4.0899996 2.1499999,4.19 2.3599999,4.19 c 0.4500001,0 0.75,-0.2300002 0.9,-0.7 z"
                     id="path137" />
                </g>
              </g>
            </g>
          </g>
        </g>
      </g>
      <g
         inkscape:label=""
         transform="translate(31.855712,4.6918939)"
         id="g153">
        <g
           transform="matrix(0.352778,0,0,0.352778,-1.78523,-3.99153)"
           id="g152">
          <g
             class="typst-text"
             transform="matrix(1,0,0,-1,0,6.83)"
             id="g145">
            <g
               id="g144">
              <path
                 d="m 0,0 m 5.2,6.67 c 0,0.1099997 -0.07,0.1599998 -0.1999998,0.1599998 l -1.46,-0.03 -1.31,0.03 c -0.1500001,0.01 -0.23,-0.07 -0.23,-0.2400002 0,-0.07 0.03,-0.1199999 0.09,-0.1299996 0.09,-0.01 0.1700001,-0.02 0.22,-0.02 0.31,-0.01 0.48,-0.03 0.53,-0.040001 0.05,-0.01 0.08,-0.04 0.08,-0.09 0,-0.02 -0.01,-0.08 -0.04,-0.1800003 l -1.32,-5.30999864 c -0.06,-0.22000003 -0.16,-0.35 -0.31,-0.4 -0.06,-0.02 -0.24,-0.03 -0.54999997,-0.03 -0.21000001,0 -0.31,-0.08 -0.31,-0.24 0,-0.09999999 0.1,-0.149999986999998 0.31,-0.149999986999998 H 5.2700002 c 0.25,0 0.27,0 0.3399997,0.189999996999998 L 6.3900001,2.33 c 0.03,0.07 0.04,0.1200001 0.04,0.1500001 0,0.1 -0.05,0.1499998 -0.1599999,0.1499998 -0.1,0 -0.1500001,-0.09 -0.2000003,-0.23 C 5.8799999,1.91 5.7,1.54 5.5499999,1.31 5.18,0.75000007 4.5499999,0.39000005 3.6300001,0.39000005 H 2.7000003 c -0.1100001,0 -0.18,0 -0.21,0.01 -0.07,0 -0.1000001,0.02 -0.1000001,0.05 0,0.02 0.02,0.09 0.05,0.21999997 l 1.33,5.33999968 c 0.06,0.23 0.1899999,0.3600002 0.3800001,0.4100003 0.06,0.01 0.27,0.02 0.6299997,0.02 0.2800002,0 0.4200001,0 0.42,0.23 z"
                 id="path143" />
            </g>
          </g>
          <g
             class="typst-text"
             transform="matrix(1,0,0,-1,6.81,9.3)"
             id="g147">
            <g
               id="g146">
              <path
                 d="M 0,0 M 2.121,4.6480002 C 1.82,4.354 1.372,4.2070002 0.763,4.2070002 V 3.8990001 c 0.413,0 0.742,0.063 0.9940001,0.1820002 V 0.59499998 c 0,-0.091 -0.007,-0.14700001 -0.028,-0.17500001 -0.035,-0.077 -0.245,-0.11900002 -0.6300001,-0.11900002 H 0.81200006 V -5e-8 l 1.24600004,0.028 1.253,-0.028 v 0.301 h -0.287 c -0.385,0 -0.595,0.042 -0.6370001,0.11900002 -0.014,0.028 -0.021,0.084 -0.021,0.17500001 V 4.4240002 c 0,0.1889996 -0.028,0.224 -0.245,0.224 z"
                 id="path145" />
            </g>
          </g>
          <g
             class="typst-text"
             transform="matrix(1,0,0,-1,0,20.16)"
             id="g149">
            <g
               id="g148">
              <path
                 d="M 0,0 M 5.27,3.73 C 5.27,4.19 4.8199997,4.4200001 4.3199997,4.4200001 3.8899999,4.4200001 3.55,4.19 3.29,3.73 3.08,4.19 2.7300001,4.4200001 2.2200001,4.4200001 1.7300001,4.4200001 1.33,4.19 1.0100001,3.74 0.74000012,3.3499999 0.60000007,3.0599999 0.60000007,2.8699999 c 0,-0.09 0.05,-0.1399999 0.15000004,-0.1399999 0.09,0 0.14999998,0.05 0.16999996,0.1399999 0.19000003,0.5799999 0.61000003,1.2600002 1.28000013,1.2600002 0.3299999,0 0.49,-0.2100003 0.49,-0.6200001 C 2.6900002,3.2999999 2.5100001,2.52 2.16,1.18 1.9900001,0.51000003 1.6900001,0.18000005 1.2600001,0.18000005 c -0.14,0 -0.27000003,0.03 -0.37999999,0.08 0.25999999,0.1 0.38999999,0.27999997 0.38999999,0.53999996 C 1.2700001,1.06 1.1400001,1.19 0.87000013,1.19 0.54000009,1.19 0.29000009,0.91000004 0.29000009,0.58000006 c 0,-0.45999998 0.47,-0.69 0.96000001,-0.69 0.42,0 0.76,0.22999999 1.03,0.69 0.1900001,-0.45999998 0.55,-0.69 1.0699999,-0.69 0.48,0 0.8800001,0.22999999 1.1999998,0.68 0.27,0.39 0.4100003,0.68000004 0.4100003,0.86999994 0,0.09 -0.05,0.14 -0.1500001,0.14 C 4.72,1.58 4.6700002,1.53 4.64,1.44 4.4699999,0.87000008 4.0200001,0.18000001 3.37,0.18000001 c -0.33,0 -0.5,0.2 -0.5,0.60999995 0,0.13 0.05,0.40999994 0.1600001,0.86000004 L 3.37,3 c 0.19,0.75 0.5,1.1300001 0.94,1.1300001 0.1399999,0 0.27,-0.03 0.3800001,-0.08 C 4.4200001,3.9599997 4.29,3.7799999 4.29,3.51 4.29,3.25 4.4299999,3.1199999 4.6999999,3.1199999 5.02,3.1199999 5.2700001,3.4099998 5.27,3.73 Z"
                 id="path147" />
            </g>
          </g>
          <g
             class="typst-text"
             transform="matrix(1,0,0,-1,5.72,22.63)"
             id="g151">
            <g
               id="g150">
              <path
                 d="M 0,0 M 2.121,4.6480002 C 1.82,4.354 1.372,4.2070002 0.763,4.2070002 V 3.8990001 c 0.413,0 0.742,0.063 0.9940001,0.1820002 V 0.59499998 c 0,-0.091 -0.007,-0.14700001 -0.028,-0.17500001 -0.035,-0.077 -0.245,-0.11900002 -0.6300001,-0.11900002 H 0.81200006 V -5e-8 l 1.24600004,0.028 1.253,-0.028 v 0.301 h -0.287 c -0.385,0 -0.595,0.042 -0.6370001,0.11900002 -0.014,0.028 -0.021,0.084 -0.021,0.17500001 V 4.4240002 c 0,0.1889996 -0.028,0.224 -0.245,0.224 z"
                 id="path149" />
            </g>
          </g>
        </g>
      </g>
    </g>
  </g>
</svg>
